MontaguSlab-Bold144pt.ufo
<glyph name="quotedbl" format="2">
  <advance width="1250"/>
  <unicode hex="0022"/>
  <outline>
    <contour>
      <point x="134" y="727" type="curve"/>
      <point x="324" y="727" type="line"/>
      <point x="439" y="804"/>
      <point x="603" y="1007"/>
      <point x="603" y="1205" type="curve" smooth="yes"/>
      <point x="603" y="1415"/>
      <point x="473" y="1522"/>
      <point x="310" y="1522" type="curve" smooth="yes"/>
      <point x="154" y="1522"/>
      <point x="54" y="1426"/>
      <point x="54" y="1287" type="curve" smooth="yes"/>
      <point x="54" y="1134"/>
      <point x="173" y="1041"/>
      <point x="369" y="1041" type="curve"/>
      <point x="343" y="943"/>
      <point x="266" y="831"/>
    </contour>
    <contour>
      <point x="727" y="727" type="curve"/>
      <point x="917" y="727" type="line"/>
      <point x="1032" y="804"/>
      <point x="1196" y="1007"/>
      <point x="1196" y="1205" type="curve" smooth="yes"/>
      <point x="1196" y="1415"/>
      <point x="1066" y="1522"/>
      <point x="903" y="1522" type="curve" smooth="yes"/>
      <point x="747" y="1522"/>
      <point x="647" y="1426"/>
      <point x="647" y="1287" type="curve" smooth="yes"/>
      <point x="647" y="1134"/>
      <point x="766" y="1041"/>
      <point x="962" y="1041" type="curve"/>
      <point x="936" y="943"/>
      <point x="859" y="831"/>
    </contour>
  </outline>
</glyph>
<glyph name="parenright" format="2">
  <advance width="642"/>
  <unicode hex="0029"/>
  <outline>
    <contour>
      <point x="166" y="590" type="curve"/>
      <point x="572" y="590" type="line"/>
      <point x="572" y="1116"/>
      <point x="355" y="1439"/>
      <point x="188" y="1600" type="curve"/>
      <point x="-12" y="1600" type="line"/>
      <point x="75" y="1336"/>
      <point x="166" y="1041"/>
    </contour>
    <contour>
      <point x="-12" y="-420" type="curve"/>
      <point x="188" y="-420" type="line"/>
      <point x="355" y="-259"/>
      <point x="572" y="64"/>
      <point x="572" y="590" type="curve"/>
      <point x="166" y="590" type="line"/>
      <point x="166" y="139"/>
      <point x="75" y="-156"/>
    </contour>
  </outline>
</glyph>
<glyph name="plus" format="2">
  <advance width="1266"/>
  <unicode hex="002B"/>
  <outline>
    <contour>
      <point x="490" y="254" type="line"/>
      <point x="776" y="254" type="line"/>
      <point x="776" y="1248" type="line"/>
      <point x="490" y="1248" type="line"/>
    </contour>
    <contour>
      <point x="142" y="616" type="line"/>
      <point x="1124" y="616" type="line"/>
      <point x="1124" y="886" type="line"/>
      <point x="142" y="886" type="line"/>
    </contour>
  </outline>
</glyph>
<glyph name="colon" format="2">
  <advance width="622"/>
  <unicode hex="003A"/>
  <outline>
    <contour>
      <point x="311" y="670" type="curve" smooth="yes"/>
      <point x="467" y="670"/>
      <point x="568" y="771"/>
      <point x="568" y="916" type="curve" smooth="yes"/>
      <point x="568" y="1061"/>
      <point x="467" y="1162"/>
      <point x="311" y="1162" type="curve" smooth="yes"/>
      <point x="155" y="1162"/>
      <point x="54" y="1061"/>
      <point x="54" y="916" type="curve" smooth="yes"/>
      <point x="54" y="771"/>
      <point x="155" y="670"/>
    </contour>
    <contour>
      <point x="311" y="-22" type="curve" smooth="yes"/>
      <point x="467" y="-22"/>
      <point x="568" y="79"/>
      <point x="568" y="224" type="curve" smooth="yes"/>
      <point x="568" y="369"/>
      <point x="467" y="470"/>
      <point x="311" y="470" type="curve" smooth="yes"/>
      <point x="155" y="470"/>
      <point x="54" y="369"/>
      <point x="54" y="224" type="curve" smooth="yes"/>
      <point x="54" y="79"/>
      <point x="155" y="-22"/>
    </contour>
  </outline>
</glyph>
<glyph name="B" format="2">
  <advance width="1593"/>
  <unicode hex="0042"/>
  <anchor x="797" y="0" name="bottom"/>
  <anchor x="797" y="1500" name="top"/>
  <outline>
    <contour>
      <point x="54" y="0" type="line"/>
      <point x="650" y="0" type="line"/>
      <point x="650" y="1500" type="line"/>
      <point x="57" y="1500" type="line"/>
      <point x="57" y="1304" type="line"/>
      <point x="230" y="1304" type="line"/>
      <point x="230" y="196" type="line"/>
      <point x="54" y="196" type="line"/>
    </contour>
    <contour>
      <point x="650" y="0" type="line"/>
      <point x="999" y="0" type="line" smooth="yes"/>
      <point x="1321" y="0"/>
      <point x="1531" y="141"/>
      <point x="1531" y="420" type="curve" smooth="yes"/>
      <point x="1531" y="682"/>
      <point x="1323" y="790"/>
      <point x="989" y="790" type="curve" smooth="yes"/>
      <point x="650" y="790" type="line"/>
      <point x="650" y="666" type="line"/>
      <point x="852" y="666" type="line" smooth="yes"/>
      <point x="1004" y="666"/>
      <point x="1101" y="583"/>
      <point x="1101" y="435" type="curve" smooth="yes"/>
      <point x="1101" y="287"/>
      <point x="1004" y="204"/>
      <point x="852" y="204" type="curve" smooth="yes"/>
      <point x="650" y="204" type="line"/>
    </contour>
    <contour>
      <point x="650" y="776" type="line"/>
      <point x="953" y="776" type="line" smooth="yes"/>
      <point x="1247" y="776"/>
      <point x="1447" y="889"/>
      <point x="1447" y="1138" type="curve" smooth="yes"/>
      <point x="1447" y="1386"/>
      <point x="1235" y="1500"/>
      <point x="923" y="1500" type="curve" smooth="yes"/>
      <point x="650" y="1500" type="line"/>
      <point x="650" y="1300" type="line"/>
      <point x="785" y="1300" type="line" smooth="yes"/>
      <point x="934" y="1300"/>
      <point x="1023" y="1225"/>
      <point x="1023" y="1083" type="curve" smooth="yes"/>
      <point x="1023" y="941"/>
      <point x="934" y="866"/>
      <point x="785" y="866" type="curve" smooth="yes"/>
      <point x="650" y="866" type="line"/>
    </contour>
  </outline>
</glyph>
<glyph name="D" format="2">
  <advance width="1716"/>
  <unicode hex="0044"/>
  <anchor x="793" y="0" name="bottom"/>
  <anchor x="230" y="750" name="stroke"/>
  <anchor x="793" y="1500" name="top"/>
  <outline>
    <contour>
      <point x="650" y="0" type="line"/>
      <point x="846" y="0" type="line" smooth="yes"/>
      <point x="1324" y="0"/>
      <point x="1642" y="270"/>
      <point x="1642" y="750" type="curve" smooth="yes"/>
      <point x="1642" y="1230"/>
      <point x="1324" y="1500"/>
      <point x="846" y="1500" type="curve" smooth="yes"/>
      <point x="650" y="1500" type="line"/>
      <point x="650" y="1294" type="line"/>
      <point x="784" y="1294" type="line" smooth="yes"/>
      <point x="1023" y="1294"/>
      <point x="1180" y="1085"/>
      <point x="1180" y="750" type="curve" smooth="yes"/>
      <point x="1180" y="415"/>
      <point x="1023" y="206"/>
      <point x="784" y="206" type="curve" smooth="yes"/>
      <point x="650" y="206" type="line"/>
    </contour>
    <contour>
      <point x="54" y="0" type="line"/>
      <point x="650" y="0" type="line"/>
      <point x="650" y="1500" type="line"/>
      <point x="57" y="1500" type="line"/>
      <point x="57" y="1304" type="line"/>
      <point x="230" y="1304" type="line"/>
      <point x="230" y="196" type="line"/>
      <point x="54" y="196" type="line"/>
    </contour>
  </outline>
</glyph>
<glyph name="E" format="2">
  <advance width="1558"/>
  <unicode hex="0045"/>
  <anchor x="760" y="0" name="bottom"/>
  <anchor x="1430" y="0" name="ogonek"/>
  <anchor x="788" y="1500" name="top"/>
  <outline>
    <contour>
      <point x="54" y="0" type="line"/>
      <point x="650" y="0" type="line"/>
      <point x="650" y="1500" type="line"/>
      <point x="57" y="1500" type="line"/>
      <point x="57" y="1304" type="line"/>
      <point x="230" y="1304" type="line"/>
      <point x="230" y="196" type="line"/>
      <point x="54" y="196" type="line"/>
    </contour>
    <contour>
      <point x="650" y="0" type="line"/>
      <point x="1430" y="0" type="line"/>
      <point x="1430" y="204" type="line"/>
      <point x="650" y="204" type="line"/>
    </contour>
    <contour>
      <point x="885" y="442" type="curve" smooth="yes"/>
      <point x="885" y="332" type="line"/>
      <point x="1077" y="332" type="line"/>
      <point x="1077" y="672" type="line"/>
      <point x="675" y="672" type="line" smooth="yes"/>
      <point x="825" y="672"/>
      <point x="885" y="602"/>
    </contour>
    <contour>
      <point x="650" y="672" type="line"/>
      <point x="1077" y="672" type="line"/>
      <point x="1077" y="872" type="line"/>
      <point x="650" y="872" type="line"/>
    </contour>
    <contour>
      <point x="1012" y="204" type="curve" smooth="yes"/>
      <point x="1430" y="204" type="line"/>
      <point x="1430" y="580" type="line"/>
      <point x="1232" y="580" type="line"/>
      <point x="1232" y="444" type="line" smooth="yes"/>
      <point x="1232" y="274"/>
      <point x="1172" y="204"/>
    </contour>
    <contour>
      <point x="675" y="872" type="curve" smooth="yes"/>
      <point x="1077" y="872" type="line"/>
      <point x="1077" y="1176" type="line"/>
      <point x="885" y="1176" type="line"/>
      <point x="885" y="1102" type="line" smooth="yes"/>
      <point x="885" y="942"/>
      <point x="825" y="872"/>
    </contour>
    <contour>
      <point x="650" y="1300" type="line"/>
      <point x="1416" y="1300" type="line"/>
      <point x="1416" y="1500" type="line"/>
      <point x="650" y="1500" type="line"/>
    </contour>
    <contour>
      <point x="1218" y="1060" type="curve" smooth="yes"/>
      <point x="1218" y="940" type="line"/>
      <point x="1416" y="940" type="line"/>
      <point x="1416" y="1300" type="line"/>
      <point x="998" y="1300" type="line" smooth="yes"/>
      <point x="1158" y="1300"/>
      <point x="1218" y="1230"/>
    </contour>
  </outline>
</glyph>
<glyph name="F" format="2">
  <advance width="1470"/>
  <unicode hex="0046"/>
  <outline>
    <contour>
      <point x="54" y="0" type="line"/>
      <point x="954" y="0" type="line"/>
      <point x="954" y="196" type="line"/>
      <point x="634" y="196" type="line"/>
      <point x="634" y="1500" type="line"/>
      <point x="60" y="1500" type="line"/>
      <point x="60" y="1307" type="line"/>
      <point x="214" y="1307" type="line"/>
      <point x="214" y="196" type="line"/>
      <point x="54" y="196" type="line"/>
    </contour>
    <contour>
      <point x="863" y="432" type="curve" smooth="yes"/>
      <point x="863" y="306" type="line"/>
      <point x="1055" y="306" type="line"/>
      <point x="1055" y="662" type="line"/>
      <point x="653" y="662" type="line" smooth="yes"/>
      <point x="803" y="662"/>
      <point x="863" y="592"/>
    </contour>
    <contour>
      <point x="634" y="662" type="line"/>
      <point x="1055" y="662" type="line"/>
      <point x="1055" y="862" type="line"/>
      <point x="634" y="862" type="line"/>
    </contour>
    <contour>
      <point x="653" y="862" type="curve" smooth="yes"/>
      <point x="1055" y="862" type="line"/>
      <point x="1055" y="1178" type="line"/>
      <point x="863" y="1178" type="line"/>
      <point x="863" y="1092" type="line" smooth="yes"/>
      <point x="863" y="932"/>
      <point x="803" y="862"/>
    </contour>
    <contour>
      <point x="634" y="1300" type="line"/>
      <point x="1386" y="1300" type="line"/>
      <point x="1386" y="1500" type="line"/>
      <point x="634" y="1500" type="line"/>
    </contour>
    <contour>
      <point x="1188" y="1060" type="curve" smooth="yes"/>
      <point x="1188" y="920" type="line"/>
      <point x="1386" y="920" type="line"/>
      <point x="1386" y="1300" type="line"/>
      <point x="968" y="1300" type="line" smooth="yes"/>
      <point x="1128" y="1300"/>
      <point x="1188" y="1230"/>
    </contour>
  </outline>
</glyph>
<glyph name="K" format="2">
  <advance width="1755"/>
  <unicode hex="004B"/>
  <anchor x="864" y="0" name="bottom"/>
  <anchor x="864" y="1500" name="top"/>
  <outline>
    <contour>
      <point x="568" y="446" type="line"/>
      <point x="1516" y="1304" type="line"/>
      <point x="1658" y="1304" type="line"/>
      <point x="1658" y="1500" type="line"/>
      <point x="1000" y="1500" type="line"/>
      <point x="1000" y="1304" type="line"/>
      <point x="1196" y="1304" type="line"/>
      <point x="428" y="605" type="line"/>
    </contour>
    <contour>
      <point x="54" y="0" type="line"/>
      <point x="797" y="0" type="line"/>
      <point x="797" y="196" type="line"/>
      <point x="650" y="196" type="line"/>
      <point x="650" y="1304" type="line"/>
      <point x="823" y="1304" type="line"/>
      <point x="823" y="1500" type="line"/>
      <point x="57" y="1500" type="line"/>
      <point x="57" y="1304" type="line"/>
      <point x="230" y="1304" type="line"/>
      <point x="230" y="196" type="line"/>
      <point x="54" y="196" type="line"/>
    </contour>
    <contour>
      <point x="946" y="0" type="line"/>
      <point x="1718" y="0" type="line"/>
      <point x="1718" y="196" type="line"/>
      <point x="1597" y="196" type="line"/>
      <point x="1020" y="923" type="line"/>
      <point x="735" y="676" type="line"/>
      <point x="1100" y="196" type="line"/>
      <point x="946" y="196" type="line"/>
    </contour>
  </outline>
</glyph>
<glyph name="M" format="2">
  <advance width="2141"/>
  <unicode hex="004D"/>
  <anchor x="978" y="0" name="bottom"/>
  <anchor x="1069" y="1500" name="top"/>
  <outline>
    <contour>
      <point x="845" y="0" type="line"/>
      <point x="1108" y="0" type="line"/>
      <point x="1499" y="981" type="line"/>
      <point x="1499" y="1500" type="line"/>
      <point x="1484" y="1500" type="line"/>
      <point x="1043" y="395" type="line"/>
      <point x="1114" y="395" type="line"/>
      <point x="644" y="1500" type="line"/>
      <point x="450" y="1500" type="line"/>
      <point x="450" y="928" type="line"/>
    </contour>
    <contour>
      <point x="54" y="0" type="line"/>
      <point x="642" y="0" type="line"/>
      <point x="642" y="196" type="line"/>
      <point x="450" y="196" type="line"/>
      <point x="450" y="1500" type="line"/>
      <point x="57" y="1500" type="line"/>
      <point x="57" y="1304" type="line"/>
      <point x="230" y="1304" type="line"/>
      <point x="230" y="196" type="line"/>
      <point x="54" y="196" type="line"/>
    </contour>
    <contour>
      <point x="1307" y="0" type="line"/>
      <point x="2087" y="0" type="line"/>
      <point x="2087" y="196" type="line"/>
      <point x="1911" y="196" type="line"/>
      <point x="1911" y="1304" type="line"/>
      <point x="2084" y="1304" type="line"/>
      <point x="2084" y="1500" type="line"/>
      <point x="1499" y="1500" type="line"/>
      <point x="1499" y="196" type="line"/>
      <point x="1307" y="196" type="line"/>
    </contour>
  </outline>
</glyph>
<glyph name="N" format="2">
  <advance width="1709"/>
  <unicode hex="004E"/>
  <anchor x="859" y="0" name="bottom"/>
  <anchor x="885" y="1500" name="top"/>
  <outline>
    <contour>
      <point x="1283" y="0" type="line"/>
      <point x="1283" y="636" type="line"/>
      <point x="524" y="1500" type="line"/>
      <point x="454" y="943" type="line"/>
    </contour>
    <contour>
      <point x="54" y="0" type="line"/>
      <point x="646" y="0" type="line"/>
      <point x="646" y="196" type="line"/>
      <point x="454" y="196" type="line"/>
      <point x="454" y="943" type="line"/>
      <point x="524" y="1500" type="line"/>
      <point x="57" y="1500" type="line"/>
      <point x="57" y="1304" type="line"/>
      <point x="230" y="1304" type="line"/>
      <point x="230" y="196" type="line"/>
      <point x="54" y="196" type="line"/>
    </contour>
    <contour>
      <point x="1283" y="0" type="line"/>
      <point x="1507" y="0" type="line"/>
      <point x="1507" y="1304" type="line"/>
      <point x="1667" y="1304" type="line"/>
      <point x="1667" y="1500" type="line"/>
      <point x="1094" y="1500" type="line"/>
      <point x="1094" y="1304" type="line"/>
      <point x="1283" y="1304" type="line"/>
      <point x="1283" y="636" type="line"/>
      <point x="1273" y="636" type="line"/>
    </contour>
  </outline>
</glyph>
<glyph name="P" format="2">
  <advance width="1511"/>
  <unicode hex="0050"/>
  <anchor x="756" y="0" name="bottom"/>
  <anchor x="756" y="1500" name="top"/>
  <outline>
    <contour>
      <point x="54" y="0" type="line"/>
      <point x="1002" y="0" type="line"/>
      <point x="1002" y="196" type="line"/>
      <point x="650" y="196" type="line"/>
      <point x="650" y="1500" type="line"/>
      <point x="57" y="1500" type="line"/>
      <point x="57" y="1304" type="line"/>
      <point x="230" y="1304" type="line"/>
      <point x="230" y="196" type="line"/>
      <point x="54" y="196" type="line"/>
    </contour>
    <contour>
      <point x="650" y="638" type="line"/>
      <point x="946" y="638" type="line" smooth="yes"/>
      <point x="1267" y="638"/>
      <point x="1479" y="783"/>
      <point x="1479" y="1069" type="curve" smooth="yes"/>
      <point x="1479" y="1355"/>
      <point x="1267" y="1500"/>
      <point x="946" y="1500" type="curve" smooth="yes"/>
      <point x="650" y="1500" type="line"/>
      <point x="650" y="1300" type="line"/>
      <point x="792" y="1300" type="line" smooth="yes"/>
      <point x="951" y="1300"/>
      <point x="1049" y="1223"/>
      <point x="1049" y="1069" type="curve" smooth="yes"/>
      <point x="1049" y="915"/>
      <point x="951" y="838"/>
      <point x="792" y="838" type="curve" smooth="yes"/>
      <point x="650" y="838" type="line"/>
    </contour>
  </outline>
</glyph>
<glyph name="Q" format="2">
  <advance width="1836"/>
  <unicode hex="0051"/>
  <anchor x="918" y="0" name="bottom"/>
  <anchor x="918" y="1500" name="top"/>
  <outline>
    <contour>
      <point x="918" y="-32" type="curve" smooth="yes"/>
      <point x="1418" y="-32"/>
      <point x="1762" y="256"/>
      <point x="1762" y="750" type="curve" smooth="yes"/>
      <point x="1762" y="1244"/>
      <point x="1418" y="1532"/>
      <point x="918" y="1532" type="curve" smooth="yes"/>
      <point x="418" y="1532"/>
      <point x="74" y="1244"/>
      <point x="74" y="750" type="curve" smooth="yes"/>
      <point x="74" y="256"/>
      <point x="418" y="-32"/>
    </contour>
    <contour>
      <point x="918" y="162" type="curve" smooth="yes"/>
      <point x="675" y="162"/>
      <point x="532" y="374"/>
      <point x="532" y="750" type="curve" smooth="yes"/>
      <point x="532" y="1127"/>
      <point x="675" y="1338"/>
      <point x="918" y="1338" type="curve" smooth="yes"/>
      <point x="1162" y="1338"/>
      <point x="1304" y="1127"/>
      <point x="1304" y="750" type="curve" smooth="yes"/>
      <point x="1304" y="353"/>
      <point x="1162" y="162"/>
    </contour>
    <contour>
      <point x="650" y="385" type="curve" smooth="yes"/>
      <point x="650" y="67" type="line"/>
      <point x="832" y="67" type="line"/>
      <point x="832" y="419" type="line" smooth="yes"/>
      <point x="832" y="452"/>
      <point x="847" y="471"/>
      <point x="876" y="471" type="curve" smooth="yes"/>
      <point x="905" y="471"/>
      <point x="920" y="452"/>
      <point x="920" y="419" type="curve" smooth="yes"/>
      <point x="920" y="0" type="line"/>
      <point x="1194" y="0" type="line"/>
      <point x="1194" y="385" type="line" smooth="yes"/>
      <point x="1194" y="578"/>
      <point x="1090" y="677"/>
      <point x="922" y="677" type="curve" smooth="yes"/>
      <point x="754" y="677"/>
      <point x="650" y="578"/>
    </contour>
    <contour>
      <point x="1186" y="-380" type="curve" smooth="yes"/>
      <point x="1350" y="-380"/>
      <point x="1452" y="-285"/>
      <point x="1452" y="-98" type="curve" smooth="yes"/>
      <point x="1452" y="-40" type="line"/>
      <point x="1282" y="-40" type="line"/>
      <point x="1282" y="-132" type="line" smooth="yes"/>
      <point x="1282" y="-165"/>
      <point x="1267" y="-184"/>
      <point x="1238" y="-184" type="curve" smooth="yes"/>
      <point x="1209" y="-184"/>
      <point x="1194" y="-165"/>
      <point x="1194" y="-132" type="curve" smooth="yes"/>
      <point x="1194" y="0" type="line"/>
      <point x="920" y="0" type="line"/>
      <point x="920" y="-98" type="line" smooth="yes"/>
      <point x="920" y="-285"/>
      <point x="1022" y="-380"/>
    </contour>
  </outline>
</glyph>
<glyph name="T" format="2">
  <advance width="1644"/>
  <unicode hex="0054"/>
  <anchor x="822" y="0" name="bottom"/>
  <anchor x="822" y="710" name="center"/>
  <anchor x="822" y="1500" name="top"/>
  <outline>
    <contour>
      <point x="324" y="0" type="line"/>
      <point x="1320" y="0" type="line"/>
      <point x="1320" y="196" type="line"/>
      <point x="1032" y="196" type="line"/>
      <point x="1032" y="1500" type="line"/>
      <point x="612" y="1500" type="line"/>
      <point x="612" y="196" type="line"/>
      <point x="324" y="196" type="line"/>
    </contour>
    <contour>
      <point x="82" y="920" type="line"/>
      <point x="280" y="920" type="line"/>
      <point x="280" y="1062" type="line" smooth="yes"/>
      <point x="280" y="1232"/>
      <point x="340" y="1302"/>
      <point x="500" y="1302" type="curve" smooth="yes"/>
      <point x="82" y="1302" type="line"/>
    </contour>
    <contour>
      <point x="82" y="1302" type="line"/>
      <point x="1562" y="1302" type="line"/>
      <point x="1562" y="1500" type="line"/>
      <point x="82" y="1500" type="line"/>
    </contour>
    <contour>
      <point x="1364" y="1062" type="curve" smooth="yes"/>
      <point x="1364" y="920" type="line"/>
      <point x="1562" y="920" type="line"/>
      <point x="1562" y="1302" type="line"/>
      <point x="1144" y="1302" type="line" smooth="yes"/>
      <point x="1304" y="1302"/>
      <point x="1364" y="1232"/>
    </contour>
  </outline>
</glyph>
<glyph name="V" format="2">
  <advance width="1805"/>
  <unicode hex="0056"/>
  <anchor x="903" y="0" name="bottom"/>
  <anchor x="903" y="1500" name="top"/>
  <outline>
    <contour>
      <point x="728" y="-6" type="line"/>
      <point x="1077" y="-6" type="line"/>
      <point x="1613" y="1304" type="line"/>
      <point x="1759" y="1304" type="line"/>
      <point x="1759" y="1500" type="line"/>
      <point x="1149" y="1500" type="line"/>
      <point x="1149" y="1304" type="line"/>
      <point x="1372" y="1304" type="line"/>
      <point x="935" y="225" type="line"/>
      <point x="1074" y="224" type="line"/>
      <point x="646" y="1304" type="line"/>
      <point x="869" y="1304" type="line"/>
      <point x="869" y="1500" type="line"/>
      <point x="46" y="1500" type="line"/>
      <point x="46" y="1304" type="line"/>
      <point x="192" y="1304" type="line"/>
    </contour>
  </outline>
</glyph>
<glyph name="X" format="2">
  <advance width="1700"/>
  <unicode hex="0058"/>
  <anchor x="850" y="0" name="bottom"/>
  <anchor x="850" y="1500" name="top"/>
  <outline>
    <contour>
      <point x="40" y="0" type="line"/>
      <point x="664" y="0" type="line"/>
      <point x="664" y="196" type="line"/>
      <point x="476" y="196" type="line"/>
      <point x="831" y="630" type="line"/>
      <point x="697" y="630" type="line"/>
      <point x="1008" y="196" type="line"/>
      <point x="807" y="196" type="line"/>
      <point x="807" y="0" type="line"/>
      <point x="1663" y="0" type="line"/>
      <point x="1663" y="196" type="line"/>
      <point x="1524" y="196" type="line"/>
      <point x="1031" y="853" type="line"/>
      <point x="733" y="853" type="line"/>
      <point x="189" y="196" type="line"/>
      <point x="40" y="196" type="line"/>
    </contour>
    <contour>
      <point x="647" y="677" type="line"/>
      <point x="945" y="677" type="line"/>
      <point x="1464" y="1304" type="line"/>
      <point x="1610" y="1304" type="line"/>
      <point x="1610" y="1500" type="line"/>
      <point x="1003" y="1500" type="line"/>
      <point x="1003" y="1304" type="line"/>
      <point x="1178" y="1304" type="line"/>
      <point x="847" y="900" type="line"/>
      <point x="982" y="900" type="line"/>
      <point x="692" y="1304" type="line"/>
      <point x="880" y="1304" type="line"/>
      <point x="880" y="1500" type="line"/>
      <point x="41" y="1500" type="line"/>
      <point x="41" y="1304" type="line"/>
      <point x="177" y="1304" type="line"/>
    </contour>
  </outline>
</glyph>
<glyph name="backslash" format="2">
  <advance width="644"/>
  <unicode hex="005C"/>
  <outline>
    <contour>
      <point x="632" y="0" type="line"/>
      <point x="243" y="1500" type="line"/>
      <point x="12" y="1500" type="line"/>
      <point x="401" y="0" type="line"/>
    </contour>
  </outline>
</glyph>
<glyph name="bracketright" format="2">
  <advance width="850"/>
  <unicode hex="005D"/>
  <outline>
    <contour>
      <point x="684" y="-420" type="line"/>
      <point x="684" y="1600" type="line"/>
      <point x="286" y="1600" type="line"/>
      <point x="286" y="-420" type="line"/>
    </contour>
    <contour>
      <point x="684" y="-420" type="line"/>
      <point x="684" y="-224" type="line"/>
      <point x="46" y="-224" type="line"/>
      <point x="46" y="-420" type="line"/>
    </contour>
    <contour>
      <point x="684" y="1404" type="line"/>
      <point x="684" y="1600" type="line"/>
      <point x="46" y="1600" type="line"/>
      <point x="46" y="1404" type="line"/>
    </contour>
  </outline>
</glyph>
<glyph name="underscore" format="2">
  <advance width="1460"/>
  <unicode hex="005F"/>
  <outline>
    <contour>
      <point x="142" y="-339" type="line"/>
      <point x="1318" y="-339" type="line"/>
      <point x="1318" y="-60" type="line"/>
      <point x="142" y="-60" type="line"/>
    </contour>
  </outline>
</glyph>
<glyph name="grave" format="2">
  <advance width="722"/>
  <unicode hex="0060"/>
  <anchor x="477" y="1140" name="_top"/>
  <outline>
    <contour>
      <point x="392" y="1250" type="line"/>
      <point x="630" y="1250" type="line"/>
      <point x="500" y="1550" type="line"/>
      <point x="92" y="1550" type="line"/>
    </contour>
  </outline>
</glyph>
<glyph name="b" format="2">
  <advance width="1434"/>
  <unicode hex="0062"/>
  <anchor x="708" y="0" name="bottom"/>
  <anchor x="708" y="1500" name="top"/>
  <outline>
    <contour>
      <point x="879" y="-22" type="curve" smooth="yes"/>
      <point x="1172" y="-22"/>
      <point x="1368" y="180"/>
      <point x="1368" y="570" type="curve" smooth="yes"/>
      <point x="1368" y="960"/>
      <point x="1172" y="1162"/>
      <point x="883" y="1162" type="curve" smooth="yes"/>
      <point x="558" y="1162"/>
      <point x="465" y="920"/>
      <point x="465" y="570" type="curve"/>
      <point x="443" y="570" type="line"/>
      <point x="441" y="230"/>
      <point x="558" y="-22"/>
    </contour>
    <contour>
      <point x="728" y="198" type="curve" smooth="yes"/>
      <point x="594" y="198"/>
      <point x="520" y="326"/>
      <point x="520" y="570" type="curve" smooth="yes"/>
      <point x="520" y="814"/>
      <point x="594" y="942"/>
      <point x="728" y="942" type="curve" smooth="yes"/>
      <point x="860" y="942"/>
      <point x="934" y="814"/>
      <point x="934" y="570" type="curve" smooth="yes"/>
      <point x="934" y="326"/>
      <point x="860" y="198"/>
    </contour>
    <contour>
      <point x="140" y="0" type="line"/>
      <point x="510" y="0" type="line"/>
      <point x="510" y="262" type="line"/>
      <point x="479" y="581" type="line"/>
      <point x="540" y="838" type="line"/>
      <point x="540" y="1500" type="line"/>
      <point x="-4" y="1500" type="line"/>
      <point x="-4" y="1310" type="line"/>
      <point x="140" y="1310" type="line"/>
    </contour>
  </outline>
</glyph>
<glyph name="d" format="2">
  <advance width="1475"/>
  <unicode hex="0064"/>
  <anchor x="742" y="0" name="bottom"/>
  <anchor x="742" y="570" name="center"/>
  <anchor x="742" y="1500" name="top"/>
  <anchor x="1294" y="1500" name="topright"/>
  <outline>
    <contour>
      <point x="555" y="-22" type="curve" smooth="yes"/>
      <point x="876" y="-22"/>
      <point x="993" y="230"/>
      <point x="991" y="570" type="curve"/>
      <point x="969" y="570" type="line"/>
      <point x="969" y="920"/>
      <point x="876" y="1162"/>
      <point x="551" y="1162" type="curve" smooth="yes"/>
      <point x="262" y="1162"/>
      <point x="66" y="960"/>
      <point x="66" y="570" type="curve" smooth="yes"/>
      <point x="66" y="180"/>
      <point x="262" y="-22"/>
    </contour>
    <contour>
      <point x="706" y="198" type="curve" smooth="yes"/>
      <point x="574" y="198"/>
      <point x="500" y="326"/>
      <point x="500" y="570" type="curve" smooth="yes"/>
      <point x="500" y="814"/>
      <point x="574" y="942"/>
      <point x="706" y="942" type="curve" smooth="yes"/>
      <point x="840" y="942"/>
      <point x="914" y="814"/>
      <point x="914" y="570" type="curve" smooth="yes"/>
      <point x="914" y="326"/>
      <point x="840" y="198"/>
    </contour>
    <contour>
      <point x="924" y="0" type="line"/>
      <point x="1441" y="0" type="line"/>
      <point x="1441" y="192" type="line"/>
      <point x="1294" y="192" type="line"/>
      <point x="1294" y="1500" type="line"/>
      <point x="740" y="1500" type="line"/>
      <point x="740" y="1308" type="line"/>
      <point x="894" y="1308" type="line"/>
      <point x="894" y="838" type="line"/>
      <point x="956" y="581" type="line"/>
      <point x="924" y="280" type="line"/>
    </contour>
  </outline>
</glyph>
<glyph name="f" format="2">
  <advance width="993"/>
  <unicode hex="0066"/>
  <anchor x="450" y="0" name="bottom"/>
  <anchor x="450" y="1500" name="top"/>
  <outline>
    <contour>
      <point x="66" y="0" type="line"/>
      <point x="898" y="0" type="line"/>
      <point x="898" y="192" type="line"/>
      <point x="626" y="192" type="line"/>
      <point x="626" y="1295" type="line"/>
      <point x="226" y="1216" type="line"/>
      <point x="226" y="192" type="line"/>
      <point x="66" y="192" type="line"/>
    </contour>
    <contour>
      <point x="-2" y="932" type="line"/>
      <point x="942" y="932" type="line"/>
      <point x="942" y="1140" type="line"/>
      <point x="-2" y="1140" type="line"/>
    </contour>
    <contour>
      <point x="226" y="1216" type="curve"/>
      <point x="626" y="1295" type="line"/>
      <point x="626" y="1436"/>
      <point x="687" y="1496"/>
      <point x="791" y="1496" type="curve"/>
      <point x="755" y="1644" type="line"/>
      <point x="474" y="1644"/>
      <point x="226" y="1527"/>
    </contour>
    <contour>
      <point x="937" y="1224" type="curve" smooth="yes"/>
      <point x="1066" y="1224"/>
      <point x="1145" y="1296"/>
      <point x="1145" y="1408" type="curve" smooth="yes"/>
      <point x="1145" y="1549"/>
      <point x="982" y="1644"/>
      <point x="755" y="1644" type="curve"/>
      <point x="791" y="1496" type="line"/>
      <point x="862" y="1496"/>
      <point x="912" y="1467"/>
      <point x="942" y="1433" type="curve"/>
      <point x="927" y="1502" type="line"/>
      <point x="826" y="1502"/>
      <point x="748" y="1460"/>
      <point x="748" y="1366" type="curve" smooth="yes"/>
      <point x="748" y="1271"/>
      <point x="831" y="1224"/>
    </contour>
  </outline>
</glyph>
<glyph name="h" format="2">
  <advance width="1442"/>
  <unicode hex="0068"/>
  <anchor x="724" y="0" name="bottom"/>
  <anchor x="724" y="750" name="center"/>
  <anchor x="390" y="1500" name="top"/>
  <outline>
    <contour>
      <point x="34" y="0" type="line"/>
      <point x="700" y="0" type="line"/>
      <point x="700" y="192" type="line"/>
      <point x="604" y="192" type="line"/>
      <point x="604" y="1500" type="line"/>
      <point x="50" y="1500" type="line"/>
      <point x="50" y="1308" type="line"/>
      <point x="204" y="1308" type="line"/>
      <point x="204" y="192" type="line"/>
      <point x="34" y="192" type="line"/>
    </contour>
    <contour>
      <point x="780" y="0" type="line"/>
      <point x="1398" y="0" type="line"/>
      <point x="1398" y="192" type="line"/>
      <point x="1276" y="192" type="line"/>
      <point x="1276" y="789" type="line" smooth="yes"/>
      <point x="1276" y="1048"/>
      <point x="1130" y="1162"/>
      <point x="924" y="1162" type="curve" smooth="yes"/>
      <point x="644" y="1162"/>
      <point x="575" y="997"/>
      <point x="575" y="741" type="curve"/>
      <point x="604" y="743" type="line"/>
      <point x="604" y="874"/>
      <point x="673" y="920"/>
      <point x="752" y="920" type="curve" smooth="yes"/>
      <point x="827" y="920"/>
      <point x="876" y="876"/>
      <point x="876" y="789" type="curve" smooth="yes"/>
      <point x="876" y="192" type="line"/>
      <point x="780" y="192" type="line"/>
    </contour>
  </outline>
</glyph>
<glyph name="k" format="2">
  <advance width="1478"/>
  <unicode hex="006B"/>
  <anchor x="740" y="0" name="bottom"/>
  <anchor x="740" y="1500" name="top"/>
  <outline>
    <contour>
      <point x="34" y="0" type="line"/>
      <point x="713" y="0" type="line"/>
      <point x="713" y="192" type="line"/>
      <point x="604" y="192" type="line"/>
      <point x="605" y="1500" type="line"/>
      <point x="51" y="1500" type="line"/>
      <point x="51" y="1308" type="line"/>
      <point x="205" y="1308" type="line"/>
      <point x="204" y="192" type="line"/>
      <point x="35" y="192" type="line"/>
    </contour>
    <contour>
      <point x="788" y="0" type="line"/>
      <point x="1438" y="0" type="line"/>
      <point x="1438" y="192" type="line"/>
      <point x="1324" y="192" type="line"/>
      <point x="895" y="799" type="line"/>
      <point x="658" y="563" type="line"/>
      <point x="904" y="192" type="line"/>
      <point x="788" y="192" type="line"/>
    </contour>
    <contour>
      <point x="577" y="360" type="line"/>
      <point x="1234" y="948" type="line"/>
      <point x="1370" y="948" type="line"/>
      <point x="1370" y="1140" type="line"/>
      <point x="741" y="1140" type="line"/>
      <point x="741" y="948" type="line"/>
      <point x="935" y="948" type="line"/>
      <point x="447" y="508" type="line"/>
    </contour>
  </outline>
</glyph>
<glyph name="l" format="2">
  <advance width="779"/>
  <unicode hex="006C"/>
  <anchor x="393" y="0" name="bottom"/>
  <anchor x="404" y="1140" name="center"/>
  <anchor x="384" y="1500" name="top"/>
  <anchor x="598" y="1500" name="topright"/>
  <outline>
    <contour>
      <point x="34" y="0" type="line"/>
      <point x="745" y="0" type="line"/>
      <point x="745" y="192" type="line"/>
      <point x="598" y="192" type="line"/>
      <point x="598" y="1500" type="line"/>
      <point x="40" y="1500" type="line"/>
      <point x="40" y="1308" type="line"/>
      <point x="194" y="1308" type="line"/>
      <point x="194" y="192" type="line"/>
      <point x="34" y="192" type="line"/>
    </contour>
  </outline>
</glyph>
<glyph name="m" format="2">
  <advance width="2070"/>
  <unicode hex="006D"/>
  <anchor x="1050" y="0" name="bottom"/>
  <anchor x="1050" y="1140" name="top"/>
  <outline>
    <contour>
      <point x="38" y="0" type="line"/>
      <point x="692" y="0" type="line"/>
      <point x="692" y="192" type="line"/>
      <point x="596" y="192" type="line"/>
      <point x="596" y="770" type="line"/>
      <point x="546" y="762" type="line"/>
      <point x="546" y="1140" type="line"/>
      <point x="54" y="1140" type="line"/>
      <point x="54" y="948" type="line"/>
      <point x="208" y="948" type="line"/>
      <point x="208" y="192" type="line"/>
      <point x="38" y="192" type="line"/>
    </contour>
    <contour>
      <point x="766" y="0" type="line"/>
      <point x="1346" y="0" type="line"/>
      <point x="1346" y="192" type="line"/>
      <point x="1250" y="192" type="line"/>
      <point x="1250" y="790" type="line" smooth="yes"/>
      <point x="1250" y="1051"/>
      <point x="1103" y="1166"/>
      <point x="895" y="1166" type="curve" smooth="yes"/>
      <point x="606" y="1166"/>
      <point x="533" y="999"/>
      <point x="533" y="741" type="curve"/>
      <point x="596" y="743" type="line"/>
      <point x="596" y="876"/>
      <point x="663" y="922"/>
      <point x="741" y="922" type="curve" smooth="yes"/>
      <point x="814" y="922"/>
      <point x="862" y="877"/>
      <point x="862" y="789" type="curve" smooth="yes"/>
      <point x="862" y="192" type="line"/>
      <point x="766" y="192" type="line"/>
    </contour>
    <contour>
      <point x="1420" y="0" type="line"/>
      <point x="2026" y="0" type="line"/>
      <point x="2026" y="192" type="line"/>
      <point x="1904" y="192" type="line"/>
      <point x="1904" y="780" type="line" smooth="yes"/>
      <point x="1904" y="1048"/>
      <point x="1768" y="1166"/>
      <point x="1565" y="1166" type="curve" smooth="yes"/>
      <point x="1280" y="1166"/>
      <point x="1209" y="999"/>
      <point x="1209" y="741" type="curve"/>
      <point x="1250" y="743" type="line"/>
      <point x="1250" y="876"/>
      <point x="1317" y="922"/>
      <point x="1395" y="922" type="curve" smooth="yes"/>
      <point x="1468" y="922"/>
      <point x="1516" y="877"/>
      <point x="1516" y="789" type="curve" smooth="yes"/>
      <point x="1516" y="192" type="line"/>
      <point x="1420" y="192" type="line"/>
    </contour>
  </outline>
</glyph>
<glyph name="n" format="2">
  <advance width="1446"/>
  <unicode hex="006E"/>
  <anchor x="720" y="0" name="bottom"/>
  <anchor x="716" y="1140" name="top"/>
  <outline>
    <contour>
      <point x="784" y="0" type="line"/>
      <point x="1402" y="0" type="line"/>
      <point x="1402" y="192" type="line"/>
      <point x="1280" y="192" type="line"/>
      <point x="1280" y="793" type="line" smooth="yes"/>
      <point x="1280" y="1052"/>
      <point x="1123" y="1166"/>
      <point x="914" y="1166" type="curve" smooth="yes"/>
      <point x="623" y="1166"/>
      <point x="545" y="1001"/>
      <point x="545" y="745" type="curve"/>
      <point x="608" y="747" type="line"/>
      <point x="608" y="878"/>
      <point x="677" y="924"/>
      <point x="756" y="924" type="curve" smooth="yes"/>
      <point x="831" y="924"/>
      <point x="880" y="880"/>
      <point x="880" y="793" type="curve" smooth="yes"/>
      <point x="880" y="192" type="line"/>
      <point x="784" y="192" type="line"/>
    </contour>
    <contour>
      <point x="38" y="0" type="line"/>
      <point x="704" y="0" type="line"/>
      <point x="704" y="192" type="line"/>
      <point x="608" y="192" type="line"/>
      <point x="608" y="804" type="line"/>
      <point x="558" y="796" type="line"/>
      <point x="558" y="1140" type="line"/>
      <point x="54" y="1140" type="line"/>
      <point x="54" y="948" type="line"/>
      <point x="208" y="948" type="line"/>
      <point x="208" y="192" type="line"/>
      <point x="38" y="192" type="line"/>
    </contour>
  </outline>
</glyph>
<glyph name="p" format="2">
  <advance width="1480"/>
  <unicode hex="0070"/>
  <anchor x="735" y="0" name="bottom"/>
  <anchor x="735" y="1140" name="top"/>
  <outline>
    <contour>
      <point x="929" y="-22" type="curve" smooth="yes"/>
      <point x="1218" y="-22"/>
      <point x="1414" y="180"/>
      <point x="1414" y="570" type="curve" smooth="yes"/>
      <point x="1414" y="960"/>
      <point x="1218" y="1162"/>
      <point x="925" y="1162" type="curve" smooth="yes"/>
      <point x="604" y="1162"/>
      <point x="487" y="910"/>
      <point x="489" y="570" type="curve"/>
      <point x="511" y="570" type="line"/>
      <point x="511" y="220"/>
      <point x="604" y="-22"/>
    </contour>
    <contour>
      <point x="774" y="198" type="curve" smooth="yes"/>
      <point x="640" y="198"/>
      <point x="566" y="326"/>
      <point x="566" y="570" type="curve" smooth="yes"/>
      <point x="566" y="814"/>
      <point x="640" y="942"/>
      <point x="774" y="942" type="curve" smooth="yes"/>
      <point x="906" y="942"/>
      <point x="980" y="814"/>
      <point x="980" y="570" type="curve" smooth="yes"/>
      <point x="980" y="326"/>
      <point x="906" y="198"/>
    </contour>
    <contour>
      <point x="26" y="-420" type="line"/>
      <point x="874" y="-420" type="line"/>
      <point x="874" y="-228" type="line"/>
      <point x="586" y="-228" type="line"/>
      <point x="586" y="334" type="line"/>
      <point x="531" y="581" type="line"/>
      <point x="556" y="746" type="line"/>
      <point x="556" y="1140" type="line"/>
      <point x="32" y="1140" type="line"/>
      <point x="32" y="948" type="line"/>
      <point x="186" y="948" type="line"/>
      <point x="186" y="-228" type="line"/>
      <point x="26" y="-228" type="line"/>
    </contour>
  </outline>
</glyph>
<glyph name="q" format="2">
  <advance width="1426"/>
  <unicode hex="0071"/>
  <anchor x="708" y="0" name="bottom"/>
  <anchor x="708" y="1140" name="top"/>
  <outline>
    <contour>
      <point x="551" y="-22" type="curve" smooth="yes"/>
      <point x="876" y="-22"/>
      <point x="969" y="220"/>
      <point x="969" y="570" type="curve"/>
      <point x="991" y="570" type="line"/>
      <point x="993" y="910"/>
      <point x="876" y="1162"/>
      <point x="555" y="1162" type="curve" smooth="yes"/>
      <point x="262" y="1162"/>
      <point x="66" y="960"/>
      <point x="66" y="570" type="curve" smooth="yes"/>
      <point x="66" y="180"/>
      <point x="262" y="-22"/>
    </contour>
    <contour>
      <point x="706" y="198" type="curve" smooth="yes"/>
      <point x="574" y="198"/>
      <point x="500" y="326"/>
      <point x="500" y="570" type="curve" smooth="yes"/>
      <point x="500" y="814"/>
      <point x="574" y="942"/>
      <point x="706" y="942" type="curve" smooth="yes"/>
      <point x="840" y="942"/>
      <point x="914" y="814"/>
      <point x="914" y="570" type="curve" smooth="yes"/>
      <point x="914" y="326"/>
      <point x="840" y="198"/>
    </contour>
    <contour>
      <point x="606" y="-420" type="line"/>
      <point x="1438" y="-420" type="line"/>
      <point x="1438" y="-224" type="line"/>
      <point x="1294" y="-224" type="line"/>
      <point x="1294" y="1140" type="line"/>
      <point x="924" y="1140" type="line"/>
      <point x="924" y="744" type="line"/>
      <point x="941" y="581" type="line"/>
      <point x="894" y="334" type="line"/>
      <point x="894" y="-224" type="line"/>
      <point x="606" y="-224" type="line"/>
    </contour>
  </outline>
</glyph>
<glyph name="t" format="2">
  <advance width="1108"/>
  <unicode hex="0074"/>
  <anchor x="566" y="0" name="bottom"/>
  <anchor x="548" y="570" name="center"/>
  <anchor x="548" y="1140" name="top"/>
  <anchor x="622" y="1726" name="topright"/>
  <outline>
    <contour>
      <point x="611" y="-24" type="curve" smooth="yes"/>
      <point x="872" y="-24"/>
      <point x="1000" y="128"/>
      <point x="1000" y="359" type="curve" smooth="yes"/>
      <point x="1000" y="720" type="line"/>
      <point x="796" y="720" type="line"/>
      <point x="796" y="371" type="line" smooth="yes"/>
      <point x="796" y="303"/>
      <point x="770" y="264"/>
      <point x="709" y="264" type="curve" smooth="yes"/>
      <point x="649" y="264"/>
      <point x="622" y="305"/>
      <point x="622" y="371" type="curve" smooth="yes"/>
      <point x="622" y="1460" type="line"/>
      <point x="398" y="1460" type="line"/>
      <point x="398" y="1432" type="line" smooth="yes"/>
      <point x="398" y="1216"/>
      <point x="319" y="1122"/>
      <point x="54" y="1122" type="curve" smooth="yes"/>
      <point x="-6" y="1122" type="line"/>
      <point x="-6" y="932" type="line"/>
      <point x="256" y="932" type="line"/>
      <point x="224" y="379" type="line" smooth="yes"/>
      <point x="209" y="128"/>
      <point x="350" y="-24"/>
    </contour>
    <contour>
      <point x="622" y="932" type="line"/>
      <point x="1032" y="932" type="line"/>
      <point x="1032" y="1140" type="line"/>
      <point x="622" y="1140" type="line"/>
    </contour>
  </outline>
</glyph>
<glyph name="v" format="2">
  <advance width="1315"/>
  <unicode hex="0076"/>
  <anchor x="656" y="0" name="bottom"/>
  <anchor x="656" y="1140" name="top"/>
  <outline>
    <contour>
      <point x="520" y="0" type="line"/>
      <point x="795" y="0" type="line"/>
      <point x="1186" y="948" type="line"/>
      <point x="1293" y="948" type="line"/>
      <point x="1293" y="1140" type="line"/>
      <point x="800" y="1140" type="line"/>
      <point x="800" y="948" type="line"/>
      <point x="963" y="948" type="line"/>
      <point x="693" y="272" type="line"/>
      <point x="800" y="270" type="line"/>
      <point x="552" y="948" type="line"/>
      <point x="720" y="948" type="line"/>
      <point x="720" y="1140" type="line"/>
      <point x="22" y="1140" type="line"/>
      <point x="22" y="948" type="line"/>
      <point x="129" y="948" type="line"/>
    </contour>
  </outline>
</glyph>
<glyph name="x" format="2">
  <advance width="1374"/>
  <unicode hex="0078"/>
  <anchor x="688" y="0" name="bottom"/>
  <anchor x="688" y="1140" name="top"/>
  <outline>
    <contour>
      <point x="42" y="0" type="line"/>
      <point x="570" y="0" type="line"/>
      <point x="570" y="192" type="line"/>
      <point x="430" y="192" type="line"/>
      <point x="660" y="476" type="line"/>
      <point x="574" y="476" type="line"/>
      <point x="782" y="192" type="line"/>
      <point x="633" y="192" type="line"/>
      <point x="633" y="0" type="line"/>
      <point x="1334" y="0" type="line"/>
      <point x="1334" y="192" type="line"/>
      <point x="1235" y="192" type="line"/>
      <point x="879" y="654" type="line"/>
      <point x="528" y="654" type="line"/>
      <point x="147" y="192" type="line"/>
      <point x="42" y="192" type="line"/>
    </contour>
    <contour>
      <point x="495" y="500" type="line"/>
      <point x="838" y="500" type="line"/>
      <point x="1208" y="948" type="line"/>
      <point x="1310" y="948" type="line"/>
      <point x="1310" y="1140" type="line"/>
      <point x="798" y="1140" type="line"/>
      <point x="798" y="948" type="line"/>
      <point x="925" y="948" type="line"/>
      <point x="706" y="678" type="line"/>
      <point x="796" y="678" type="line"/>
      <point x="599" y="948" type="line"/>
      <point x="736" y="948" type="line"/>
      <point x="736" y="1140" type="line"/>
      <point x="55" y="1140" type="line"/>
      <point x="55" y="948" type="line"/>
      <point x="150" y="948" type="line"/>
    </contour>
  </outline>
</glyph>
<glyph name="braceright" format="2">
  <advance width="922"/>
  <unicode hex="007D"/>
  <outline>
    <contour>
      <point x="904" y="688" type="line"/>
      <point x="726" y="688"/>
      <point x="677" y="760"/>
      <point x="680" y="877" type="curve" smooth="yes"/>
      <point x="686" y="1114" type="line" smooth="yes"/>
      <point x="695" y="1459"/>
      <point x="526" y="1600"/>
      <point x="206" y="1600" type="curve" smooth="yes"/>
      <point x="46" y="1600" type="line"/>
      <point x="46" y="1408" type="line"/>
      <point x="201" y="1408"/>
      <point x="276" y="1334"/>
      <point x="276" y="1168" type="curve" smooth="yes"/>
      <point x="276" y="1017" type="line" smooth="yes"/>
      <point x="276" y="706"/>
      <point x="420" y="613"/>
      <point x="682" y="590" type="curve"/>
      <point x="904" y="590" type="line"/>
    </contour>
    <contour>
      <point x="206" y="-420" type="line" smooth="yes"/>
      <point x="526" y="-420"/>
      <point x="695" y="-279"/>
      <point x="686" y="66" type="curve" smooth="yes"/>
      <point x="680" y="303" type="line" smooth="yes"/>
      <point x="677" y="420"/>
      <point x="726" y="492"/>
      <point x="904" y="492" type="curve"/>
      <point x="904" y="590" type="line"/>
      <point x="682" y="590" type="line"/>
      <point x="420" y="567"/>
      <point x="276" y="474"/>
      <point x="276" y="163" type="curve" smooth="yes"/>
      <point x="276" y="12" type="line" smooth="yes"/>
      <point x="276" y="-154"/>
      <point x="201" y="-228"/>
      <point x="46" y="-228" type="curve"/>
      <point x="46" y="-420" type="line"/>
    </contour>
  </outline>
</glyph>
<glyph name="exclamdown" format="2">
  <advance width="624"/>
  <unicode hex="00A1"/>
  <outline>
    <contour>
      <point x="401" y="588" type="curve"/>
      <point x="223" y="588" type="line"/>
      <point x="113" y="222"/>
      <point x="54" y="11"/>
      <point x="54" y="-107" type="curve" smooth="yes"/>
      <point x="54" y="-280"/>
      <point x="157" y="-382"/>
      <point x="312" y="-382" type="curve" smooth="yes"/>
      <point x="467" y="-382"/>
      <point x="570" y="-280"/>
      <point x="570" y="-107" type="curve" smooth="yes"/>
      <point x="570" y="11"/>
      <point x="511" y="222"/>
    </contour>
    <contour>
      <point x="312" y="1162" type="curve" smooth="yes"/>
      <point x="156" y="1162"/>
      <point x="55" y="1061"/>
      <point x="55" y="916" type="curve" smooth="yes"/>
      <point x="55" y="771"/>
      <point x="156" y="670"/>
      <point x="312" y="670" type="curve" smooth="yes"/>
      <point x="468" y="670"/>
      <point x="569" y="771"/>
      <point x="569" y="916" type="curve" smooth="yes"/>
      <point x="569" y="1061"/>
      <point x="468" y="1162"/>
    </contour>
  </outline>
</glyph>
<glyph name="yen" format="2">
  <advance width="1704"/>
  <unicode hex="00A5"/>
  <anchor x="852" y="0" name="bottom"/>
  <anchor x="942" y="1500" name="top"/>
  <anchor x="41" y="1500" name="topleft"/>
  <outline>
    <contour>
      <point x="191" y="406" type="line"/>
      <point x="1471" y="406" type="line"/>
      <point x="1471" y="614" type="line"/>
      <point x="191" y="614" type="line"/>
    </contour>
    <contour>
      <point x="191" y="744" type="line"/>
      <point x="563" y="744" type="line"/>
      <point x="431" y="952" type="line"/>
      <point x="191" y="952" type="line"/>
    </contour>
    <contour>
      <point x="1101" y="744" type="line"/>
      <point x="1471" y="744" type="line"/>
      <point x="1471" y="952" type="line"/>
      <point x="1233" y="952" type="line"/>
    </contour>
    <contour>
      <point x="657" y="548" type="line"/>
      <point x="1047" y="548" type="line"/>
      <point x="1523" y="1304" type="line"/>
      <point x="1658" y="1304" type="line"/>
      <point x="1658" y="1500" type="line"/>
      <point x="1064" y="1500" type="line"/>
      <point x="1064" y="1304" type="line"/>
      <point x="1261" y="1304" type="line"/>
      <point x="931" y="771" type="line"/>
      <point x="998" y="771" type="line"/>
      <point x="671" y="1304" type="line"/>
      <point x="868" y="1304" type="line"/>
      <point x="868" y="1500" type="line"/>
      <point x="46" y="1500" type="line"/>
      <point x="46" y="1304" type="line"/>
      <point x="181" y="1304" type="line"/>
    </contour>
    <contour>
      <point x="354" y="0" type="line"/>
      <point x="1350" y="0" type="line"/>
      <point x="1350" y="196" type="line"/>
      <point x="1062" y="196" type="line"/>
      <point x="1062" y="792" type="line"/>
      <point x="642" y="792" type="line"/>
      <point x="642" y="196" type="line"/>
      <point x="354" y="196" type="line"/>
    </contour>
  </outline>
</glyph>
<glyph name="dieresis" format="2">
  <advance width="1020"/>
  <unicode hex="00A8"/>
  <anchor x="510" y="1140" name="_top"/>
  <anchor x="510" y="1574" name="top"/>
  <outline>
    <contour>
      <point x="739" y="1226" type="curve" smooth="yes"/>
      <point x="852" y="1226"/>
      <point x="928" y="1300"/>
      <point x="928" y="1422" type="curve" smooth="yes"/>
      <point x="928" y="1543"/>
      <point x="852" y="1617"/>
      <point x="739" y="1617" type="curve" smooth="yes"/>
      <point x="626" y="1617"/>
      <point x="550" y="1543"/>
      <point x="550" y="1422" type="curve" smooth="yes"/>
      <point x="550" y="1300"/>
      <point x="626" y="1226"/>
    </contour>
    <contour>
      <point x="281" y="1226" type="curve" smooth="yes"/>
      <point x="394" y="1226"/>
      <point x="470" y="1300"/>
      <point x="470" y="1422" type="curve" smooth="yes"/>
      <point x="470" y="1543"/>
      <point x="394" y="1617"/>
      <point x="281" y="1617" type="curve" smooth="yes"/>
      <point x="168" y="1617"/>
      <point x="92" y="1543"/>
      <point x="92" y="1422" type="curve" smooth="yes"/>
      <point x="92" y="1300"/>
      <point x="168" y="1226"/>
    </contour>
  </outline>
</glyph>
<glyph name="ordfeminine" format="2">
  <advance width="1075"/>
  <unicode hex="00AA"/>
  <outline>
    <contour>
      <point x="267" y="1194" type="curve" smooth="yes"/>
      <point x="345" y="1194"/>
      <point x="391" y="1234"/>
      <point x="391" y="1289" type="curve" smooth="yes"/>
      <point x="391" y="1354"/>
      <point x="341" y="1379"/>
      <point x="260" y="1382" type="curve"/>
      <point x="255" y="1290" type="line"/>
      <point x="274" y="1350"/>
      <point x="337" y="1388"/>
      <point x="412" y="1388" type="curve" smooth="yes"/>
      <point x="475" y="1388"/>
      <point x="520" y="1355"/>
      <point x="520" y="1283" type="curve"/>
      <point x="785" y="1223" type="line"/>
      <point x="787" y="1414"/>
      <point x="676" y="1512"/>
      <point x="462" y="1512" type="curve" smooth="yes"/>
      <point x="283" y="1512"/>
      <point x="115" y="1438"/>
      <point x="115" y="1309" type="curve" smooth="yes"/>
      <point x="115" y="1231"/>
      <point x="187" y="1194"/>
    </contour>
    <contour>
      <point x="795" y="678" type="curve" smooth="yes"/>
      <point x="951" y="678"/>
      <point x="1033" y="775"/>
      <point x="1033" y="930" type="curve" smooth="yes"/>
      <point x="1033" y="1144" type="line"/>
      <point x="883" y="1144" type="line"/>
      <point x="883" y="919" type="line" smooth="yes"/>
      <point x="883" y="883"/>
      <point x="865" y="860"/>
      <point x="833" y="860" type="curve" smooth="yes"/>
      <point x="803" y="860"/>
      <point x="785" y="884"/>
      <point x="785" y="919" type="curve" smooth="yes"/>
      <point x="785" y="1223" type="line"/>
      <point x="520" y="1283" type="line"/>
      <point x="520" y="1210" type="line"/>
      <point x="511" y="1137" type="line"/>
      <point x="517" y="1137" type="line"/>
      <point x="517" y="946" type="line"/>
      <point x="551" y="946" type="line"/>
      <point x="551" y="938" type="line" smooth="yes"/>
      <point x="551" y="773"/>
      <point x="638" y="678"/>
    </contour>
    <contour>
      <point x="315" y="678" type="curve" smooth="yes"/>
      <point x="462" y="678"/>
      <point x="576" y="769"/>
      <point x="577" y="987" type="curve"/>
      <point x="517" y="990" type="line"/>
      <point x="517" y="909"/>
      <point x="474" y="880"/>
      <point x="430" y="880" type="curve" smooth="yes"/>
      <point x="390" y="880"/>
      <point x="355" y="905"/>
      <point x="355" y="953" type="curve" smooth="yes"/>
      <point x="355" y="1002"/>
      <point x="389" y="1031"/>
      <point x="435" y="1059" type="curve" smooth="yes"/>
      <point x="453" y="1070" type="line" smooth="yes"/>
      <point x="481" y="1087"/>
      <point x="506" y="1106"/>
      <point x="517" y="1137" type="curve"/>
      <point x="524" y="1137" type="line"/>
      <point x="520" y="1284" type="line"/>
      <point x="520" y="1222"/>
      <point x="487" y="1193"/>
      <point x="420" y="1174" type="curve" smooth="yes"/>
      <point x="289" y="1136" type="line" smooth="yes"/>
      <point x="170" y="1101"/>
      <point x="60" y="1041"/>
      <point x="60" y="894" type="curve" smooth="yes"/>
      <point x="60" y="767"/>
      <point x="160" y="678"/>
    </contour>
  </outline>
</glyph>
<glyph name="guillemetleft" format="2">
  <advance width="988"/>
  <unicode hex="00AB"/>
  <outline>
    <contour>
      <point x="542" y="185" type="line"/>
      <point x="357" y="605" type="line"/>
      <point x="542" y="1025" type="line"/>
      <point x="344" y="1025" type="line"/>
      <point x="16" y="605" type="line"/>
      <point x="344" y="185" type="line"/>
    </contour>
    <contour>
      <point x="952" y="185" type="line"/>
      <point x="817" y="605" type="line"/>
      <point x="952" y="1025" type="line"/>
      <point x="754" y="1025" type="line"/>
      <point x="476" y="605" type="line"/>
      <point x="754" y="185" type="line"/>
    </contour>
  </outline>
</glyph>
<glyph name="softhyphen" format="2">
  <advance width="996"/>
  <unicode hex="00AD"/>
  <outline>
    <contour>
      <point x="142" y="444" type="line"/>
      <point x="854" y="444" type="line"/>
      <point x="854" y="722" type="line"/>
      <point x="142" y="722" type="line"/>
    </contour>
  </outline>
</glyph>
<glyph name="macron" format="2">
  <advance width="924"/>
  <unicode hex="00AF"/>
  <anchor x="462" y="1140" name="_top"/>
  <outline>
    <contour>
      <point x="92" y="1270" type="line"/>
      <point x="832" y="1270" type="line"/>
      <point x="832" y="1470" type="line"/>
      <point x="92" y="1470" type="line"/>
    </contour>
  </outline>
</glyph>
<glyph name="plusminus" format="2">
  <advance width="1266"/>
  <unicode hex="00B1"/>
  <outline>
    <contour>
      <point x="142" y="669" type="line"/>
      <point x="1124" y="669" type="line"/>
      <point x="1124" y="939" type="line"/>
      <point x="142" y="939" type="line"/>
    </contour>
    <contour>
      <point x="142" y="0" type="line"/>
      <point x="1124" y="0" type="line"/>
      <point x="1124" y="270" type="line"/>
      <point x="142" y="270" type="line"/>
    </contour>
    <contour>
      <point x="490" y="360" type="line"/>
      <point x="776" y="360" type="line"/>
      <point x="776" y="1248" type="line"/>
      <point x="490" y="1248" type="line"/>
    </contour>
  </outline>
</glyph>
<glyph name="twosuperior" format="2">
  <advance width="822"/>
  <unicode hex="00B2"/>
  <outline>
    <contour>
      <point x="48" y="735" type="curve" smooth="yes"/>
      <point x="48" y="690" type="line"/>
      <point x="208" y="890" type="line"/>
      <point x="254" y="940"/>
      <point x="317" y="956"/>
      <point x="387" y="971" type="curve" smooth="yes"/>
      <point x="450" y="984" type="line" smooth="yes"/>
      <point x="635" y="1022"/>
      <point x="772" y="1094"/>
      <point x="772" y="1262" type="curve"/>
      <point x="519" y="1286" type="line"/>
      <point x="518" y="1215"/>
      <point x="449" y="1185"/>
      <point x="390" y="1162" type="curve" smooth="yes"/>
      <point x="324" y="1136" type="line" smooth="yes"/>
      <point x="148" y="1067"/>
      <point x="48" y="941"/>
    </contour>
    <contour>
      <point x="48" y="690" type="line"/>
      <point x="767" y="690" type="line"/>
      <point x="767" y="890" type="line"/>
      <point x="208" y="890" type="line"/>
      <point x="48" y="735" type="line"/>
    </contour>
    <contour>
      <point x="529" y="890" type="curve" smooth="yes"/>
      <point x="767" y="890" type="line"/>
      <point x="767" y="992" type="line"/>
      <point x="640" y="992" type="line"/>
      <point x="640" y="990" type="line" smooth="yes"/>
      <point x="640" y="925"/>
      <point x="622" y="890"/>
    </contour>
    <contour>
      <point x="213" y="1150" type="curve" smooth="yes"/>
      <point x="290" y="1147"/>
      <point x="338" y="1194"/>
      <point x="338" y="1256" type="curve" smooth="yes"/>
      <point x="338" y="1320"/>
      <point x="275" y="1353"/>
      <point x="189" y="1338" type="curve"/>
      <point x="202" y="1285" type="line"/>
      <point x="206" y="1347"/>
      <point x="283" y="1381"/>
      <point x="373" y="1381" type="curve" smooth="yes"/>
      <point x="458" y="1381"/>
      <point x="518" y="1352"/>
      <point x="519" y="1286" type="curve"/>
      <point x="772" y="1262" type="line"/>
      <point x="772" y="1434"/>
      <point x="613" y="1513"/>
      <point x="421" y="1513" type="curve" smooth="yes"/>
      <point x="218" y="1513"/>
      <point x="67" y="1424"/>
      <point x="67" y="1300" type="curve" smooth="yes"/>
      <point x="67" y="1193"/>
      <point x="142" y="1153"/>
    </contour>
  </outline>
</glyph>
<glyph name="threesuperior" format="2">
  <advance width="794"/>
  <unicode hex="00B3"/>
  <outline>
    <contour>
      <point x="403" y="677" type="curve" smooth="yes"/>
      <point x="641" y="677"/>
      <point x="752" y="801"/>
      <point x="752" y="938" type="curve" smooth="yes"/>
      <point x="752" y="1092"/>
      <point x="602" y="1185"/>
      <point x="278" y="1167" type="curve"/>
      <point x="278" y="1073" type="line"/>
      <point x="414" y="1071"/>
      <point x="493" y="1036"/>
      <point x="493" y="968" type="curve" smooth="yes"/>
      <point x="493" y="909"/>
      <point x="443" y="867"/>
      <point x="335" y="867" type="curve" smooth="yes"/>
      <point x="238" y="867"/>
      <point x="161" y="913"/>
      <point x="160" y="1016" type="curve"/>
      <point x="37" y="1016" type="line"/>
      <point x="20" y="797"/>
      <point x="156" y="677"/>
    </contour>
    <contour>
      <point x="278" y="1187" type="curve"/>
      <point x="278" y="1137" type="line"/>
      <point x="587" y="1129"/>
      <point x="732" y="1195"/>
      <point x="732" y="1312" type="curve" smooth="yes"/>
      <point x="732" y="1434"/>
      <point x="588" y="1513"/>
      <point x="398" y="1513" type="curve" smooth="yes"/>
      <point x="210" y="1513"/>
      <point x="51" y="1439"/>
      <point x="51" y="1330" type="curve" smooth="yes"/>
      <point x="51" y="1238"/>
      <point x="123" y="1204"/>
      <point x="194" y="1201" type="curve" smooth="yes"/>
      <point x="276" y="1198"/>
      <point x="322" y="1245"/>
      <point x="322" y="1293" type="curve" smooth="yes"/>
      <point x="322" y="1354"/>
      <point x="266" y="1375"/>
      <point x="181" y="1372" type="curve"/>
      <point x="186" y="1326" type="line"/>
      <point x="212" y="1363"/>
      <point x="267" y="1382"/>
      <point x="351" y="1382" type="curve" smooth="yes"/>
      <point x="436" y="1382"/>
      <point x="491" y="1349"/>
      <point x="491" y="1292" type="curve" smooth="yes"/>
      <point x="491" y="1215"/>
      <point x="410" y="1187"/>
    </contour>
  </outline>
</glyph>
<glyph name="ordmasculine" format="2">
  <advance width="1034"/>
  <unicode hex="00BA"/>
  <outline>
    <contour>
      <point x="517" y="678" type="curve" smooth="yes"/>
      <point x="780" y="678"/>
      <point x="973" y="832"/>
      <point x="973" y="1094" type="curve" smooth="yes"/>
      <point x="973" y="1357"/>
      <point x="779" y="1512"/>
      <point x="517" y="1512" type="curve" smooth="yes"/>
      <point x="255" y="1512"/>
      <point x="61" y="1357"/>
      <point x="61" y="1095" type="curve" smooth="yes"/>
      <point x="61" y="832"/>
      <point x="254" y="678"/>
    </contour>
    <contour>
      <point x="517" y="802" type="curve" smooth="yes"/>
      <point x="432" y="802"/>
      <point x="387" y="908"/>
      <point x="387" y="1095" type="curve" smooth="yes"/>
      <point x="387" y="1277"/>
      <point x="432" y="1388"/>
      <point x="517" y="1388" type="curve" smooth="yes"/>
      <point x="602" y="1388"/>
      <point x="647" y="1281"/>
      <point x="647" y="1106" type="curve" smooth="yes"/>
      <point x="647" y="911"/>
      <point x="601" y="802"/>
    </contour>
  </outline>
</glyph>
<glyph name="onequarter" format="2">
  <advance width="2831"/>
  <unicode hex="00BC"/>
  <outline>
    <contour>
      <point x="65" y="690" type="line"/>
      <point x="615" y="690" type="line"/>
      <point x="615" y="818" type="line"/>
      <point x="481" y="818" type="line"/>
      <point x="481" y="1500" type="line"/>
      <point x="305" y="1500" type="line"/>
      <point x="304" y="1497" type="line" smooth="yes"/>
      <point x="270" y="1395"/>
      <point x="215" y="1344"/>
      <point x="45" y="1344" type="curve" smooth="yes"/>
      <point x="35" y="1344" type="line"/>
      <point x="35" y="1223" type="line"/>
      <point x="220" y="1223" type="line"/>
      <point x="220" y="818" type="line"/>
      <point x="65" y="818" type="line"/>
    </contour>
    <contour>
      <point x="649" y="0" type="line"/>
      <point x="901" y="0" type="line"/>
      <point x="1928" y="1500" type="line"/>
      <point x="1676" y="1500" type="line"/>
    </contour>
    <contour>
      <point x="2182" y="0" type="line"/>
      <point x="2727" y="0" type="line"/>
      <point x="2727" y="128" type="line"/>
      <point x="2627" y="128" type="line"/>
      <point x="2627" y="810" type="line"/>
      <point x="2386" y="810" type="line"/>
      <point x="2366" y="752" type="line"/>
      <point x="2366" y="128" type="line"/>
      <point x="2182" y="128" type="line"/>
    </contour>
    <contour>
      <point x="1968" y="240" type="line"/>
      <point x="2803" y="240" type="line"/>
      <point x="2803" y="374" type="line"/>
      <point x="2020" y="374" type="line"/>
      <point x="1968" y="361" type="line"/>
    </contour>
    <contour>
      <point x="1968" y="361" type="line"/>
      <point x="2131" y="361" type="line"/>
      <point x="2383" y="630" type="line"/>
      <point x="2386" y="810" type="line"/>
    </contour>
  </outline>
</glyph>
<glyph name="onehalf" format="2">
  <advance width="2774"/>
  <unicode hex="00BD"/>
  <outline>
    <contour>
      <point x="65" y="690" type="line"/>
      <point x="615" y="690" type="line"/>
      <point x="615" y="818" type="line"/>
      <point x="481" y="818" type="line"/>
      <point x="481" y="1500" type="line"/>
      <point x="305" y="1500" type="line"/>
      <point x="304" y="1497" type="line" smooth="yes"/>
      <point x="270" y="1395"/>
      <point x="215" y="1344"/>
      <point x="45" y="1344" type="curve" smooth="yes"/>
      <point x="35" y="1344" type="line"/>
      <point x="35" y="1223" type="line"/>
      <point x="220" y="1223" type="line"/>
      <point x="220" y="818" type="line"/>
      <point x="65" y="818" type="line"/>
    </contour>
    <contour>
      <point x="649" y="0" type="line"/>
      <point x="901" y="0" type="line"/>
      <point x="1928" y="1500" type="line"/>
      <point x="1676" y="1500" type="line"/>
    </contour>
    <contour>
      <point x="2000" y="45" type="curve" smooth="yes"/>
      <point x="2000" y="0" type="line"/>
      <point x="2160" y="200" type="line"/>
      <point x="2206" y="250"/>
      <point x="2269" y="266"/>
      <point x="2339" y="281" type="curve" smooth="yes"/>
      <point x="2402" y="294" type="line" smooth="yes"/>
      <point x="2587" y="332"/>
      <point x="2724" y="404"/>
      <point x="2724" y="572" type="curve"/>
      <point x="2471" y="596" type="line"/>
      <point x="2470" y="525"/>
      <point x="2401" y="495"/>
      <point x="2342" y="472" type="curve" smooth="yes"/>
      <point x="2276" y="446" type="line" smooth="yes"/>
      <point x="2100" y="377"/>
      <point x="2000" y="251"/>
    </contour>
    <contour>
      <point x="2000" y="0" type="line"/>
      <point x="2719" y="0" type="line"/>
      <point x="2719" y="200" type="line"/>
      <point x="2160" y="200" type="line"/>
      <point x="2000" y="45" type="line"/>
    </contour>
    <contour>
      <point x="2481" y="200" type="curve" smooth="yes"/>
      <point x="2719" y="200" type="line"/>
      <point x="2719" y="302" type="line"/>
      <point x="2592" y="302" type="line"/>
      <point x="2592" y="300" type="line" smooth="yes"/>
      <point x="2592" y="235"/>
      <point x="2574" y="200"/>
    </contour>
    <contour>
      <point x="2165" y="460" type="curve" smooth="yes"/>
      <point x="2242" y="457"/>
      <point x="2290" y="504"/>
      <point x="2290" y="566" type="curve" smooth="yes"/>
      <point x="2290" y="630"/>
      <point x="2227" y="663"/>
      <point x="2141" y="648" type="curve"/>
      <point x="2154" y="595" type="line"/>
      <point x="2158" y="657"/>
      <point x="2235" y="691"/>
      <point x="2325" y="691" type="curve" smooth="yes"/>
      <point x="2410" y="691"/>
      <point x="2470" y="662"/>
      <point x="2471" y="596" type="curve"/>
      <point x="2724" y="572" type="line"/>
      <point x="2724" y="744"/>
      <point x="2565" y="823"/>
      <point x="2373" y="823" type="curve" smooth="yes"/>
      <point x="2170" y="823"/>
      <point x="2019" y="734"/>
      <point x="2019" y="610" type="curve" smooth="yes"/>
      <point x="2019" y="503"/>
      <point x="2094" y="463"/>
    </contour>
  </outline>
</glyph>
<glyph name="threequarters" format="2">
  <advance width="3000"/>
  <unicode hex="00BE"/>
  <outline>
    <contour>
      <point x="403" y="677" type="curve" smooth="yes"/>
      <point x="641" y="677"/>
      <point x="752" y="801"/>
      <point x="752" y="938" type="curve" smooth="yes"/>
      <point x="752" y="1092"/>
      <point x="602" y="1185"/>
      <point x="278" y="1167" type="curve"/>
      <point x="278" y="1073" type="line"/>
      <point x="414" y="1071"/>
      <point x="493" y="1036"/>
      <point x="493" y="968" type="curve" smooth="yes"/>
      <point x="493" y="909"/>
      <point x="443" y="867"/>
      <point x="335" y="867" type="curve" smooth="yes"/>
      <point x="238" y="867"/>
      <point x="161" y="913"/>
      <point x="160" y="1016" type="curve"/>
      <point x="37" y="1016" type="line"/>
      <point x="20" y="797"/>
      <point x="156" y="677"/>
    </contour>
    <contour>
      <point x="278" y="1187" type="curve"/>
      <point x="278" y="1137" type="line"/>
      <point x="587" y="1129"/>
      <point x="732" y="1195"/>
      <point x="732" y="1312" type="curve" smooth="yes"/>
      <point x="732" y="1434"/>
      <point x="588" y="1513"/>
      <point x="398" y="1513" type="curve" smooth="yes"/>
      <point x="210" y="1513"/>
      <point x="51" y="1439"/>
      <point x="51" y="1330" type="curve" smooth="yes"/>
      <point x="51" y="1238"/>
      <point x="123" y="1204"/>
      <point x="194" y="1201" type="curve" smooth="yes"/>
      <point x="276" y="1198"/>
      <point x="322" y="1245"/>
      <point x="322" y="1293" type="curve" smooth="yes"/>
      <point x="322" y="1354"/>
      <point x="266" y="1375"/>
      <point x="181" y="1372" type="curve"/>
      <point x="186" y="1326" type="line"/>
      <point x="212" y="1363"/>
      <point x="267" y="1382"/>
      <point x="351" y="1382" type="curve" smooth="yes"/>
      <point x="436" y="1382"/>
      <point x="491" y="1349"/>
      <point x="491" y="1292" type="curve" smooth="yes"/>
      <point x="491" y="1215"/>
      <point x="410" y="1187"/>
    </contour>
    <contour>
      <point x="818" y="0" type="line"/>
      <point x="1070" y="0" type="line"/>
      <point x="2097" y="1500" type="line"/>
      <point x="1845" y="1500" type="line"/>
    </contour>
    <contour>
      <point x="2351" y="0" type="line"/>
      <point x="2896" y="0" type="line"/>
      <point x="2896" y="128" type="line"/>
      <point x="2796" y="128" type="line"/>
      <point x="2796" y="810" type="line"/>
      <point x="2555" y="810" type="line"/>
      <point x="2535" y="752" type="line"/>
      <point x="2535" y="128" type="line"/>
      <point x="2351" y="128" type="line"/>
    </contour>
    <contour>
      <point x="2137" y="240" type="line"/>
      <point x="2972" y="240" type="line"/>
      <point x="2972" y="374" type="line"/>
      <point x="2189" y="374" type="line"/>
      <point x="2137" y="361" type="line"/>
    </contour>
    <contour>
      <point x="2137" y="361" type="line"/>
      <point x="2300" y="361" type="line"/>
      <point x="2552" y="630" type="line"/>
      <point x="2555" y="810" type="line"/>
    </contour>
  </outline>
</glyph>
<glyph name="questiondown" format="2">
  <advance width="1100"/>
  <unicode hex="00BF"/>
  <outline>
    <contour>
      <point x="853" y="228" type="curve" smooth="yes"/>
      <point x="726" y="233"/>
      <point x="657" y="153"/>
      <point x="657" y="58" type="curve" smooth="yes"/>
      <point x="657" y="-47"/>
      <point x="757" y="-102"/>
      <point x="893" y="-78" type="curve"/>
      <point x="873" y="5" type="line"/>
      <point x="863" y="-106"/>
      <point x="753" y="-166"/>
      <point x="622" y="-166" type="curve" smooth="yes"/>
      <point x="492" y="-166"/>
      <point x="406" y="-104"/>
      <point x="406" y="6" type="curve"/>
      <point x="12" y="25" type="line"/>
      <point x="12" y="-230"/>
      <point x="244" y="-382"/>
      <point x="554" y="-382" type="curve" smooth="yes"/>
      <point x="864" y="-382"/>
      <point x="1084" y="-242"/>
      <point x="1084" y="-26" type="curve" smooth="yes"/>
      <point x="1084" y="150"/>
      <point x="969" y="223"/>
    </contour>
    <contour>
      <point x="562" y="1162" type="curve" smooth="yes"/>
      <point x="406" y="1162"/>
      <point x="305" y="1061"/>
      <point x="305" y="916" type="curve" smooth="yes"/>
      <point x="305" y="771"/>
      <point x="406" y="670"/>
      <point x="562" y="670" type="curve" smooth="yes"/>
      <point x="718" y="670"/>
      <point x="819" y="771"/>
      <point x="819" y="916" type="curve" smooth="yes"/>
      <point x="819" y="1061"/>
      <point x="718" y="1162"/>
    </contour>
    <contour>
      <point x="651" y="588" type="curve"/>
      <point x="473" y="588" type="line"/>
      <point x="465" y="529"/>
      <point x="431" y="492"/>
      <point x="360" y="461" type="curve" smooth="yes"/>
      <point x="202" y="391"/>
      <point x="12" y="288"/>
      <point x="12" y="25" type="curve"/>
      <point x="406" y="6" type="line"/>
      <point x="406" y="102"/>
      <point x="477" y="149"/>
      <point x="573" y="213" type="curve" smooth="yes"/>
      <point x="741" y="325"/>
      <point x="721" y="492"/>
    </contour>
  </outline>
</glyph>
<glyph name="Acircumflex" format="2">
  <advance width="1805"/>
  <unicode hex="00C2"/>
  <anchor x="903" y="0" name="bottom"/>
  <anchor x="1619" y="0" name="ogonek"/>
  <anchor x="1352" y="1680" name="side"/>
  <anchor x="903" y="1890" name="top"/>
  <outline>
    <contour>
      <point x="46" y="0" type="line"/>
      <point x="656" y="0" type="line"/>
      <point x="656" y="196" type="line"/>
      <point x="433" y="196" type="line"/>
      <point x="870" y="1275" type="line"/>
      <point x="731" y="1276" type="line"/>
      <point x="1159" y="196" type="line"/>
      <point x="936" y="196" type="line"/>
      <point x="936" y="0" type="line"/>
      <point x="1759" y="0" type="line"/>
      <point x="1759" y="196" type="line"/>
      <point x="1613" y="196" type="line"/>
      <point x="1077" y="1506" type="line"/>
      <point x="728" y="1506" type="line"/>
      <point x="192" y="196" type="line"/>
      <point x="46" y="196" type="line"/>
    </contour>
    <contour>
      <point x="457" y="433" type="line"/>
      <point x="1155" y="433" type="line"/>
      <point x="1155" y="633" type="line"/>
      <point x="457" y="633" type="line"/>
    </contour>
    <contour>
      <point x="514" y="1610" type="line"/>
      <point x="714" y="1610" type="line"/>
      <point x="958" y="1823" type="line"/>
      <point x="788" y="1823" type="line"/>
      <point x="1028" y="1610" type="line"/>
      <point x="1292" y="1610" type="line"/>
      <point x="1106" y="1910" type="line"/>
      <point x="700" y="1910" type="line"/>
    </contour>
  </outline>
</glyph>
<glyph name="Atilde" format="2">
  <advance width="1805"/>
  <unicode hex="00C3"/>
  <anchor x="903" y="0" name="bottom"/>
  <anchor x="1619" y="0" name="ogonek"/>
  <anchor x="903" y="1878" name="top"/>
  <outline>
    <contour>
      <point x="46" y="0" type="line"/>
      <point x="656" y="0" type="line"/>
      <point x="656" y="196" type="line"/>
      <point x="433" y="196" type="line"/>
      <point x="870" y="1275" type="line"/>
      <point x="731" y="1276" type="line"/>
      <point x="1159" y="196" type="line"/>
      <point x="936" y="196" type="line"/>
      <point x="936" y="0" type="line"/>
      <point x="1759" y="0" type="line"/>
      <point x="1759" y="196" type="line"/>
      <point x="1613" y="196" type="line"/>
      <point x="1077" y="1506" type="line"/>
      <point x="728" y="1506" type="line"/>
      <point x="192" y="196" type="line"/>
      <point x="46" y="196" type="line"/>
    </contour>
    <contour>
      <point x="457" y="433" type="line"/>
      <point x="1155" y="433" type="line"/>
      <point x="1155" y="633" type="line"/>
      <point x="457" y="633" type="line"/>
    </contour>
    <contour>
      <point x="1071" y="1588" type="curve" smooth="yes"/>
      <point x="1195" y="1588"/>
      <point x="1259" y="1669"/>
      <point x="1259" y="1814" type="curve" smooth="yes"/>
      <point x="1259" y="1910" type="line"/>
      <point x="1101" y="1910" type="line"/>
      <point x="1101" y="1874" type="line" smooth="yes"/>
      <point x="1101" y="1824"/>
      <point x="1083" y="1796"/>
      <point x="1049" y="1796" type="curve" smooth="yes"/>
      <point x="1019" y="1796"/>
      <point x="995" y="1809"/>
      <point x="965" y="1830" type="curve" smooth="yes"/>
      <point x="929" y="1855" type="line"/>
      <point x="841" y="1690" type="line"/>
      <point x="877" y="1665" type="line" smooth="yes"/>
      <point x="937" y="1623"/>
      <point x="992" y="1588"/>
    </contour>
    <contour>
      <point x="547" y="1706" type="curve" smooth="yes"/>
      <point x="547" y="1610" type="line"/>
      <point x="705" y="1610" type="line"/>
      <point x="705" y="1646" type="line" smooth="yes"/>
      <point x="705" y="1696"/>
      <point x="723" y="1724"/>
      <point x="757" y="1724" type="curve" smooth="yes"/>
      <point x="787" y="1724"/>
      <point x="811" y="1711"/>
      <point x="841" y="1690" type="curve" smooth="yes"/>
      <point x="877" y="1665" type="line"/>
      <point x="965" y="1830" type="line"/>
      <point x="929" y="1855" type="line" smooth="yes"/>
      <point x="869" y="1897"/>
      <point x="814" y="1932"/>
      <point x="735" y="1932" type="curve" smooth="yes"/>
      <point x="611" y="1932"/>
      <point x="547" y="1851"/>
    </contour>
  </outline>
</glyph>
<glyph name="Adieresis" format="2">
  <advance width="1805"/>
  <unicode hex="00C4"/>
  <anchor x="903" y="0" name="bottom"/>
  <anchor x="1619" y="0" name="ogonek"/>
  <anchor x="903" y="1934" name="top"/>
  <outline>
    <contour>
      <point x="46" y="0" type="line"/>
      <point x="656" y="0" type="line"/>
      <point x="656" y="196" type="line"/>
      <point x="433" y="196" type="line"/>
      <point x="870" y="1275" type="line"/>
      <point x="731" y="1276" type="line"/>
      <point x="1159" y="196" type="line"/>
      <point x="936" y="196" type="line"/>
      <point x="936" y="0" type="line"/>
      <point x="1759" y="0" type="line"/>
      <point x="1759" y="196" type="line"/>
      <point x="1613" y="196" type="line"/>
      <point x="1077" y="1506" type="line"/>
      <point x="728" y="1506" type="line"/>
      <point x="192" y="196" type="line"/>
      <point x="46" y="196" type="line"/>
    </contour>
    <contour>
      <point x="457" y="433" type="line"/>
      <point x="1155" y="433" type="line"/>
      <point x="1155" y="633" type="line"/>
      <point x="457" y="633" type="line"/>
    </contour>
    <contour>
      <point x="1132" y="1586" type="curve" smooth="yes"/>
      <point x="1245" y="1586"/>
      <point x="1321" y="1660"/>
      <point x="1321" y="1782" type="curve" smooth="yes"/>
      <point x="1321" y="1903"/>
      <point x="1245" y="1977"/>
      <point x="1132" y="1977" type="curve" smooth="yes"/>
      <point x="1019" y="1977"/>
      <point x="943" y="1903"/>
      <point x="943" y="1782" type="curve" smooth="yes"/>
      <point x="943" y="1660"/>
      <point x="1019" y="1586"/>
    </contour>
    <contour>
      <point x="674" y="1586" type="curve" smooth="yes"/>
      <point x="787" y="1586"/>
      <point x="863" y="1660"/>
      <point x="863" y="1782" type="curve" smooth="yes"/>
      <point x="863" y="1903"/>
      <point x="787" y="1977"/>
      <point x="674" y="1977" type="curve" smooth="yes"/>
      <point x="561" y="1977"/>
      <point x="485" y="1903"/>
      <point x="485" y="1782" type="curve" smooth="yes"/>
      <point x="485" y="1660"/>
      <point x="561" y="1586"/>
    </contour>
  </outline>
</glyph>
<glyph name="Aring" format="2">
  <advance width="1805"/>
  <unicode hex="00C5"/>
  <anchor x="903" y="0" name="bottom"/>
  <anchor x="1619" y="0" name="ogonek"/>
  <anchor x="903" y="1996" name="top"/>
  <outline>
    <contour>
      <point x="46" y="0" type="line"/>
      <point x="656" y="0" type="line"/>
      <point x="656" y="196" type="line"/>
      <point x="433" y="196" type="line"/>
      <point x="870" y="1275" type="line"/>
      <point x="731" y="1276" type="line"/>
      <point x="1159" y="196" type="line"/>
      <point x="936" y="196" type="line"/>
      <point x="936" y="0" type="line"/>
      <point x="1759" y="0" type="line"/>
      <point x="1759" y="196" type="line"/>
      <point x="1613" y="196" type="line"/>
      <point x="1077" y="1506" type="line"/>
      <point x="728" y="1506" type="line"/>
      <point x="192" y="196" type="line"/>
      <point x="46" y="196" type="line"/>
    </contour>
    <contour>
      <point x="457" y="433" type="line"/>
      <point x="1155" y="433" type="line"/>
      <point x="1155" y="633" type="line"/>
      <point x="457" y="633" type="line"/>
    </contour>
    <contour>
      <point x="903" y="1578" type="curve" smooth="yes"/>
      <point x="1074" y="1578"/>
      <point x="1194" y="1667"/>
      <point x="1194" y="1812" type="curve" smooth="yes"/>
      <point x="1194" y="1956"/>
      <point x="1074" y="2045"/>
      <point x="903" y="2045" type="curve" smooth="yes"/>
      <point x="732" y="2045"/>
      <point x="612" y="1956"/>
      <point x="612" y="1812" type="curve" smooth="yes"/>
      <point x="612" y="1667"/>
      <point x="732" y="1578"/>
    </contour>
    <contour>
      <point x="903" y="1688" type="curve" smooth="yes"/>
      <point x="849" y="1688"/>
      <point x="812" y="1735"/>
      <point x="812" y="1812" type="curve" smooth="yes"/>
      <point x="812" y="1888"/>
      <point x="849" y="1935"/>
      <point x="903" y="1935" type="curve" smooth="yes"/>
      <point x="957" y="1935"/>
      <point x="994" y="1888"/>
      <point x="994" y="1812" type="curve" smooth="yes"/>
      <point x="994" y="1735"/>
      <point x="957" y="1688"/>
    </contour>
  </outline>
</glyph>
<glyph name="AE" format="2">
  <advance width="2354"/>
  <unicode hex="00C6"/>
  <anchor x="1266" y="1500" name="top"/>
  <outline>
    <contour>
      <point x="46" y="0" type="line"/>
      <point x="674" y="0" type="line"/>
      <point x="674" y="196" type="line"/>
      <point x="473" y="196" type="line"/>
      <point x="1234" y="1500" type="line"/>
      <point x="980" y="1500" type="line"/>
      <point x="214" y="196" type="line"/>
      <point x="46" y="196" type="line"/>
    </contour>
    <contour>
      <point x="542" y="433" type="line"/>
      <point x="1056" y="433" type="line"/>
      <point x="1056" y="641" type="line"/>
      <point x="542" y="641" type="line"/>
    </contour>
    <contour>
      <point x="1476" y="0" type="line"/>
      <point x="2226" y="0" type="line"/>
      <point x="2226" y="206" type="line"/>
      <point x="1476" y="206" type="line"/>
    </contour>
    <contour>
      <point x="880" y="0" type="line"/>
      <point x="1476" y="0" type="line"/>
      <point x="1476" y="1500" type="line"/>
      <point x="688" y="1500" type="line"/>
      <point x="688" y="1304" type="line"/>
      <point x="1056" y="1304" type="line"/>
      <point x="1056" y="196" type="line"/>
      <point x="880" y="196" type="line"/>
    </contour>
    <contour>
      <point x="1681" y="440" type="curve" smooth="yes"/>
      <point x="1681" y="326" type="line"/>
      <point x="1873" y="326" type="line"/>
      <point x="1873" y="670" type="line"/>
      <point x="1481" y="670" type="line" smooth="yes"/>
      <point x="1624" y="670"/>
      <point x="1681" y="600"/>
    </contour>
    <contour>
      <point x="1476" y="670" type="line"/>
      <point x="1873" y="670" type="line"/>
      <point x="1873" y="874" type="line"/>
      <point x="1476" y="874" type="line"/>
    </contour>
    <contour>
      <point x="1808" y="206" type="curve" smooth="yes"/>
      <point x="2226" y="206" type="line"/>
      <point x="2226" y="580" type="line"/>
      <point x="2028" y="580" type="line"/>
      <point x="2028" y="446" type="line" smooth="yes"/>
      <point x="2028" y="276"/>
      <point x="1968" y="206"/>
    </contour>
    <contour>
      <point x="1481" y="874" type="curve" smooth="yes"/>
      <point x="1873" y="874" type="line"/>
      <point x="1873" y="1174" type="line"/>
      <point x="1681" y="1174" type="line"/>
      <point x="1681" y="1104" type="line" smooth="yes"/>
      <point x="1681" y="944"/>
      <point x="1624" y="874"/>
    </contour>
    <contour>
      <point x="1476" y="1294" type="line"/>
      <point x="2212" y="1294" type="line"/>
      <point x="2212" y="1500" type="line"/>
      <point x="1476" y="1500" type="line"/>
    </contour>
    <contour>
      <point x="2014" y="1054" type="curve" smooth="yes"/>
      <point x="2014" y="940" type="line"/>
      <point x="2212" y="940" type="line"/>
      <point x="2212" y="1294" type="line"/>
      <point x="1794" y="1294" type="line" smooth="yes"/>
      <point x="1954" y="1294"/>
      <point x="2014" y="1224"/>
    </contour>
  </outline>
</glyph>
<glyph name="Ccedilla" format="2">
  <advance width="1631"/>
  <unicode hex="00C7"/>
  <anchor x="816" y="0" name="bottom"/>
  <anchor x="835" y="1500" name="top"/>
  <outline>
    <contour>
      <point x="863" y="-32" type="curve" smooth="yes"/>
      <point x="1324" y="-32"/>
      <point x="1525" y="274"/>
      <point x="1537" y="663" type="curve"/>
      <point x="1349" y="663" type="line"/>
      <point x="1322" y="432"/>
      <point x="1204" y="252"/>
      <point x="951" y="252" type="curve" smooth="yes"/>
      <point x="696" y="252"/>
      <point x="534" y="462"/>
      <point x="534" y="772" type="curve" smooth="yes"/>
      <point x="534" y="1094"/>
      <point x="693" y="1308"/>
      <point x="951" y="1308" type="curve" smooth="yes"/>
      <point x="1209" y="1308"/>
      <point x="1318" y="1124"/>
      <point x="1331" y="915" type="curve"/>
      <point x="1412" y="915" type="line"/>
      <point x="1408" y="1303"/>
      <point x="1208" y="1532"/>
      <point x="805" y="1532" type="curve" smooth="yes"/>
      <point x="394" y="1532"/>
      <point x="74" y="1244"/>
      <point x="74" y="750" type="curve" smooth="yes"/>
      <point x="74" y="256"/>
      <point x="399" y="-32"/>
    </contour>
    <contour>
      <point x="1412" y="915" type="line"/>
      <point x="1525" y="915" type="line"/>
      <point x="1525" y="1500" type="line"/>
      <point x="1309" y="1500" type="line"/>
      <point x="1309" y="1164" type="line"/>
    </contour>
    <contour>
      <point x="838" y="-440" type="curve" smooth="yes"/>
      <point x="980" y="-440"/>
      <point x="1083" y="-379"/>
      <point x="1083" y="-246" type="curve" smooth="yes"/>
      <point x="1083" y="-124"/>
      <point x="977" y="-84"/>
      <point x="891" y="-84" type="curve" smooth="yes"/>
      <point x="881" y="-84" type="line"/>
      <point x="890" y="10" type="line"/>
      <point x="744" y="10" type="line"/>
      <point x="719" y="-208" type="line"/>
      <point x="830" y="-208" type="line" smooth="yes"/>
      <point x="860" y="-208"/>
      <point x="883" y="-222"/>
      <point x="883" y="-251" type="curve" smooth="yes"/>
      <point x="883" y="-283"/>
      <point x="862" y="-301"/>
      <point x="810" y="-302" type="curve" smooth="yes"/>
      <point x="748" y="-303"/>
      <point x="688" y="-275"/>
      <point x="637" y="-245" type="curve"/>
      <point x="579" y="-355" type="line"/>
      <point x="641" y="-405"/>
      <point x="738" y="-440"/>
    </contour>
  </outline>
</glyph>
<glyph name="Iacute" format="2">
  <advance width="908"/>
  <unicode hex="00CD"/>
  <anchor x="454" y="0" name="bottom"/>
  <anchor x="664" y="0" name="ogonek"/>
  <anchor x="454" y="1500" name="top"/>
  <anchor x="30" y="1500" name="topleft"/>
  <outline>
    <contour>
      <point x="52" y="0" type="line"/>
      <point x="856" y="0" type="line"/>
      <point x="856" y="196" type="line"/>
      <point x="664" y="196" type="line"/>
      <point x="664" y="1304" type="line"/>
      <point x="853" y="1304" type="line"/>
      <point x="853" y="1500" type="line"/>
      <point x="55" y="1500" type="line"/>
      <point x="55" y="1304" type="line"/>
      <point x="244" y="1304" type="line"/>
      <point x="244" y="196" type="line"/>
      <point x="52" y="196" type="line"/>
    </contour>
    <contour>
      <point x="301" y="1610" type="line"/>
      <point x="539" y="1610" type="line"/>
      <point x="839" y="1910" type="line"/>
      <point x="431" y="1910" type="line"/>
    </contour>
  </outline>
</glyph>
<glyph name="Icircumflex" format="2">
  <advance width="908"/>
  <unicode hex="00CE"/>
  <anchor x="454" y="0" name="bottom"/>
  <anchor x="664" y="0" name="ogonek"/>
  <anchor x="903" y="1680" name="side"/>
  <anchor x="454" y="1890" name="top"/>
  <anchor x="30" y="1500" name="topleft"/>
  <outline>
    <contour>
      <point x="52" y="0" type="line"/>
      <point x="856" y="0" type="line"/>
      <point x="856" y="196" type="line"/>
      <point x="664" y="196" type="line"/>
      <point x="664" y="1304" type="line"/>
      <point x="853" y="1304" type="line"/>
      <point x="853" y="1500" type="line"/>
      <point x="55" y="1500" type="line"/>
      <point x="55" y="1304" type="line"/>
      <point x="244" y="1304" type="line"/>
      <point x="244" y="196" type="line"/>
      <point x="52" y="196" type="line"/>
    </contour>
    <contour>
      <point x="65" y="1610" type="line"/>
      <point x="265" y="1610" type="line"/>
      <point x="509" y="1823" type="line"/>
      <point x="339" y="1823" type="line"/>
      <point x="579" y="1610" type="line"/>
      <point x="843" y="1610" type="line"/>
      <point x="657" y="1910" type="line"/>
      <point x="251" y="1910" type="line"/>
    </contour>
  </outline>
</glyph>
<glyph name="Idieresis" format="2">
  <advance width="908"/>
  <unicode hex="00CF"/>
  <anchor x="454" y="0" name="bottom"/>
  <anchor x="664" y="0" name="ogonek"/>
  <anchor x="454" y="1934" name="top"/>
  <anchor x="30" y="1500" name="topleft"/>
  <outline>
    <contour>
      <point x="52" y="0" type="line"/>
      <point x="856" y="0" type="line"/>
      <point x="856" y="196" type="line"/>
      <point x="664" y="196" type="line"/>
      <point x="664" y="1304" type="line"/>
      <point x="853" y="1304" type="line"/>
      <point x="853" y="1500" type="line"/>
      <point x="55" y="1500" type="line"/>
      <point x="55" y="1304" type="line"/>
      <point x="244" y="1304" type="line"/>
      <point x="244" y="196" type="line"/>
      <point x="52" y="196" type="line"/>
    </contour>
    <contour>
      <point x="683" y="1586" type="curve" smooth="yes"/>
      <point x="796" y="1586"/>
      <point x="872" y="1660"/>
      <point x="872" y="1782" type="curve" smooth="yes"/>
      <point x="872" y="1903"/>
      <point x="796" y="1977"/>
      <point x="683" y="1977" type="curve" smooth="yes"/>
      <point x="570" y="1977"/>
      <point x="494" y="1903"/>
      <point x="494" y="1782" type="curve" smooth="yes"/>
      <point x="494" y="1660"/>
      <point x="570" y="1586"/>
    </contour>
    <contour>
      <point x="225" y="1586" type="curve" smooth="yes"/>
      <point x="338" y="1586"/>
      <point x="414" y="1660"/>
      <point x="414" y="1782" type="curve" smooth="yes"/>
      <point x="414" y="1903"/>
      <point x="338" y="1977"/>
      <point x="225" y="1977" type="curve" smooth="yes"/>
      <point x="112" y="1977"/>
      <point x="36" y="1903"/>
      <point x="36" y="1782" type="curve" smooth="yes"/>
      <point x="36" y="1660"/>
      <point x="112" y="1586"/>
    </contour>
  </outline>
</glyph>
<glyph name="Ntilde" format="2">
  <advance width="1709"/>
  <unicode hex="00D1"/>
  <anchor x="859" y="0" name="bottom"/>
  <anchor x="885" y="1878" name="top"/>
  <outline>
    <contour>
      <point x="1283" y="0" type="line"/>
      <point x="1283" y="636" type="line"/>
      <point x="524" y="1500" type="line"/>
      <point x="454" y="943" type="line"/>
    </contour>
    <contour>
      <point x="54" y="0" type="line"/>
      <point x="646" y="0" type="line"/>
      <point x="646" y="196" type="line"/>
      <point x="454" y="196" type="line"/>
      <point x="454" y="943" type="line"/>
      <point x="524" y="1500" type="line"/>
      <point x="57" y="1500" type="line"/>
      <point x="57" y="1304" type="line"/>
      <point x="230" y="1304" type="line"/>
      <point x="230" y="196" type="line"/>
      <point x="54" y="196" type="line"/>
    </contour>
    <contour>
      <point x="1283" y="0" type="line"/>
      <point x="1507" y="0" type="line"/>
      <point x="1507" y="1304" type="line"/>
      <point x="1667" y="1304" type="line"/>
      <point x="1667" y="1500" type="line"/>
      <point x="1094" y="1500" type="line"/>
      <point x="1094" y="1304" type="line"/>
      <point x="1283" y="1304" type="line"/>
      <point x="1283" y="636" type="line"/>
      <point x="1273" y="636" type="line"/>
    </contour>
    <contour>
      <point x="1053" y="1588" type="curve" smooth="yes"/>
      <point x="1177" y="1588"/>
      <point x="1241" y="1669"/>
      <point x="1241" y="1814" type="curve" smooth="yes"/>
      <point x="1241" y="1910" type="line"/>
      <point x="1083" y="1910" type="line"/>
      <point x="1083" y="1874" type="line" smooth="yes"/>
      <point x="1083" y="1824"/>
      <point x="1065" y="1796"/>
      <point x="1031" y="1796" type="curve" smooth="yes"/>
      <point x="1001" y="1796"/>
      <point x="977" y="1809"/>
      <point x="947" y="1830" type="curve" smooth="yes"/>
      <point x="911" y="1855" type="line"/>
      <point x="823" y="1690" type="line"/>
      <point x="859" y="1665" type="line" smooth="yes"/>
      <point x="919" y="1623"/>
      <point x="974" y="1588"/>
    </contour>
    <contour>
      <point x="529" y="1706" type="curve" smooth="yes"/>
      <point x="529" y="1610" type="line"/>
      <point x="687" y="1610" type="line"/>
      <point x="687" y="1646" type="line" smooth="yes"/>
      <point x="687" y="1696"/>
      <point x="705" y="1724"/>
      <point x="739" y="1724" type="curve" smooth="yes"/>
      <point x="769" y="1724"/>
      <point x="793" y="1711"/>
      <point x="823" y="1690" type="curve" smooth="yes"/>
      <point x="859" y="1665" type="line"/>
      <point x="947" y="1830" type="line"/>
      <point x="911" y="1855" type="line" smooth="yes"/>
      <point x="851" y="1897"/>
      <point x="796" y="1932"/>
      <point x="717" y="1932" type="curve" smooth="yes"/>
      <point x="593" y="1932"/>
      <point x="529" y="1851"/>
    </contour>
  </outline>
</glyph>
<glyph name="Otilde" format="2">
  <advance width="1836"/>
  <unicode hex="00D5"/>
  <anchor x="918" y="0" name="bottom"/>
  <anchor x="1265" y="0" name="ogonek"/>
  <anchor x="918" y="1878" name="top"/>
  <anchor x="36" y="1500" name="topleft"/>
  <anchor x="1601" y="1270" name="topright"/>
  <outline>
    <contour>
      <point x="918" y="-32" type="curve" smooth="yes"/>
      <point x="1418" y="-32"/>
      <point x="1762" y="256"/>
      <point x="1762" y="750" type="curve" smooth="yes"/>
      <point x="1762" y="1244"/>
      <point x="1418" y="1532"/>
      <point x="918" y="1532" type="curve" smooth="yes"/>
      <point x="418" y="1532"/>
      <point x="74" y="1244"/>
      <point x="74" y="750" type="curve" smooth="yes"/>
      <point x="74" y="256"/>
      <point x="418" y="-32"/>
    </contour>
    <contour>
      <point x="918" y="162" type="curve" smooth="yes"/>
      <point x="681" y="162"/>
      <point x="542" y="374"/>
      <point x="542" y="750" type="curve" smooth="yes"/>
      <point x="542" y="1127"/>
      <point x="681" y="1338"/>
      <point x="918" y="1338" type="curve" smooth="yes"/>
      <point x="1156" y="1338"/>
      <point x="1294" y="1127"/>
      <point x="1294" y="750" type="curve" smooth="yes"/>
      <point x="1294" y="374"/>
      <point x="1156" y="162"/>
    </contour>
    <contour>
      <point x="1086" y="1588" type="curve" smooth="yes"/>
      <point x="1210" y="1588"/>
      <point x="1274" y="1669"/>
      <point x="1274" y="1814" type="curve" smooth="yes"/>
      <point x="1274" y="1910" type="line"/>
      <point x="1116" y="1910" type="line"/>
      <point x="1116" y="1874" type="line" smooth="yes"/>
      <point x="1116" y="1824"/>
      <point x="1098" y="1796"/>
      <point x="1064" y="1796" type="curve" smooth="yes"/>
      <point x="1034" y="1796"/>
      <point x="1010" y="1809"/>
      <point x="980" y="1830" type="curve" smooth="yes"/>
      <point x="944" y="1855" type="line"/>
      <point x="856" y="1690" type="line"/>
      <point x="892" y="1665" type="line" smooth="yes"/>
      <point x="952" y="1623"/>
      <point x="1007" y="1588"/>
    </contour>
    <contour>
      <point x="562" y="1706" type="curve" smooth="yes"/>
      <point x="562" y="1610" type="line"/>
      <point x="720" y="1610" type="line"/>
      <point x="720" y="1646" type="line" smooth="yes"/>
      <point x="720" y="1696"/>
      <point x="738" y="1724"/>
      <point x="772" y="1724" type="curve" smooth="yes"/>
      <point x="802" y="1724"/>
      <point x="826" y="1711"/>
      <point x="856" y="1690" type="curve" smooth="yes"/>
      <point x="892" y="1665" type="line"/>
      <point x="980" y="1830" type="line"/>
      <point x="944" y="1855" type="line" smooth="yes"/>
      <point x="884" y="1897"/>
      <point x="829" y="1932"/>
      <point x="750" y="1932" type="curve" smooth="yes"/>
      <point x="626" y="1932"/>
      <point x="562" y="1851"/>
    </contour>
  </outline>
</glyph>
<glyph name="multiply" format="2">
  <advance width="1084"/>
  <unicode hex="00D7"/>
  <outline>
    <contour>
      <point x="247" y="264" type="line"/>
      <point x="54" y="457" type="line"/>
      <point x="837" y="1240" type="line"/>
      <point x="1030" y="1047" type="line"/>
    </contour>
    <contour>
      <point x="837" y="264" type="line"/>
      <point x="1030" y="457" type="line"/>
      <point x="247" y="1240" type="line"/>
      <point x="54" y="1047" type="line"/>
    </contour>
  </outline>
</glyph>
<glyph name="Oslash" format="2">
  <advance width="1836"/>
  <unicode hex="00D8"/>
  <anchor x="918" y="0" name="bottom"/>
  <anchor x="1265" y="0" name="ogonek"/>
  <anchor x="918" y="1500" name="top"/>
  <anchor x="36" y="1500" name="topleft"/>
  <anchor x="1601" y="1270" name="topright"/>
  <outline>
    <contour>
      <point x="918" y="-32" type="curve" smooth="yes"/>
      <point x="1418" y="-32"/>
      <point x="1762" y="256"/>
      <point x="1762" y="750" type="curve" smooth="yes"/>
      <point x="1762" y="1244"/>
      <point x="1418" y="1532"/>
      <point x="918" y="1532" type="curve" smooth="yes"/>
      <point x="418" y="1532"/>
      <point x="74" y="1244"/>
      <point x="74" y="750" type="curve" smooth="yes"/>
      <point x="74" y="256"/>
      <point x="418" y="-32"/>
    </contour>
    <contour>
      <point x="918" y="162" type="curve" smooth="yes"/>
      <point x="681" y="162"/>
      <point x="542" y="374"/>
      <point x="542" y="750" type="curve" smooth="yes"/>
      <point x="542" y="1127"/>
      <point x="681" y="1338"/>
      <point x="918" y="1338" type="curve" smooth="yes"/>
      <point x="1156" y="1338"/>
      <point x="1294" y="1127"/>
      <point x="1294" y="750" type="curve" smooth="yes"/>
      <point x="1294" y="374"/>
      <point x="1156" y="162"/>
    </contour>
    <contour>
      <point x="78" y="0" type="line"/>
      <point x="350" y="0" type="line"/>
      <point x="1758" y="1500" type="line"/>
      <point x="1486" y="1500" type="line"/>
    </contour>
  </outline>
</glyph>
<glyph name="Ucircumflex" format="2">
  <advance width="1744"/>
  <unicode hex="00DB"/>
  <anchor x="872" y="0" name="bottom"/>
  <anchor x="1207" y="0" name="ogonek"/>
  <anchor x="1386" y="1680" name="side"/>
  <anchor x="937" y="1890" name="top"/>
  <anchor x="1526" y="1501" name="topright"/>
  <outline>
    <contour>
      <point x="872" y="-22" type="curve" smooth="yes"/>
      <point x="1309" y="-22"/>
      <point x="1536" y="196"/>
      <point x="1536" y="578" type="curve" smooth="yes"/>
      <point x="1536" y="1304" type="line"/>
      <point x="1696" y="1304" type="line"/>
      <point x="1696" y="1500" type="line"/>
      <point x="1075" y="1500" type="line"/>
      <point x="1075" y="1304" type="line"/>
      <point x="1264" y="1304" type="line"/>
      <point x="1264" y="498" type="line" smooth="yes"/>
      <point x="1264" y="300"/>
      <point x="1162" y="181"/>
      <point x="949" y="181" type="curve" smooth="yes"/>
      <point x="736" y="181"/>
      <point x="634" y="300"/>
      <point x="634" y="498" type="curve" smooth="yes"/>
      <point x="634" y="1304" type="line"/>
      <point x="823" y="1304" type="line"/>
      <point x="823" y="1500" type="line"/>
      <point x="48" y="1500" type="line"/>
      <point x="48" y="1304" type="line"/>
      <point x="208" y="1304" type="line"/>
      <point x="208" y="578" type="line" smooth="yes"/>
      <point x="208" y="196"/>
      <point x="435" y="-22"/>
    </contour>
    <contour>
      <point x="548" y="1610" type="line"/>
      <point x="748" y="1610" type="line"/>
      <point x="992" y="1823" type="line"/>
      <point x="822" y="1823" type="line"/>
      <point x="1062" y="1610" type="line"/>
      <point x="1326" y="1610" type="line"/>
      <point x="1140" y="1910" type="line"/>
      <point x="734" y="1910" type="line"/>
    </contour>
  </outline>
</glyph>
<glyph name="Udieresis" format="2">
  <advance width="1744"/>
  <unicode hex="00DC"/>
  <anchor x="872" y="0" name="bottom"/>
  <anchor x="1207" y="0" name="ogonek"/>
  <anchor x="937" y="1934" name="top"/>
  <anchor x="1526" y="1501" name="topright"/>
  <outline>
    <contour>
      <point x="872" y="-22" type="curve" smooth="yes"/>
      <point x="1309" y="-22"/>
      <point x="1536" y="196"/>
      <point x="1536" y="578" type="curve" smooth="yes"/>
      <point x="1536" y="1304" type="line"/>
      <point x="1696" y="1304" type="line"/>
      <point x="1696" y="1500" type="line"/>
      <point x="1075" y="1500" type="line"/>
      <point x="1075" y="1304" type="line"/>
      <point x="1264" y="1304" type="line"/>
      <point x="1264" y="498" type="line" smooth="yes"/>
      <point x="1264" y="300"/>
      <point x="1162" y="181"/>
      <point x="949" y="181" type="curve" smooth="yes"/>
      <point x="736" y="181"/>
      <point x="634" y="300"/>
      <point x="634" y="498" type="curve" smooth="yes"/>
      <point x="634" y="1304" type="line"/>
      <point x="823" y="1304" type="line"/>
      <point x="823" y="1500" type="line"/>
      <point x="48" y="1500" type="line"/>
      <point x="48" y="1304" type="line"/>
      <point x="208" y="1304" type="line"/>
      <point x="208" y="578" type="line" smooth="yes"/>
      <point x="208" y="196"/>
      <point x="435" y="-22"/>
    </contour>
    <contour>
      <point x="1166" y="1586" type="curve" smooth="yes"/>
      <point x="1279" y="1586"/>
      <point x="1355" y="1660"/>
      <point x="1355" y="1782" type="curve" smooth="yes"/>
      <point x="1355" y="1903"/>
      <point x="1279" y="1977"/>
      <point x="1166" y="1977" type="curve" smooth="yes"/>
      <point x="1053" y="1977"/>
      <point x="977" y="1903"/>
      <point x="977" y="1782" type="curve" smooth="yes"/>
      <point x="977" y="1660"/>
      <point x="1053" y="1586"/>
    </contour>
    <contour>
      <point x="708" y="1586" type="curve" smooth="yes"/>
      <point x="821" y="1586"/>
      <point x="897" y="1660"/>
      <point x="897" y="1782" type="curve" smooth="yes"/>
      <point x="897" y="1903"/>
      <point x="821" y="1977"/>
      <point x="708" y="1977" type="curve" smooth="yes"/>
      <point x="595" y="1977"/>
      <point x="519" y="1903"/>
      <point x="519" y="1782" type="curve" smooth="yes"/>
      <point x="519" y="1660"/>
      <point x="595" y="1586"/>
    </contour>
  </outline>
</glyph>
<glyph name="Thorn" format="2">
  <advance width="1495"/>
  <unicode hex="00DE"/>
  <outline>
    <contour>
      <point x="52" y="0" type="line"/>
      <point x="856" y="0" type="line"/>
      <point x="856" y="196" type="line"/>
      <point x="664" y="196" type="line"/>
      <point x="664" y="1304" type="line"/>
      <point x="853" y="1304" type="line"/>
      <point x="853" y="1500" type="line"/>
      <point x="55" y="1500" type="line"/>
      <point x="55" y="1304" type="line"/>
      <point x="244" y="1304" type="line"/>
      <point x="244" y="196" type="line"/>
      <point x="52" y="196" type="line"/>
    </contour>
    <contour>
      <point x="664" y="352" type="line"/>
      <point x="960" y="352" type="line" smooth="yes"/>
      <point x="1263" y="352"/>
      <point x="1463" y="487"/>
      <point x="1463" y="753" type="curve" smooth="yes"/>
      <point x="1463" y="1019"/>
      <point x="1263" y="1154"/>
      <point x="960" y="1154" type="curve" smooth="yes"/>
      <point x="664" y="1154" type="line"/>
      <point x="664" y="948" type="line"/>
      <point x="810" y="948" type="line" smooth="yes"/>
      <point x="948" y="948"/>
      <point x="1033" y="885"/>
      <point x="1033" y="753" type="curve" smooth="yes"/>
      <point x="1033" y="621"/>
      <point x="948" y="558"/>
      <point x="810" y="558" type="curve" smooth="yes"/>
      <point x="664" y="558" type="line"/>
    </contour>
  </outline>
</glyph>
<glyph name="eacute" format="2">
  <advance width="1262"/>
  <unicode hex="00E9"/>
  <anchor x="632" y="0" name="bottom"/>
  <anchor x="937" y="0" name="ogonek"/>
  <anchor x="632" y="1140" name="top"/>
  <outline>
    <contour>
      <point x="645" y="-26" type="curve" smooth="yes"/>
      <point x="1009" y="-26"/>
      <point x="1196" y="210"/>
      <point x="1198" y="490" type="curve"/>
      <point x="1022" y="490" type="line"/>
      <point x="1003" y="362"/>
      <point x="919" y="249"/>
      <point x="751" y="249" type="curve" smooth="yes"/>
      <point x="556" y="249"/>
      <point x="450" y="387"/>
      <point x="450" y="608" type="curve" smooth="yes"/>
      <point x="450" y="903"/>
      <point x="529" y="992"/>
      <point x="647" y="992" type="curve"/>
      <point x="649" y="1166" type="line"/>
      <point x="303" y="1166"/>
      <point x="52" y="944"/>
      <point x="52" y="570" type="curve" smooth="yes"/>
      <point x="52" y="195"/>
      <point x="297" y="-26"/>
    </contour>
    <contour>
      <point x="250" y="570" type="line"/>
      <point x="1202" y="570" type="line"/>
      <point x="1202" y="631" type="line"/>
      <point x="798" y="748" type="line"/>
      <point x="250" y="748" type="line"/>
    </contour>
    <contour>
      <point x="798" y="748" type="curve"/>
      <point x="1202" y="631" type="line"/>
      <point x="1202" y="941"/>
      <point x="1008" y="1166"/>
      <point x="649" y="1166" type="curve"/>
      <point x="647" y="992" type="line"/>
      <point x="743" y="992"/>
      <point x="796" y="899"/>
    </contour>
    <contour>
      <point x="479" y="1250" type="line"/>
      <point x="717" y="1250" type="line"/>
      <point x="1017" y="1550" type="line"/>
      <point x="609" y="1550" type="line"/>
    </contour>
  </outline>
</glyph>
<glyph name="igrave" format="2">
  <advance width="789"/>
  <unicode hex="00EC"/>
  <anchor x="394" y="0" name="bottom"/>
  <anchor x="608" y="0" name="ogonek"/>
  <anchor x="394" y="1140" name="top"/>
  <outline>
    <contour>
      <point x="38" y="0" type="line"/>
      <point x="755" y="0" type="line"/>
      <point x="755" y="192" type="line"/>
      <point x="608" y="192" type="line"/>
      <point x="608" y="1140" type="line"/>
      <point x="54" y="1140" type="line"/>
      <point x="54" y="948" type="line"/>
      <point x="208" y="948" type="line"/>
      <point x="208" y="192" type="line"/>
      <point x="38" y="192" type="line"/>
    </contour>
    <contour>
      <point x="309" y="1250" type="line"/>
      <point x="547" y="1250" type="line"/>
      <point x="417" y="1550" type="line"/>
      <point x="9" y="1550" type="line"/>
    </contour>
  </outline>
</glyph>
<glyph name="iacute" format="2">
  <advance width="789"/>
  <unicode hex="00ED"/>
  <anchor x="394" y="0" name="bottom"/>
  <anchor x="608" y="0" name="ogonek"/>
  <anchor x="394" y="1140" name="top"/>
  <outline>
    <contour>
      <point x="38" y="0" type="line"/>
      <point x="755" y="0" type="line"/>
      <point x="755" y="192" type="line"/>
      <point x="608" y="192" type="line"/>
      <point x="608" y="1140" type="line"/>
      <point x="54" y="1140" type="line"/>
      <point x="54" y="948" type="line"/>
      <point x="208" y="948" type="line"/>
      <point x="208" y="192" type="line"/>
      <point x="38" y="192" type="line"/>
    </contour>
    <contour>
      <point x="241" y="1250" type="line"/>
      <point x="479" y="1250" type="line"/>
      <point x="779" y="1550" type="line"/>
      <point x="371" y="1550" type="line"/>
    </contour>
  </outline>
</glyph>
<glyph name="icircumflex" format="2">
  <advance width="789"/>
  <unicode hex="00EE"/>
  <anchor x="394" y="0" name="bottom"/>
  <anchor x="608" y="0" name="ogonek"/>
  <anchor x="843" y="1320" name="side"/>
  <anchor x="394" y="1530" name="top"/>
  <outline>
    <contour>
      <point x="38" y="0" type="line"/>
      <point x="755" y="0" type="line"/>
      <point x="755" y="192" type="line"/>
      <point x="608" y="192" type="line"/>
      <point x="608" y="1140" type="line"/>
      <point x="54" y="1140" type="line"/>
      <point x="54" y="948" type="line"/>
      <point x="208" y="948" type="line"/>
      <point x="208" y="192" type="line"/>
      <point x="38" y="192" type="line"/>
    </contour>
    <contour>
      <point x="5" y="1250" type="line"/>
      <point x="205" y="1250" type="line"/>
      <point x="449" y="1463" type="line"/>
      <point x="279" y="1463" type="line"/>
      <point x="519" y="1250" type="line"/>
      <point x="783" y="1250" type="line"/>
      <point x="597" y="1550" type="line"/>
      <point x="191" y="1550" type="line"/>
    </contour>
  </outline>
</glyph>
<glyph name="idieresis" format="2">
  <advance width="789"/>
  <unicode hex="00EF"/>
  <anchor x="394" y="0" name="bottom"/>
  <anchor x="608" y="0" name="ogonek"/>
  <anchor x="394" y="1574" name="top"/>
  <outline>
    <contour>
      <point x="38" y="0" type="line"/>
      <point x="755" y="0" type="line"/>
      <point x="755" y="192" type="line"/>
      <point x="608" y="192" type="line"/>
      <point x="608" y="1140" type="line"/>
      <point x="54" y="1140" type="line"/>
      <point x="54" y="948" type="line"/>
      <point x="208" y="948" type="line"/>
      <point x="208" y="192" type="line"/>
      <point x="38" y="192" type="line"/>
    </contour>
    <contour>
      <point x="623" y="1226" type="curve" smooth="yes"/>
      <point x="736" y="1226"/>
      <point x="812" y="1300"/>
      <point x="812" y="1422" type="curve" smooth="yes"/>
      <point x="812" y="1543"/>
      <point x="736" y="1617"/>
      <point x="623" y="1617" type="curve" smooth="yes"/>
      <point x="510" y="1617"/>
      <point x="434" y="1543"/>
      <point x="434" y="1422" type="curve" smooth="yes"/>
      <point x="434" y="1300"/>
      <point x="510" y="1226"/>
    </contour>
    <contour>
      <point x="165" y="1226" type="curve" smooth="yes"/>
      <point x="278" y="1226"/>
      <point x="354" y="1300"/>
      <point x="354" y="1422" type="curve" smooth="yes"/>
      <point x="354" y="1543"/>
      <point x="278" y="1617"/>
      <point x="165" y="1617" type="curve" smooth="yes"/>
      <point x="52" y="1617"/>
      <point x="-24" y="1543"/>
      <point x="-24" y="1422" type="curve" smooth="yes"/>
      <point x="-24" y="1300"/>
      <point x="52" y="1226"/>
    </contour>
  </outline>
</glyph>
<glyph name="ntilde" format="2">
  <advance width="1446"/>
  <unicode hex="00F1"/>
  <anchor x="720" y="0" name="bottom"/>
  <anchor x="716" y="1518" name="top"/>
  <outline>
    <contour>
      <point x="784" y="0" type="line"/>
      <point x="1402" y="0" type="line"/>
      <point x="1402" y="192" type="line"/>
      <point x="1280" y="192" type="line"/>
      <point x="1280" y="793" type="line" smooth="yes"/>
      <point x="1280" y="1052"/>
      <point x="1123" y="1166"/>
      <point x="914" y="1166" type="curve" smooth="yes"/>
      <point x="623" y="1166"/>
      <point x="545" y="1001"/>
      <point x="545" y="745" type="curve"/>
      <point x="608" y="747" type="line"/>
      <point x="608" y="878"/>
      <point x="677" y="924"/>
      <point x="756" y="924" type="curve" smooth="yes"/>
      <point x="831" y="924"/>
      <point x="880" y="880"/>
      <point x="880" y="793" type="curve" smooth="yes"/>
      <point x="880" y="192" type="line"/>
      <point x="784" y="192" type="line"/>
    </contour>
    <contour>
      <point x="38" y="0" type="line"/>
      <point x="704" y="0" type="line"/>
      <point x="704" y="192" type="line"/>
      <point x="608" y="192" type="line"/>
      <point x="608" y="804" type="line"/>
      <point x="558" y="796" type="line"/>
      <point x="558" y="1140" type="line"/>
      <point x="54" y="1140" type="line"/>
      <point x="54" y="948" type="line"/>
      <point x="208" y="948" type="line"/>
      <point x="208" y="192" type="line"/>
      <point x="38" y="192" type="line"/>
    </contour>
    <contour>
      <point x="884" y="1228" type="curve" smooth="yes"/>
      <point x="1008" y="1228"/>
      <point x="1072" y="1309"/>
      <point x="1072" y="1454" type="curve" smooth="yes"/>
      <point x="1072" y="1550" type="line"/>
      <point x="914" y="1550" type="line"/>
      <point x="914" y="1514" type="line" smooth="yes"/>
      <point x="914" y="1464"/>
      <point x="896" y="1436"/>
      <point x="862" y="1436" type="curve" smooth="yes"/>
      <point x="832" y="1436"/>
      <point x="808" y="1449"/>
      <point x="778" y="1470" type="curve" smooth="yes"/>
      <point x="742" y="1495" type="line"/>
      <point x="654" y="1330" type="line"/>
      <point x="690" y="1305" type="line" smooth="yes"/>
      <point x="750" y="1263"/>
      <point x="805" y="1228"/>
    </contour>
    <contour>
      <point x="360" y="1346" type="curve" smooth="yes"/>
      <point x="360" y="1250" type="line"/>
      <point x="518" y="1250" type="line"/>
      <point x="518" y="1286" type="line" smooth="yes"/>
      <point x="518" y="1336"/>
      <point x="536" y="1364"/>
      <point x="570" y="1364" type="curve" smooth="yes"/>
      <point x="600" y="1364"/>
      <point x="624" y="1351"/>
      <point x="654" y="1330" type="curve" smooth="yes"/>
      <point x="690" y="1305" type="line"/>
      <point x="778" y="1470" type="line"/>
      <point x="742" y="1495" type="line" smooth="yes"/>
      <point x="682" y="1537"/>
      <point x="627" y="1572"/>
      <point x="548" y="1572" type="curve" smooth="yes"/>
      <point x="424" y="1572"/>
      <point x="360" y="1491"/>
    </contour>
  </outline>
</glyph>
<glyph name="divide" format="2">
  <advance width="1266"/>
  <unicode hex="00F7"/>
  <outline>
    <contour>
      <point x="142" y="612" type="line"/>
      <point x="1124" y="612" type="line"/>
      <point x="1124" y="890" type="line"/>
      <point x="142" y="890" type="line"/>
    </contour>
    <contour>
      <point x="633" y="168" type="curve" smooth="yes"/>
      <point x="758" y="168"/>
      <point x="840" y="245"/>
      <point x="840" y="360" type="curve" smooth="yes"/>
      <point x="840" y="475"/>
      <point x="758" y="552"/>
      <point x="633" y="552" type="curve" smooth="yes"/>
      <point x="508" y="552"/>
      <point x="426" y="475"/>
      <point x="426" y="360" type="curve" smooth="yes"/>
      <point x="426" y="245"/>
      <point x="508" y="168"/>
    </contour>
    <contour>
      <point x="633" y="950" type="curve" smooth="yes"/>
      <point x="758" y="950"/>
      <point x="840" y="1027"/>
      <point x="840" y="1142" type="curve" smooth="yes"/>
      <point x="840" y="1257"/>
      <point x="758" y="1334"/>
      <point x="633" y="1334" type="curve" smooth="yes"/>
      <point x="508" y="1334"/>
      <point x="426" y="1257"/>
      <point x="426" y="1142" type="curve" smooth="yes"/>
      <point x="426" y="1027"/>
      <point x="508" y="950"/>
    </contour>
  </outline>
</glyph>
<glyph name="udieresis" format="2">
  <advance width="1425"/>
  <unicode hex="00FC"/>
  <anchor x="719" y="0" name="bottom"/>
  <anchor x="1184" y="0" name="ogonek"/>
  <anchor x="683" y="1574" name="top"/>
  <anchor x="1244" y="1140" name="topright"/>
  <outline>
    <contour>
      <point x="540" y="-26" type="curve" smooth="yes"/>
      <point x="829" y="-26"/>
      <point x="907" y="139"/>
      <point x="907" y="395" type="curve"/>
      <point x="844" y="393" type="line"/>
      <point x="844" y="262"/>
      <point x="773" y="216"/>
      <point x="692" y="216" type="curve" smooth="yes"/>
      <point x="615" y="216"/>
      <point x="564" y="260"/>
      <point x="564" y="347" type="curve" smooth="yes"/>
      <point x="564" y="1140" type="line"/>
      <point x="42" y="1140" type="line"/>
      <point x="42" y="948" type="line"/>
      <point x="164" y="948" type="line"/>
      <point x="164" y="357" type="line" smooth="yes"/>
      <point x="164" y="91"/>
      <point x="325" y="-26"/>
    </contour>
    <contour>
      <point x="894" y="0" type="line"/>
      <point x="1391" y="0" type="line"/>
      <point x="1391" y="192" type="line"/>
      <point x="1244" y="192" type="line"/>
      <point x="1244" y="1140" type="line"/>
      <point x="690" y="1140" type="line"/>
      <point x="690" y="948" type="line"/>
      <point x="844" y="948" type="line"/>
      <point x="844" y="336" type="line"/>
      <point x="894" y="344" type="line"/>
    </contour>
    <contour>
      <point x="912" y="1226" type="curve" smooth="yes"/>
      <point x="1025" y="1226"/>
      <point x="1101" y="1300"/>
      <point x="1101" y="1422" type="curve" smooth="yes"/>
      <point x="1101" y="1543"/>
      <point x="1025" y="1617"/>
      <point x="912" y="1617" type="curve" smooth="yes"/>
      <point x="799" y="1617"/>
      <point x="723" y="1543"/>
      <point x="723" y="1422" type="curve" smooth="yes"/>
      <point x="723" y="1300"/>
      <point x="799" y="1226"/>
    </contour>
    <contour>
      <point x="454" y="1226" type="curve" smooth="yes"/>
      <point x="567" y="1226"/>
      <point x="643" y="1300"/>
      <point x="643" y="1422" type="curve" smooth="yes"/>
      <point x="643" y="1543"/>
      <point x="567" y="1617"/>
      <point x="454" y="1617" type="curve" smooth="yes"/>
      <point x="341" y="1617"/>
      <point x="265" y="1543"/>
      <point x="265" y="1422" type="curve" smooth="yes"/>
      <point x="265" y="1300"/>
      <point x="341" y="1226"/>
    </contour>
  </outline>
</glyph>
<glyph name="thorn" format="2">
  <advance width="1436"/>
  <unicode hex="00FE"/>
  <outline>
    <contour>
      <point x="893" y="-20" type="curve" smooth="yes"/>
      <point x="1182" y="-20"/>
      <point x="1384" y="201"/>
      <point x="1384" y="570" type="curve" smooth="yes"/>
      <point x="1384" y="939"/>
      <point x="1182" y="1160"/>
      <point x="889" y="1160" type="curve" smooth="yes"/>
      <point x="568" y="1160"/>
      <point x="451" y="908"/>
      <point x="453" y="570" type="curve"/>
      <point x="475" y="570" type="line"/>
      <point x="475" y="221"/>
      <point x="568" y="-20"/>
    </contour>
    <contour>
      <point x="738" y="200" type="curve" smooth="yes"/>
      <point x="604" y="200"/>
      <point x="530" y="327"/>
      <point x="530" y="570" type="curve" smooth="yes"/>
      <point x="530" y="813"/>
      <point x="604" y="940"/>
      <point x="738" y="940" type="curve" smooth="yes"/>
      <point x="870" y="940"/>
      <point x="944" y="813"/>
      <point x="944" y="570" type="curve" smooth="yes"/>
      <point x="944" y="327"/>
      <point x="870" y="200"/>
    </contour>
    <contour>
      <point x="-10" y="-420" type="line"/>
      <point x="838" y="-420" type="line"/>
      <point x="838" y="-228" type="line"/>
      <point x="550" y="-228" type="line"/>
      <point x="550" y="334" type="line"/>
      <point x="495" y="581" type="line"/>
      <point x="550" y="836" type="line"/>
      <point x="550" y="1500" type="line"/>
      <point x="-4" y="1500" type="line"/>
      <point x="-4" y="1308" type="line"/>
      <point x="150" y="1308" type="line"/>
      <point x="150" y="-228" type="line"/>
      <point x="-10" y="-228" type="line"/>
    </contour>
  </outline>
</glyph>
<glyph name="ydieresis" format="2">
  <advance width="1315"/>
  <unicode hex="00FF"/>
  <anchor x="1000" y="0" name="bottom"/>
  <anchor x="744" y="1574" name="top"/>
  <outline>
    <contour>
      <point x="334" y="-268" type="curve"/>
      <point x="320" y="-440" type="line"/>
      <point x="575" y="-440"/>
      <point x="680" y="-279"/>
      <point x="781" y="-34" type="curve" smooth="yes"/>
      <point x="1186" y="948" type="line"/>
      <point x="1293" y="948" type="line"/>
      <point x="1293" y="1140" type="line"/>
      <point x="800" y="1140" type="line"/>
      <point x="800" y="948" type="line"/>
      <point x="963" y="948" type="line"/>
      <point x="693" y="272" type="line"/>
      <point x="646" y="216" type="line"/>
      <point x="498" y="-145" type="line" smooth="yes"/>
      <point x="464" y="-229"/>
      <point x="414" y="-268"/>
    </contour>
    <contour>
      <point x="320" y="-440" type="curve"/>
      <point x="334" y="-268" type="line"/>
      <point x="261" y="-268"/>
      <point x="216" y="-237"/>
      <point x="189" y="-203" type="curve"/>
      <point x="176" y="-264" type="line"/>
      <point x="312" y="-264"/>
      <point x="373" y="-219"/>
      <point x="373" y="-129" type="curve" smooth="yes"/>
      <point x="373" y="-42"/>
      <point x="298" y="0"/>
      <point x="202" y="0" type="curve" smooth="yes"/>
      <point x="62" y="0"/>
      <point x="-16" y="-84"/>
      <point x="-16" y="-192" type="curve" smooth="yes"/>
      <point x="-16" y="-342"/>
      <point x="116" y="-440"/>
    </contour>
    <contour>
      <point x="611" y="-221" type="line"/>
      <point x="800" y="270" type="line"/>
      <point x="552" y="948" type="line"/>
      <point x="720" y="948" type="line"/>
      <point x="720" y="1140" type="line"/>
      <point x="22" y="1140" type="line"/>
      <point x="22" y="948" type="line"/>
      <point x="129" y="948" type="line"/>
    </contour>
    <contour>
      <point x="973" y="1226" type="curve" smooth="yes"/>
      <point x="1086" y="1226"/>
      <point x="1162" y="1300"/>
      <point x="1162" y="1422" type="curve" smooth="yes"/>
      <point x="1162" y="1543"/>
      <point x="1086" y="1617"/>
      <point x="973" y="1617" type="curve" smooth="yes"/>
      <point x="860" y="1617"/>
      <point x="784" y="1543"/>
      <point x="784" y="1422" type="curve" smooth="yes"/>
      <point x="784" y="1300"/>
      <point x="860" y="1226"/>
    </contour>
    <contour>
      <point x="515" y="1226" type="curve" smooth="yes"/>
      <point x="628" y="1226"/>
      <point x="704" y="1300"/>
      <point x="704" y="1422" type="curve" smooth="yes"/>
      <point x="704" y="1543"/>
      <point x="628" y="1617"/>
      <point x="515" y="1617" type="curve" smooth="yes"/>
      <point x="402" y="1617"/>
      <point x="326" y="1543"/>
      <point x="326" y="1422" type="curve" smooth="yes"/>
      <point x="326" y="1300"/>
      <point x="402" y="1226"/>
    </contour>
  </outline>
</glyph>
<glyph name="Amacron" format="2">
  <advance width="1805"/>
  <unicode hex="0100"/>
  <anchor x="903" y="0" name="bottom"/>
  <anchor x="1619" y="0" name="ogonek"/>
  <anchor x="903" y="1500" name="top"/>
  <outline>
    <contour>
      <point x="46" y="0" type="line"/>
      <point x="656" y="0" type="line"/>
      <point x="656" y="196" type="line"/>
      <point x="433" y="196" type="line"/>
      <point x="870" y="1275" type="line"/>
      <point x="731" y="1276" type="line"/>
      <point x="1159" y="196" type="line"/>
      <point x="936" y="196" type="line"/>
      <point x="936" y="0" type="line"/>
      <point x="1759" y="0" type="line"/>
      <point x="1759" y="196" type="line"/>
      <point x="1613" y="196" type="line"/>
      <point x="1077" y="1506" type="line"/>
      <point x="728" y="1506" type="line"/>
      <point x="192" y="196" type="line"/>
      <point x="46" y="196" type="line"/>
    </contour>
    <contour>
      <point x="457" y="433" type="line"/>
      <point x="1155" y="433" type="line"/>
      <point x="1155" y="633" type="line"/>
      <point x="457" y="633" type="line"/>
    </contour>
    <contour>
      <point x="533" y="1630" type="line"/>
      <point x="1273" y="1630" type="line"/>
      <point x="1273" y="1830" type="line"/>
      <point x="533" y="1830" type="line"/>
    </contour>
  </outline>
</glyph>
<glyph name="Abreve" format="2">
  <advance width="1805"/>
  <unicode hex="0102"/>
  <anchor x="903" y="0" name="bottom"/>
  <anchor x="1619" y="0" name="ogonek"/>
  <anchor x="903" y="1860" name="side"/>
  <anchor x="903" y="1890" name="top"/>
  <outline>
    <contour>
      <point x="46" y="0" type="line"/>
      <point x="656" y="0" type="line"/>
      <point x="656" y="196" type="line"/>
      <point x="433" y="196" type="line"/>
      <point x="870" y="1275" type="line"/>
      <point x="731" y="1276" type="line"/>
      <point x="1159" y="196" type="line"/>
      <point x="936" y="196" type="line"/>
      <point x="936" y="0" type="line"/>
      <point x="1759" y="0" type="line"/>
      <point x="1759" y="196" type="line"/>
      <point x="1613" y="196" type="line"/>
      <point x="1077" y="1506" type="line"/>
      <point x="728" y="1506" type="line"/>
      <point x="192" y="196" type="line"/>
      <point x="46" y="196" type="line"/>
    </contour>
    <contour>
      <point x="457" y="433" type="line"/>
      <point x="1155" y="433" type="line"/>
      <point x="1155" y="633" type="line"/>
      <point x="457" y="633" type="line"/>
    </contour>
    <contour>
      <point x="903" y="1580" type="curve" smooth="yes"/>
      <point x="1142" y="1580"/>
      <point x="1277" y="1724"/>
      <point x="1277" y="1910" type="curve"/>
      <point x="1103" y="1910" type="line"/>
      <point x="1091" y="1852"/>
      <point x="1034" y="1788"/>
      <point x="903" y="1788" type="curve" smooth="yes"/>
      <point x="772" y="1788"/>
      <point x="715" y="1852"/>
      <point x="703" y="1910" type="curve"/>
      <point x="529" y="1910" type="line"/>
      <point x="529" y="1724"/>
      <point x="664" y="1580"/>
    </contour>
  </outline>
</glyph>
<glyph name="Aogonek" format="2">
  <advance width="1805"/>
  <unicode hex="0104"/>
  <anchor x="903" y="0" name="bottom"/>
  <anchor x="1619" y="0" name="ogonek"/>
  <anchor x="903" y="1500" name="top"/>
  <outline>
    <contour>
      <point x="46" y="0" type="line"/>
      <point x="656" y="0" type="line"/>
      <point x="656" y="196" type="line"/>
      <point x="433" y="196" type="line"/>
      <point x="870" y="1275" type="line"/>
      <point x="731" y="1276" type="line"/>
      <point x="1159" y="196" type="line"/>
      <point x="936" y="196" type="line"/>
      <point x="936" y="0" type="line"/>
      <point x="1759" y="0" type="line"/>
      <point x="1759" y="196" type="line"/>
      <point x="1613" y="196" type="line"/>
      <point x="1077" y="1506" type="line"/>
      <point x="728" y="1506" type="line"/>
      <point x="192" y="196" type="line"/>
      <point x="46" y="196" type="line"/>
    </contour>
    <contour>
      <point x="457" y="433" type="line"/>
      <point x="1155" y="433" type="line"/>
      <point x="1155" y="633" type="line"/>
      <point x="457" y="633" type="line"/>
    </contour>
    <contour>
      <point x="1444" y="-440" type="curve" smooth="yes"/>
      <point x="1530" y="-440"/>
      <point x="1598" y="-417"/>
      <point x="1640" y="-390" type="curve"/>
      <point x="1588" y="-271" type="line"/>
      <point x="1567" y="-281"/>
      <point x="1550" y="-287"/>
      <point x="1523" y="-287" type="curve" smooth="yes"/>
      <point x="1470" y="-287"/>
      <point x="1431" y="-256"/>
      <point x="1431" y="-198" type="curve" smooth="yes"/>
      <point x="1431" y="-119"/>
      <point x="1482" y="-55"/>
      <point x="1539" y="10" type="curve"/>
      <point x="1438" y="106" type="line"/>
      <point x="1312" y="20"/>
      <point x="1189" y="-89"/>
      <point x="1189" y="-228" type="curve" smooth="yes"/>
      <point x="1189" y="-360"/>
      <point x="1301" y="-440"/>
    </contour>
  </outline>
</glyph>
<glyph name="cacute" format="2">
  <advance width="1232"/>
  <unicode hex="0107"/>
  <anchor x="614" y="0" name="bottom"/>
  <anchor x="644" y="1140" name="top"/>
  <outline>
    <contour>
      <point x="643" y="-30" type="curve" smooth="yes"/>
      <point x="983" y="-30"/>
      <point x="1163" y="183"/>
      <point x="1170" y="489" type="curve"/>
      <point x="994" y="489" type="line"/>
      <point x="975" y="369"/>
      <point x="889" y="268"/>
      <point x="736" y="268" type="curve" smooth="yes"/>
      <point x="550" y="268"/>
      <point x="445" y="419"/>
      <point x="445" y="629" type="curve" smooth="yes"/>
      <point x="445" y="838"/>
      <point x="540" y="1001"/>
      <point x="730" y="1001" type="curve"/>
      <point x="661" y="1166" type="line"/>
      <point x="306" y="1166"/>
      <point x="52" y="955"/>
      <point x="52" y="571" type="curve" smooth="yes"/>
      <point x="52" y="183"/>
      <point x="298" y="-30"/>
    </contour>
    <contour>
      <point x="935" y="619" type="curve" smooth="yes"/>
      <point x="1072" y="619"/>
      <point x="1160" y="700"/>
      <point x="1160" y="824" type="curve" smooth="yes"/>
      <point x="1160" y="1008"/>
      <point x="950" y="1166"/>
      <point x="661" y="1166" type="curve"/>
      <point x="730" y="1001" type="line"/>
      <point x="848" y="1001"/>
      <point x="925" y="943"/>
      <point x="970" y="866" type="curve"/>
      <point x="941" y="958" type="line"/>
      <point x="810" y="958"/>
      <point x="725" y="898"/>
      <point x="725" y="792" type="curve" smooth="yes"/>
      <point x="725" y="692"/>
      <point x="809" y="619"/>
    </contour>
    <contour>
      <point x="491" y="1250" type="line"/>
      <point x="729" y="1250" type="line"/>
      <point x="1029" y="1550" type="line"/>
      <point x="621" y="1550" type="line"/>
    </contour>
  </outline>
</glyph>
<glyph name="Cdotaccent" format="2">
  <advance width="1631"/>
  <unicode hex="010A"/>
  <anchor x="816" y="0" name="bottom"/>
  <anchor x="835" y="1946" name="top"/>
  <outline>
    <contour>
      <point x="863" y="-32" type="curve" smooth="yes"/>
      <point x="1324" y="-32"/>
      <point x="1525" y="274"/>
      <point x="1537" y="663" type="curve"/>
      <point x="1349" y="663" type="line"/>
      <point x="1322" y="432"/>
      <point x="1204" y="252"/>
      <point x="951" y="252" type="curve" smooth="yes"/>
      <point x="696" y="252"/>
      <point x="534" y="462"/>
      <point x="534" y="772" type="curve" smooth="yes"/>
      <point x="534" y="1094"/>
      <point x="693" y="1308"/>
      <point x="951" y="1308" type="curve" smooth="yes"/>
      <point x="1209" y="1308"/>
      <point x="1318" y="1124"/>
      <point x="1331" y="915" type="curve"/>
      <point x="1412" y="915" type="line"/>
      <point x="1408" y="1303"/>
      <point x="1208" y="1532"/>
      <point x="805" y="1532" type="curve" smooth="yes"/>
      <point x="394" y="1532"/>
      <point x="74" y="1244"/>
      <point x="74" y="750" type="curve" smooth="yes"/>
      <point x="74" y="256"/>
      <point x="399" y="-32"/>
    </contour>
    <contour>
      <point x="1412" y="915" type="line"/>
      <point x="1525" y="915" type="line"/>
      <point x="1525" y="1500" type="line"/>
      <point x="1309" y="1500" type="line"/>
      <point x="1309" y="1164" type="line"/>
    </contour>
    <contour>
      <point x="835" y="1584" type="curve" smooth="yes"/>
      <point x="964" y="1584"/>
      <point x="1051" y="1667"/>
      <point x="1051" y="1798" type="curve" smooth="yes"/>
      <point x="1051" y="1928"/>
      <point x="964" y="2012"/>
      <point x="835" y="2012" type="curve" smooth="yes"/>
      <point x="706" y="2012"/>
      <point x="619" y="1928"/>
      <point x="619" y="1798" type="curve" smooth="yes"/>
      <point x="619" y="1667"/>
      <point x="706" y="1584"/>
    </contour>
  </outline>
</glyph>
<glyph name="cdotaccent" format="2">
  <advance width="1232"/>
  <unicode hex="010B"/>
  <anchor x="614" y="0" name="bottom"/>
  <anchor x="644" y="1586" name="top"/>
  <outline>
    <contour>
      <point x="643" y="-30" type="curve" smooth="yes"/>
      <point x="983" y="-30"/>
      <point x="1163" y="183"/>
      <point x="1170" y="489" type="curve"/>
      <point x="994" y="489" type="line"/>
      <point x="975" y="369"/>
      <point x="889" y="268"/>
      <point x="736" y="268" type="curve" smooth="yes"/>
      <point x="550" y="268"/>
      <point x="445" y="419"/>
      <point x="445" y="629" type="curve" smooth="yes"/>
      <point x="445" y="838"/>
      <point x="540" y="1001"/>
      <point x="730" y="1001" type="curve"/>
      <point x="661" y="1166" type="line"/>
      <point x="306" y="1166"/>
      <point x="52" y="955"/>
      <point x="52" y="571" type="curve" smooth="yes"/>
      <point x="52" y="183"/>
      <point x="298" y="-30"/>
    </contour>
    <contour>
      <point x="935" y="619" type="curve" smooth="yes"/>
      <point x="1072" y="619"/>
      <point x="1160" y="700"/>
      <point x="1160" y="824" type="curve" smooth="yes"/>
      <point x="1160" y="1008"/>
      <point x="950" y="1166"/>
      <point x="661" y="1166" type="curve"/>
      <point x="730" y="1001" type="line"/>
      <point x="848" y="1001"/>
      <point x="925" y="943"/>
      <point x="970" y="866" type="curve"/>
      <point x="941" y="958" type="line"/>
      <point x="810" y="958"/>
      <point x="725" y="898"/>
      <point x="725" y="792" type="curve" smooth="yes"/>
      <point x="725" y="692"/>
      <point x="809" y="619"/>
    </contour>
    <contour>
      <point x="644" y="1224" type="curve" smooth="yes"/>
      <point x="773" y="1224"/>
      <point x="860" y="1307"/>
      <point x="860" y="1438" type="curve" smooth="yes"/>
      <point x="860" y="1568"/>
      <point x="773" y="1652"/>
      <point x="644" y="1652" type="curve" smooth="yes"/>
      <point x="515" y="1652"/>
      <point x="428" y="1568"/>
      <point x="428" y="1438" type="curve" smooth="yes"/>
      <point x="428" y="1307"/>
      <point x="515" y="1224"/>
    </contour>
  </outline>
</glyph>
<glyph name="Ccaron" format="2">
  <advance width="1631"/>
  <unicode hex="010C"/>
  <anchor x="816" y="0" name="bottom"/>
  <anchor x="835" y="1500" name="top"/>
  <outline>
    <contour>
      <point x="863" y="-32" type="curve" smooth="yes"/>
      <point x="1324" y="-32"/>
      <point x="1525" y="274"/>
      <point x="1537" y="663" type="curve"/>
      <point x="1349" y="663" type="line"/>
      <point x="1322" y="432"/>
      <point x="1204" y="252"/>
      <point x="951" y="252" type="curve" smooth="yes"/>
      <point x="696" y="252"/>
      <point x="534" y="462"/>
      <point x="534" y="772" type="curve" smooth="yes"/>
      <point x="534" y="1094"/>
      <point x="693" y="1308"/>
      <point x="951" y="1308" type="curve" smooth="yes"/>
      <point x="1209" y="1308"/>
      <point x="1318" y="1124"/>
      <point x="1331" y="915" type="curve"/>
      <point x="1412" y="915" type="line"/>
      <point x="1408" y="1303"/>
      <point x="1208" y="1532"/>
      <point x="805" y="1532" type="curve" smooth="yes"/>
      <point x="394" y="1532"/>
      <point x="74" y="1244"/>
      <point x="74" y="750" type="curve" smooth="yes"/>
      <point x="74" y="256"/>
      <point x="399" y="-32"/>
    </contour>
    <contour>
      <point x="1412" y="915" type="line"/>
      <point x="1525" y="915" type="line"/>
      <point x="1525" y="1500" type="line"/>
      <point x="1309" y="1500" type="line"/>
      <point x="1309" y="1164" type="line"/>
    </contour>
    <contour>
      <point x="632" y="1610" type="line"/>
      <point x="1038" y="1610" type="line"/>
      <point x="1224" y="1910" type="line"/>
      <point x="1024" y="1910" type="line"/>
      <point x="780" y="1697" type="line"/>
      <point x="950" y="1697" type="line"/>
      <point x="710" y="1910" type="line"/>
      <point x="446" y="1910" type="line"/>
    </contour>
  </outline>
</glyph>
<glyph name="dcaron" format="2">
  <advance width="1686"/>
  <unicode hex="010F"/>
  <anchor x="728" y="0" name="bottom"/>
  <anchor x="728" y="570" name="center"/>
  <anchor x="728" y="1500" name="top"/>
  <anchor x="1280" y="1500" name="topright"/>
  <outline>
    <contour>
      <point x="541" y="-22" type="curve" smooth="yes"/>
      <point x="862" y="-22"/>
      <point x="979" y="230"/>
      <point x="977" y="570" type="curve"/>
      <point x="955" y="570" type="line"/>
      <point x="955" y="920"/>
      <point x="862" y="1162"/>
      <point x="537" y="1162" type="curve" smooth="yes"/>
      <point x="248" y="1162"/>
      <point x="52" y="960"/>
      <point x="52" y="570" type="curve" smooth="yes"/>
      <point x="52" y="180"/>
      <point x="248" y="-22"/>
    </contour>
    <contour>
      <point x="692" y="198" type="curve" smooth="yes"/>
      <point x="560" y="198"/>
      <point x="486" y="326"/>
      <point x="486" y="570" type="curve" smooth="yes"/>
      <point x="486" y="814"/>
      <point x="560" y="942"/>
      <point x="692" y="942" type="curve" smooth="yes"/>
      <point x="826" y="942"/>
      <point x="900" y="814"/>
      <point x="900" y="570" type="curve" smooth="yes"/>
      <point x="900" y="326"/>
      <point x="826" y="198"/>
    </contour>
    <contour>
      <point x="910" y="0" type="line"/>
      <point x="1427" y="0" type="line"/>
      <point x="1427" y="192" type="line"/>
      <point x="1280" y="192" type="line"/>
      <point x="1280" y="1500" type="line"/>
      <point x="726" y="1500" type="line"/>
      <point x="726" y="1308" type="line"/>
      <point x="880" y="1308" type="line"/>
      <point x="880" y="838" type="line"/>
      <point x="942" y="581" type="line"/>
      <point x="910" y="280" type="line"/>
    </contour>
    <contour>
      <point x="1390" y="1050" type="line"/>
      <point x="1570" y="1050" type="line"/>
      <point x="1732" y="1500" type="line"/>
      <point x="1404" y="1500" type="line"/>
    </contour>
  </outline>
</glyph>
<glyph name="dcroat" format="2">
  <advance width="1475"/>
  <unicode hex="0111"/>
  <anchor x="792" y="0" name="bottom"/>
  <outline>
    <contour>
      <point x="555" y="-20" type="curve" smooth="yes"/>
      <point x="876" y="-20"/>
      <point x="993" y="228"/>
      <point x="991" y="560" type="curve"/>
      <point x="969" y="560" type="line"/>
      <point x="969" y="903"/>
      <point x="876" y="1140"/>
      <point x="551" y="1140" type="curve" smooth="yes"/>
      <point x="262" y="1140"/>
      <point x="66" y="923"/>
      <point x="66" y="560" type="curve" smooth="yes"/>
      <point x="66" y="197"/>
      <point x="262" y="-20"/>
    </contour>
    <contour>
      <point x="706" y="200" type="curve" smooth="yes"/>
      <point x="574" y="200"/>
      <point x="500" y="324"/>
      <point x="500" y="560" type="curve" smooth="yes"/>
      <point x="500" y="796"/>
      <point x="574" y="920"/>
      <point x="706" y="920" type="curve" smooth="yes"/>
      <point x="840" y="920"/>
      <point x="914" y="796"/>
      <point x="914" y="560" type="curve" smooth="yes"/>
      <point x="914" y="324"/>
      <point x="840" y="200"/>
    </contour>
    <contour>
      <point x="924" y="0" type="line"/>
      <point x="1441" y="0" type="line"/>
      <point x="1441" y="192" type="line"/>
      <point x="1294" y="192" type="line"/>
      <point x="1294" y="1500" type="line"/>
      <point x="894" y="1500" type="line"/>
      <point x="894" y="838" type="line"/>
      <point x="956" y="581" type="line"/>
      <point x="924" y="280" type="line"/>
    </contour>
    <contour>
      <point x="634" y="1212" type="line"/>
      <point x="1441" y="1212" type="line"/>
      <point x="1441" y="1390" type="line"/>
      <point x="634" y="1390" type="line"/>
    </contour>
  </outline>
</glyph>
<glyph name="Eogonek" format="2">
  <advance width="1558"/>
  <unicode hex="0118"/>
  <anchor x="760" y="0" name="bottom"/>
  <anchor x="1430" y="0" name="ogonek"/>
  <anchor x="788" y="1500" name="top"/>
  <outline>
    <contour>
      <point x="54" y="0" type="line"/>
      <point x="650" y="0" type="line"/>
      <point x="650" y="1500" type="line"/>
      <point x="57" y="1500" type="line"/>
      <point x="57" y="1304" type="line"/>
      <point x="230" y="1304" type="line"/>
      <point x="230" y="196" type="line"/>
      <point x="54" y="196" type="line"/>
    </contour>
    <contour>
      <point x="650" y="0" type="line"/>
      <point x="1430" y="0" type="line"/>
      <point x="1430" y="204" type="line"/>
      <point x="650" y="204" type="line"/>
    </contour>
    <contour>
      <point x="885" y="442" type="curve" smooth="yes"/>
      <point x="885" y="332" type="line"/>
      <point x="1077" y="332" type="line"/>
      <point x="1077" y="672" type="line"/>
      <point x="675" y="672" type="line" smooth="yes"/>
      <point x="825" y="672"/>
      <point x="885" y="602"/>
    </contour>
    <contour>
      <point x="650" y="672" type="line"/>
      <point x="1077" y="672" type="line"/>
      <point x="1077" y="872" type="line"/>
      <point x="650" y="872" type="line"/>
    </contour>
    <contour>
      <point x="1012" y="204" type="curve" smooth="yes"/>
      <point x="1430" y="204" type="line"/>
      <point x="1430" y="580" type="line"/>
      <point x="1232" y="580" type="line"/>
      <point x="1232" y="444" type="line" smooth="yes"/>
      <point x="1232" y="274"/>
      <point x="1172" y="204"/>
    </contour>
    <contour>
      <point x="675" y="872" type="curve" smooth="yes"/>
      <point x="1077" y="872" type="line"/>
      <point x="1077" y="1176" type="line"/>
      <point x="885" y="1176" type="line"/>
      <point x="885" y="1102" type="line" smooth="yes"/>
      <point x="885" y="942"/>
      <point x="825" y="872"/>
    </contour>
    <contour>
      <point x="650" y="1300" type="line"/>
      <point x="1416" y="1300" type="line"/>
      <point x="1416" y="1500" type="line"/>
      <point x="650" y="1500" type="line"/>
    </contour>
    <contour>
      <point x="1218" y="1060" type="curve" smooth="yes"/>
      <point x="1218" y="940" type="line"/>
      <point x="1416" y="940" type="line"/>
      <point x="1416" y="1300" type="line"/>
      <point x="998" y="1300" type="line" smooth="yes"/>
      <point x="1158" y="1300"/>
      <point x="1218" y="1230"/>
    </contour>
    <contour>
      <point x="1255" y="-440" type="curve" smooth="yes"/>
      <point x="1341" y="-440"/>
      <point x="1409" y="-417"/>
      <point x="1451" y="-390" type="curve"/>
      <point x="1399" y="-271" type="line"/>
      <point x="1378" y="-281"/>
      <point x="1361" y="-287"/>
      <point x="1334" y="-287" type="curve" smooth="yes"/>
      <point x="1281" y="-287"/>
      <point x="1242" y="-256"/>
      <point x="1242" y="-198" type="curve" smooth="yes"/>
      <point x="1242" y="-119"/>
      <point x="1293" y="-55"/>
      <point x="1350" y="10" type="curve"/>
      <point x="1249" y="106" type="line"/>
      <point x="1123" y="20"/>
      <point x="1000" y="-89"/>
      <point x="1000" y="-228" type="curve" smooth="yes"/>
      <point x="1000" y="-360"/>
      <point x="1112" y="-440"/>
    </contour>
  </outline>
</glyph>
<glyph name="eogonek" format="2">
  <advance width="1262"/>
  <unicode hex="0119"/>
  <anchor x="632" y="0" name="bottom"/>
  <anchor x="937" y="0" name="ogonek"/>
  <anchor x="632" y="1140" name="top"/>
  <outline>
    <contour>
      <point x="645" y="-26" type="curve" smooth="yes"/>
      <point x="1009" y="-26"/>
      <point x="1196" y="210"/>
      <point x="1198" y="490" type="curve"/>
      <point x="1022" y="490" type="line"/>
      <point x="1003" y="362"/>
      <point x="919" y="249"/>
      <point x="751" y="249" type="curve" smooth="yes"/>
      <point x="556" y="249"/>
      <point x="450" y="387"/>
      <point x="450" y="608" type="curve" smooth="yes"/>
      <point x="450" y="903"/>
      <point x="529" y="992"/>
      <point x="647" y="992" type="curve"/>
      <point x="649" y="1166" type="line"/>
      <point x="303" y="1166"/>
      <point x="52" y="944"/>
      <point x="52" y="570" type="curve" smooth="yes"/>
      <point x="52" y="195"/>
      <point x="297" y="-26"/>
    </contour>
    <contour>
      <point x="250" y="570" type="line"/>
      <point x="1202" y="570" type="line"/>
      <point x="1202" y="631" type="line"/>
      <point x="798" y="748" type="line"/>
      <point x="250" y="748" type="line"/>
    </contour>
    <contour>
      <point x="798" y="748" type="curve"/>
      <point x="1202" y="631" type="line"/>
      <point x="1202" y="941"/>
      <point x="1008" y="1166"/>
      <point x="649" y="1166" type="curve"/>
      <point x="647" y="992" type="line"/>
      <point x="743" y="992"/>
      <point x="796" y="899"/>
    </contour>
    <contour>
      <point x="762" y="-440" type="curve" smooth="yes"/>
      <point x="848" y="-440"/>
      <point x="916" y="-417"/>
      <point x="958" y="-390" type="curve"/>
      <point x="906" y="-271" type="line"/>
      <point x="885" y="-281"/>
      <point x="868" y="-287"/>
      <point x="841" y="-287" type="curve" smooth="yes"/>
      <point x="788" y="-287"/>
      <point x="749" y="-256"/>
      <point x="749" y="-198" type="curve" smooth="yes"/>
      <point x="749" y="-119"/>
      <point x="800" y="-55"/>
      <point x="857" y="10" type="curve"/>
      <point x="756" y="106" type="line"/>
      <point x="630" y="20"/>
      <point x="507" y="-89"/>
      <point x="507" y="-228" type="curve" smooth="yes"/>
      <point x="507" y="-360"/>
      <point x="619" y="-440"/>
    </contour>
  </outline>
</glyph>
<glyph name="Gcircumflex" format="2">
  <advance width="1772"/>
  <unicode hex="011C"/>
  <anchor x="875" y="0" name="bottom"/>
  <anchor x="1296" y="1680" name="side"/>
  <anchor x="847" y="1890" name="top"/>
  <outline>
    <contour>
      <point x="833" y="-32" type="curve" smooth="yes"/>
      <point x="1276" y="-32"/>
      <point x="1429" y="238"/>
      <point x="1435" y="589" type="curve"/>
      <point x="1358" y="589" type="line"/>
      <point x="1342" y="371"/>
      <point x="1219" y="202"/>
      <point x="963" y="202" type="curve" smooth="yes"/>
      <point x="700" y="202"/>
      <point x="542" y="416"/>
      <point x="542" y="750" type="curve" smooth="yes"/>
      <point x="542" y="1090"/>
      <point x="697" y="1308"/>
      <point x="953" y="1308" type="curve" smooth="yes"/>
      <point x="1194" y="1308"/>
      <point x="1292" y="1133"/>
      <point x="1305" y="935" type="curve"/>
      <point x="1386" y="935" type="line"/>
      <point x="1382" y="1307"/>
      <point x="1212" y="1532"/>
      <point x="815" y="1532" type="curve" smooth="yes"/>
      <point x="401" y="1532"/>
      <point x="74" y="1244"/>
      <point x="74" y="750" type="curve" smooth="yes"/>
      <point x="74" y="256"/>
      <point x="401" y="-32"/>
    </contour>
    <contour>
      <point x="1350" y="0" type="line"/>
      <point x="1568" y="0" type="line"/>
      <point x="1568" y="589" type="line"/>
      <point x="1435" y="589" type="line"/>
      <point x="1350" y="367" type="line"/>
    </contour>
    <contour>
      <point x="915" y="589" type="line"/>
      <point x="1744" y="589" type="line"/>
      <point x="1744" y="795" type="line"/>
      <point x="915" y="795" type="line"/>
    </contour>
    <contour>
      <point x="1386" y="935" type="line"/>
      <point x="1509" y="935" type="line"/>
      <point x="1509" y="1500" type="line"/>
      <point x="1293" y="1500" type="line"/>
      <point x="1293" y="1164" type="line"/>
    </contour>
    <contour>
      <point x="458" y="1610" type="line"/>
      <point x="658" y="1610" type="line"/>
      <point x="902" y="1823" type="line"/>
      <point x="732" y="1823" type="line"/>
      <point x="972" y="1610" type="line"/>
      <point x="1236" y="1610" type="line"/>
      <point x="1050" y="1910" type="line"/>
      <point x="644" y="1910" type="line"/>
    </contour>
  </outline>
</glyph>
<glyph name="gbreve" format="2">
  <advance width="1380"/>
  <unicode hex="011F"/>
  <anchor x="690" y="-440" name="bottom"/>
  <anchor x="690" y="1500" name="side"/>
  <anchor x="690" y="1530" name="top"/>
  <outline>
    <contour>
      <point x="504" y="-420" type="curve" smooth="yes"/>
      <point x="831" y="-420" type="line" smooth="yes"/>
      <point x="1167" y="-420"/>
      <point x="1340" y="-267"/>
      <point x="1340" y="-14" type="curve" smooth="yes"/>
      <point x="1340" y="164"/>
      <point x="1206" y="282"/>
      <point x="961" y="282" type="curve" smooth="yes"/>
      <point x="439" y="282" type="line" smooth="yes"/>
      <point x="370" y="282"/>
      <point x="329" y="308"/>
      <point x="329" y="366" type="curve" smooth="yes"/>
      <point x="329" y="424"/>
      <point x="370" y="450"/>
      <point x="439" y="450" type="curve"/>
      <point x="421" y="524" type="line"/>
      <point x="197" y="526"/>
      <point x="48" y="416"/>
      <point x="48" y="234" type="curve" smooth="yes"/>
      <point x="48" y="65"/>
      <point x="197" y="-48"/>
      <point x="421" y="-48" type="curve" smooth="yes"/>
      <point x="865" y="-48" type="line" smooth="yes"/>
      <point x="940" y="-48"/>
      <point x="989" y="-73"/>
      <point x="989" y="-133" type="curve" smooth="yes"/>
      <point x="989" y="-199"/>
      <point x="936" y="-242"/>
      <point x="833" y="-242" type="curve" smooth="yes"/>
      <point x="579" y="-242" type="line" smooth="yes"/>
      <point x="477" y="-242"/>
      <point x="421" y="-206"/>
      <point x="421" y="-126" type="curve" smooth="yes"/>
      <point x="421" y="-87"/>
      <point x="443" y="-55"/>
      <point x="478" y="-27" type="curve"/>
      <point x="462" y="-1" type="line"/>
      <point x="279" y="-1"/>
      <point x="134" y="-63"/>
      <point x="134" y="-206" type="curve" smooth="yes"/>
      <point x="134" y="-357"/>
      <point x="277" y="-420"/>
    </contour>
    <contour>
      <point x="684" y="390" type="curve" smooth="yes"/>
      <point x="1013" y="390"/>
      <point x="1200" y="528"/>
      <point x="1200" y="734" type="curve" smooth="yes"/>
      <point x="1200" y="854"/>
      <point x="1123" y="924"/>
      <point x="1052" y="954" type="curve"/>
      <point x="684" y="1150" type="line"/>
      <point x="349" y="1150"/>
      <point x="138" y="1012"/>
      <point x="138" y="770" type="curve" smooth="yes"/>
      <point x="138" y="528"/>
      <point x="349" y="390"/>
    </contour>
    <contour>
      <point x="684" y="556" type="curve" smooth="yes"/>
      <point x="596" y="556"/>
      <point x="546" y="643"/>
      <point x="546" y="770" type="curve" smooth="yes"/>
      <point x="546" y="893"/>
      <point x="596" y="984"/>
      <point x="684" y="984" type="curve" smooth="yes"/>
      <point x="772" y="984"/>
      <point x="822" y="893"/>
      <point x="822" y="770" type="curve" smooth="yes"/>
      <point x="822" y="643"/>
      <point x="772" y="556"/>
    </contour>
    <contour>
      <point x="1052" y="954" type="line"/>
      <point x="1328" y="954" type="line"/>
      <point x="1328" y="1150" type="line"/>
      <point x="684" y="1150" type="line"/>
    </contour>
    <contour>
      <point x="690" y="1220" type="curve" smooth="yes"/>
      <point x="929" y="1220"/>
      <point x="1064" y="1364"/>
      <point x="1064" y="1550" type="curve"/>
      <point x="890" y="1550" type="line"/>
      <point x="878" y="1492"/>
      <point x="821" y="1428"/>
      <point x="690" y="1428" type="curve" smooth="yes"/>
      <point x="559" y="1428"/>
      <point x="502" y="1492"/>
      <point x="490" y="1550" type="curve"/>
      <point x="316" y="1550" type="line"/>
      <point x="316" y="1364"/>
      <point x="451" y="1220"/>
    </contour>
  </outline>
</glyph>
<glyph name="Gdotaccent" format="2">
  <advance width="1772"/>
  <unicode hex="0120"/>
  <anchor x="875" y="0" name="bottom"/>
  <anchor x="847" y="1946" name="top"/>
  <outline>
    <contour>
      <point x="833" y="-32" type="curve" smooth="yes"/>
      <point x="1276" y="-32"/>
      <point x="1429" y="238"/>
      <point x="1435" y="589" type="curve"/>
      <point x="1358" y="589" type="line"/>
      <point x="1342" y="371"/>
      <point x="1219" y="202"/>
      <point x="963" y="202" type="curve" smooth="yes"/>
      <point x="700" y="202"/>
      <point x="542" y="416"/>
      <point x="542" y="750" type="curve" smooth="yes"/>
      <point x="542" y="1090"/>
      <point x="697" y="1308"/>
      <point x="953" y="1308" type="curve" smooth="yes"/>
      <point x="1194" y="1308"/>
      <point x="1292" y="1133"/>
      <point x="1305" y="935" type="curve"/>
      <point x="1386" y="935" type="line"/>
      <point x="1382" y="1307"/>
      <point x="1212" y="1532"/>
      <point x="815" y="1532" type="curve" smooth="yes"/>
      <point x="401" y="1532"/>
      <point x="74" y="1244"/>
      <point x="74" y="750" type="curve" smooth="yes"/>
      <point x="74" y="256"/>
      <point x="401" y="-32"/>
    </contour>
    <contour>
      <point x="1350" y="0" type="line"/>
      <point x="1568" y="0" type="line"/>
      <point x="1568" y="589" type="line"/>
      <point x="1435" y="589" type="line"/>
      <point x="1350" y="367" type="line"/>
    </contour>
    <contour>
      <point x="915" y="589" type="line"/>
      <point x="1744" y="589" type="line"/>
      <point x="1744" y="795" type="line"/>
      <point x="915" y="795" type="line"/>
    </contour>
    <contour>
      <point x="1386" y="935" type="line"/>
      <point x="1509" y="935" type="line"/>
      <point x="1509" y="1500" type="line"/>
      <point x="1293" y="1500" type="line"/>
      <point x="1293" y="1164" type="line"/>
    </contour>
    <contour>
      <point x="847" y="1584" type="curve" smooth="yes"/>
      <point x="976" y="1584"/>
      <point x="1063" y="1667"/>
      <point x="1063" y="1798" type="curve" smooth="yes"/>
      <point x="1063" y="1928"/>
      <point x="976" y="2012"/>
      <point x="847" y="2012" type="curve" smooth="yes"/>
      <point x="718" y="2012"/>
      <point x="631" y="1928"/>
      <point x="631" y="1798" type="curve" smooth="yes"/>
      <point x="631" y="1667"/>
      <point x="718" y="1584"/>
    </contour>
  </outline>
</glyph>
<glyph name="Gcommaaccent" format="2">
  <advance width="1772"/>
  <unicode hex="0122"/>
  <anchor x="875" y="0" name="bottom"/>
  <anchor x="847" y="1500" name="top"/>
  <outline>
    <contour>
      <point x="833" y="-32" type="curve" smooth="yes"/>
      <point x="1276" y="-32"/>
      <point x="1429" y="238"/>
      <point x="1435" y="589" type="curve"/>
      <point x="1358" y="589" type="line"/>
      <point x="1342" y="371"/>
      <point x="1219" y="202"/>
      <point x="963" y="202" type="curve" smooth="yes"/>
      <point x="700" y="202"/>
      <point x="542" y="416"/>
      <point x="542" y="750" type="curve" smooth="yes"/>
      <point x="542" y="1090"/>
      <point x="697" y="1308"/>
      <point x="953" y="1308" type="curve" smooth="yes"/>
      <point x="1194" y="1308"/>
      <point x="1292" y="1133"/>
      <point x="1305" y="935" type="curve"/>
      <point x="1386" y="935" type="line"/>
      <point x="1382" y="1307"/>
      <point x="1212" y="1532"/>
      <point x="815" y="1532" type="curve" smooth="yes"/>
      <point x="401" y="1532"/>
      <point x="74" y="1244"/>
      <point x="74" y="750" type="curve" smooth="yes"/>
      <point x="74" y="256"/>
      <point x="401" y="-32"/>
    </contour>
    <contour>
      <point x="1350" y="0" type="line"/>
      <point x="1568" y="0" type="line"/>
      <point x="1568" y="589" type="line"/>
      <point x="1435" y="589" type="line"/>
      <point x="1350" y="367" type="line"/>
    </contour>
    <contour>
      <point x="915" y="589" type="line"/>
      <point x="1744" y="589" type="line"/>
      <point x="1744" y="795" type="line"/>
      <point x="915" y="795" type="line"/>
    </contour>
    <contour>
      <point x="1386" y="935" type="line"/>
      <point x="1509" y="935" type="line"/>
      <point x="1509" y="1500" type="line"/>
      <point x="1293" y="1500" type="line"/>
      <point x="1293" y="1164" type="line"/>
    </contour>
    <contour>
      <point x="721" y="-687" type="curve"/>
      <point x="872" y="-687" type="line"/>
      <point x="973" y="-621"/>
      <point x="1103" y="-490"/>
      <point x="1103" y="-305" type="curve" smooth="yes"/>
      <point x="1103" y="-151"/>
      <point x="1003" y="-76"/>
      <point x="867" y="-76" type="curve" smooth="yes"/>
      <point x="731" y="-76"/>
      <point x="647" y="-150"/>
      <point x="647" y="-256" type="curve" smooth="yes"/>
      <point x="647" y="-379"/>
      <point x="747" y="-449"/>
      <point x="898" y="-433" type="curve"/>
      <point x="882" y="-513"/>
      <point x="815" y="-605"/>
    </contour>
  </outline>
</glyph>
<glyph name="hcircumflex" format="2">
  <advance width="1442"/>
  <unicode hex="0125"/>
  <anchor x="724" y="0" name="bottom"/>
  <anchor x="724" y="750" name="center"/>
  <anchor x="839" y="1680" name="side"/>
  <anchor x="390" y="1890" name="top"/>
  <outline>
    <contour>
      <point x="34" y="0" type="line"/>
      <point x="700" y="0" type="line"/>
      <point x="700" y="192" type="line"/>
      <point x="604" y="192" type="line"/>
      <point x="604" y="1500" type="line"/>
      <point x="50" y="1500" type="line"/>
      <point x="50" y="1308" type="line"/>
      <point x="204" y="1308" type="line"/>
      <point x="204" y="192" type="line"/>
      <point x="34" y="192" type="line"/>
    </contour>
    <contour>
      <point x="780" y="0" type="line"/>
      <point x="1398" y="0" type="line"/>
      <point x="1398" y="192" type="line"/>
      <point x="1276" y="192" type="line"/>
      <point x="1276" y="789" type="line" smooth="yes"/>
      <point x="1276" y="1048"/>
      <point x="1130" y="1162"/>
      <point x="924" y="1162" type="curve" smooth="yes"/>
      <point x="644" y="1162"/>
      <point x="575" y="997"/>
      <point x="575" y="741" type="curve"/>
      <point x="604" y="743" type="line"/>
      <point x="604" y="874"/>
      <point x="673" y="920"/>
      <point x="752" y="920" type="curve" smooth="yes"/>
      <point x="827" y="920"/>
      <point x="876" y="876"/>
      <point x="876" y="789" type="curve" smooth="yes"/>
      <point x="876" y="192" type="line"/>
      <point x="780" y="192" type="line"/>
    </contour>
    <contour>
      <point x="1" y="1610" type="line"/>
      <point x="201" y="1610" type="line"/>
      <point x="445" y="1823" type="line"/>
      <point x="275" y="1823" type="line"/>
      <point x="515" y="1610" type="line"/>
      <point x="779" y="1610" type="line"/>
      <point x="593" y="1910" type="line"/>
      <point x="187" y="1910" type="line"/>
    </contour>
  </outline>
</glyph>
<glyph name="Hbar" format="2">
  <advance width="1773"/>
  <unicode hex="0126"/>
  <anchor x="887" y="0" name="bottom"/>
  <anchor x="887" y="750" name="center"/>
  <anchor x="887" y="1500" name="top"/>
  <anchor x="26" y="1500" name="topleft"/>
  <outline>
    <contour>
      <point x="54" y="0" type="line"/>
      <point x="839" y="0" type="line"/>
      <point x="839" y="196" type="line"/>
      <point x="650" y="196" type="line"/>
      <point x="650" y="1304" type="line"/>
      <point x="839" y="1304" type="line"/>
      <point x="839" y="1500" type="line"/>
      <point x="57" y="1500" type="line"/>
      <point x="57" y="1304" type="line"/>
      <point x="230" y="1304" type="line"/>
      <point x="230" y="196" type="line"/>
      <point x="54" y="196" type="line"/>
    </contour>
    <contour>
      <point x="937" y="0" type="line"/>
      <point x="1719" y="0" type="line"/>
      <point x="1719" y="196" type="line"/>
      <point x="1546" y="196" type="line"/>
      <point x="1546" y="1304" type="line"/>
      <point x="1719" y="1304" type="line"/>
      <point x="1719" y="1500" type="line"/>
      <point x="937" y="1500" type="line"/>
      <point x="937" y="1304" type="line"/>
      <point x="1126" y="1304" type="line"/>
      <point x="1126" y="196" type="line"/>
      <point x="937" y="196" type="line"/>
    </contour>
    <contour>
      <point x="650" y="639" type="line"/>
      <point x="1126" y="639" type="line"/>
      <point x="1126" y="847" type="line"/>
      <point x="650" y="847" type="line"/>
    </contour>
    <contour>
      <point x="57" y="984" type="line"/>
      <point x="1717" y="984" type="line"/>
      <point x="1717" y="1162" type="line"/>
      <point x="57" y="1162" type="line"/>
    </contour>
  </outline>
</glyph>
<glyph name="hbar" format="2">
  <advance width="1442"/>
  <unicode hex="0127"/>
  <outline>
    <contour>
      <point x="34" y="0" type="line"/>
      <point x="700" y="0" type="line"/>
      <point x="700" y="192" type="line"/>
      <point x="604" y="192" type="line"/>
      <point x="604" y="1500" type="line"/>
      <point x="204" y="1500" type="line"/>
      <point x="204" y="192" type="line"/>
      <point x="34" y="192" type="line"/>
    </contour>
    <contour>
      <point x="780" y="0" type="line"/>
      <point x="1398" y="0" type="line"/>
      <point x="1398" y="192" type="line"/>
      <point x="1276" y="192" type="line"/>
      <point x="1276" y="765" type="line" smooth="yes"/>
      <point x="1276" y="1024"/>
      <point x="1130" y="1138"/>
      <point x="924" y="1138" type="curve" smooth="yes"/>
      <point x="644" y="1138"/>
      <point x="575" y="973"/>
      <point x="575" y="717" type="curve"/>
      <point x="604" y="719" type="line"/>
      <point x="604" y="850"/>
      <point x="673" y="896"/>
      <point x="752" y="896" type="curve" smooth="yes"/>
      <point x="827" y="896"/>
      <point x="876" y="852"/>
      <point x="876" y="765" type="curve" smooth="yes"/>
      <point x="876" y="192" type="line"/>
      <point x="780" y="192" type="line"/>
    </contour>
    <contour>
      <point x="54" y="1212" type="line"/>
      <point x="864" y="1212" type="line"/>
      <point x="864" y="1390" type="line"/>
      <point x="54" y="1390" type="line"/>
    </contour>
  </outline>
</glyph>
<glyph name="Itilde" format="2">
  <advance width="908"/>
  <unicode hex="0128"/>
  <anchor x="454" y="0" name="bottom"/>
  <anchor x="664" y="0" name="ogonek"/>
  <anchor x="454" y="1878" name="top"/>
  <anchor x="30" y="1500" name="topleft"/>
  <outline>
    <contour>
      <point x="52" y="0" type="line"/>
      <point x="856" y="0" type="line"/>
      <point x="856" y="196" type="line"/>
      <point x="664" y="196" type="line"/>
      <point x="664" y="1304" type="line"/>
      <point x="853" y="1304" type="line"/>
      <point x="853" y="1500" type="line"/>
      <point x="55" y="1500" type="line"/>
      <point x="55" y="1304" type="line"/>
      <point x="244" y="1304" type="line"/>
      <point x="244" y="196" type="line"/>
      <point x="52" y="196" type="line"/>
    </contour>
    <contour>
      <point x="622" y="1588" type="curve" smooth="yes"/>
      <point x="746" y="1588"/>
      <point x="810" y="1669"/>
      <point x="810" y="1814" type="curve" smooth="yes"/>
      <point x="810" y="1910" type="line"/>
      <point x="652" y="1910" type="line"/>
      <point x="652" y="1874" type="line" smooth="yes"/>
      <point x="652" y="1824"/>
      <point x="634" y="1796"/>
      <point x="600" y="1796" type="curve" smooth="yes"/>
      <point x="570" y="1796"/>
      <point x="546" y="1809"/>
      <point x="516" y="1830" type="curve" smooth="yes"/>
      <point x="480" y="1855" type="line"/>
      <point x="392" y="1690" type="line"/>
      <point x="428" y="1665" type="line" smooth="yes"/>
      <point x="488" y="1623"/>
      <point x="543" y="1588"/>
    </contour>
    <contour>
      <point x="98" y="1706" type="curve" smooth="yes"/>
      <point x="98" y="1610" type="line"/>
      <point x="256" y="1610" type="line"/>
      <point x="256" y="1646" type="line" smooth="yes"/>
      <point x="256" y="1696"/>
      <point x="274" y="1724"/>
      <point x="308" y="1724" type="curve" smooth="yes"/>
      <point x="338" y="1724"/>
      <point x="362" y="1711"/>
      <point x="392" y="1690" type="curve" smooth="yes"/>
      <point x="428" y="1665" type="line"/>
      <point x="516" y="1830" type="line"/>
      <point x="480" y="1855" type="line" smooth="yes"/>
      <point x="420" y="1897"/>
      <point x="365" y="1932"/>
      <point x="286" y="1932" type="curve" smooth="yes"/>
      <point x="162" y="1932"/>
      <point x="98" y="1851"/>
    </contour>
  </outline>
</glyph>
<glyph name="itilde" format="2">
  <advance width="789"/>
  <unicode hex="0129"/>
  <anchor x="394" y="0" name="bottom"/>
  <anchor x="608" y="0" name="ogonek"/>
  <anchor x="394" y="1518" name="top"/>
  <outline>
    <contour>
      <point x="38" y="0" type="line"/>
      <point x="755" y="0" type="line"/>
      <point x="755" y="192" type="line"/>
      <point x="608" y="192" type="line"/>
      <point x="608" y="1140" type="line"/>
      <point x="54" y="1140" type="line"/>
      <point x="54" y="948" type="line"/>
      <point x="208" y="948" type="line"/>
      <point x="208" y="192" type="line"/>
      <point x="38" y="192" type="line"/>
    </contour>
    <contour>
      <point x="562" y="1228" type="curve" smooth="yes"/>
      <point x="686" y="1228"/>
      <point x="750" y="1309"/>
      <point x="750" y="1454" type="curve" smooth="yes"/>
      <point x="750" y="1550" type="line"/>
      <point x="592" y="1550" type="line"/>
      <point x="592" y="1514" type="line" smooth="yes"/>
      <point x="592" y="1464"/>
      <point x="574" y="1436"/>
      <point x="540" y="1436" type="curve" smooth="yes"/>
      <point x="510" y="1436"/>
      <point x="486" y="1449"/>
      <point x="456" y="1470" type="curve" smooth="yes"/>
      <point x="420" y="1495" type="line"/>
      <point x="332" y="1330" type="line"/>
      <point x="368" y="1305" type="line" smooth="yes"/>
      <point x="428" y="1263"/>
      <point x="483" y="1228"/>
    </contour>
    <contour>
      <point x="38" y="1346" type="curve" smooth="yes"/>
      <point x="38" y="1250" type="line"/>
      <point x="196" y="1250" type="line"/>
      <point x="196" y="1286" type="line" smooth="yes"/>
      <point x="196" y="1336"/>
      <point x="214" y="1364"/>
      <point x="248" y="1364" type="curve" smooth="yes"/>
      <point x="278" y="1364"/>
      <point x="302" y="1351"/>
      <point x="332" y="1330" type="curve" smooth="yes"/>
      <point x="368" y="1305" type="line"/>
      <point x="456" y="1470" type="line"/>
      <point x="420" y="1495" type="line" smooth="yes"/>
      <point x="360" y="1537"/>
      <point x="305" y="1572"/>
      <point x="226" y="1572" type="curve" smooth="yes"/>
      <point x="102" y="1572"/>
      <point x="38" y="1491"/>
    </contour>
  </outline>
</glyph>
<glyph name="imacron" format="2">
  <advance width="789"/>
  <unicode hex="012B"/>
  <anchor x="394" y="0" name="bottom"/>
  <anchor x="608" y="0" name="ogonek"/>
  <anchor x="394" y="1140" name="top"/>
  <outline>
    <contour>
      <point x="38" y="0" type="line"/>
      <point x="755" y="0" type="line"/>
      <point x="755" y="192" type="line"/>
      <point x="608" y="192" type="line"/>
      <point x="608" y="1140" type="line"/>
      <point x="54" y="1140" type="line"/>
      <point x="54" y="948" type="line"/>
      <point x="208" y="948" type="line"/>
      <point x="208" y="192" type="line"/>
      <point x="38" y="192" type="line"/>
    </contour>
    <contour>
      <point x="24" y="1270" type="line"/>
      <point x="764" y="1270" type="line"/>
      <point x="764" y="1470" type="line"/>
      <point x="24" y="1470" type="line"/>
    </contour>
  </outline>
</glyph>
<glyph name="Ibreve" format="2">
  <advance width="908"/>
  <unicode hex="012C"/>
  <anchor x="454" y="0" name="bottom"/>
  <anchor x="664" y="0" name="ogonek"/>
  <anchor x="454" y="1860" name="side"/>
  <anchor x="454" y="1890" name="top"/>
  <anchor x="30" y="1500" name="topleft"/>
  <outline>
    <contour>
      <point x="52" y="0" type="line"/>
      <point x="856" y="0" type="line"/>
      <point x="856" y="196" type="line"/>
      <point x="664" y="196" type="line"/>
      <point x="664" y="1304" type="line"/>
      <point x="853" y="1304" type="line"/>
      <point x="853" y="1500" type="line"/>
      <point x="55" y="1500" type="line"/>
      <point x="55" y="1304" type="line"/>
      <point x="244" y="1304" type="line"/>
      <point x="244" y="196" type="line"/>
      <point x="52" y="196" type="line"/>
    </contour>
    <contour>
      <point x="454" y="1580" type="curve" smooth="yes"/>
      <point x="693" y="1580"/>
      <point x="828" y="1724"/>
      <point x="828" y="1910" type="curve"/>
      <point x="654" y="1910" type="line"/>
      <point x="642" y="1852"/>
      <point x="585" y="1788"/>
      <point x="454" y="1788" type="curve" smooth="yes"/>
      <point x="323" y="1788"/>
      <point x="266" y="1852"/>
      <point x="254" y="1910" type="curve"/>
      <point x="80" y="1910" type="line"/>
      <point x="80" y="1724"/>
      <point x="215" y="1580"/>
    </contour>
  </outline>
</glyph>
<glyph name="Iogonek" format="2">
  <advance width="908"/>
  <unicode hex="012E"/>
  <anchor x="454" y="0" name="bottom"/>
  <anchor x="664" y="0" name="ogonek"/>
  <anchor x="454" y="1500" name="top"/>
  <anchor x="30" y="1500" name="topleft"/>
  <outline>
    <contour>
      <point x="52" y="0" type="line"/>
      <point x="856" y="0" type="line"/>
      <point x="856" y="196" type="line"/>
      <point x="664" y="196" type="line"/>
      <point x="664" y="1304" type="line"/>
      <point x="853" y="1304" type="line"/>
      <point x="853" y="1500" type="line"/>
      <point x="55" y="1500" type="line"/>
      <point x="55" y="1304" type="line"/>
      <point x="244" y="1304" type="line"/>
      <point x="244" y="196" type="line"/>
      <point x="52" y="196" type="line"/>
    </contour>
    <contour>
      <point x="489" y="-440" type="curve" smooth="yes"/>
      <point x="575" y="-440"/>
      <point x="643" y="-417"/>
      <point x="685" y="-390" type="curve"/>
      <point x="633" y="-271" type="line"/>
      <point x="612" y="-281"/>
      <point x="595" y="-287"/>
      <point x="568" y="-287" type="curve" smooth="yes"/>
      <point x="515" y="-287"/>
      <point x="476" y="-256"/>
      <point x="476" y="-198" type="curve" smooth="yes"/>
      <point x="476" y="-119"/>
      <point x="527" y="-55"/>
      <point x="584" y="10" type="curve"/>
      <point x="483" y="106" type="line"/>
      <point x="357" y="20"/>
      <point x="234" y="-89"/>
      <point x="234" y="-228" type="curve" smooth="yes"/>
      <point x="234" y="-360"/>
      <point x="346" y="-440"/>
    </contour>
  </outline>
</glyph>
<glyph name="iogonek" format="2">
  <advance width="789"/>
  <unicode hex="012F"/>
  <anchor x="394" y="0" name="bottom"/>
  <anchor x="608" y="0" name="ogonek"/>
  <anchor x="394" y="1586" name="top"/>
  <outline>
    <contour>
      <point x="38" y="0" type="line"/>
      <point x="755" y="0" type="line"/>
      <point x="755" y="192" type="line"/>
      <point x="608" y="192" type="line"/>
      <point x="608" y="1140" type="line"/>
      <point x="54" y="1140" type="line"/>
      <point x="54" y="948" type="line"/>
      <point x="208" y="948" type="line"/>
      <point x="208" y="192" type="line"/>
      <point x="38" y="192" type="line"/>
    </contour>
    <contour>
      <point x="394" y="1224" type="curve" smooth="yes"/>
      <point x="523" y="1224"/>
      <point x="610" y="1307"/>
      <point x="610" y="1438" type="curve" smooth="yes"/>
      <point x="610" y="1568"/>
      <point x="523" y="1652"/>
      <point x="394" y="1652" type="curve" smooth="yes"/>
      <point x="265" y="1652"/>
      <point x="178" y="1568"/>
      <point x="178" y="1438" type="curve" smooth="yes"/>
      <point x="178" y="1307"/>
      <point x="265" y="1224"/>
    </contour>
    <contour>
      <point x="433" y="-440" type="curve" smooth="yes"/>
      <point x="519" y="-440"/>
      <point x="587" y="-417"/>
      <point x="629" y="-390" type="curve"/>
      <point x="577" y="-271" type="line"/>
      <point x="556" y="-281"/>
      <point x="539" y="-287"/>
      <point x="512" y="-287" type="curve" smooth="yes"/>
      <point x="459" y="-287"/>
      <point x="420" y="-256"/>
      <point x="420" y="-198" type="curve" smooth="yes"/>
      <point x="420" y="-119"/>
      <point x="471" y="-55"/>
      <point x="528" y="10" type="curve"/>
      <point x="427" y="106" type="line"/>
      <point x="301" y="20"/>
      <point x="178" y="-89"/>
      <point x="178" y="-228" type="curve" smooth="yes"/>
      <point x="178" y="-360"/>
      <point x="290" y="-440"/>
    </contour>
  </outline>
</glyph>
<glyph name="Idotaccent" format="2">
  <advance width="908"/>
  <unicode hex="0130"/>
  <anchor x="454" y="0" name="bottom"/>
  <anchor x="664" y="0" name="ogonek"/>
  <anchor x="454" y="1946" name="top"/>
  <anchor x="30" y="1500" name="topleft"/>
  <outline>
    <contour>
      <point x="52" y="0" type="line"/>
      <point x="856" y="0" type="line"/>
      <point x="856" y="196" type="line"/>
      <point x="664" y="196" type="line"/>
      <point x="664" y="1304" type="line"/>
      <point x="853" y="1304" type="line"/>
      <point x="853" y="1500" type="line"/>
      <point x="55" y="1500" type="line"/>
      <point x="55" y="1304" type="line"/>
      <point x="244" y="1304" type="line"/>
      <point x="244" y="196" type="line"/>
      <point x="52" y="196" type="line"/>
    </contour>
    <contour>
      <point x="454" y="1584" type="curve" smooth="yes"/>
      <point x="583" y="1584"/>
      <point x="670" y="1667"/>
      <point x="670" y="1798" type="curve" smooth="yes"/>
      <point x="670" y="1928"/>
      <point x="583" y="2012"/>
      <point x="454" y="2012" type="curve" smooth="yes"/>
      <point x="325" y="2012"/>
      <point x="238" y="1928"/>
      <point x="238" y="1798" type="curve" smooth="yes"/>
      <point x="238" y="1667"/>
      <point x="325" y="1584"/>
    </contour>
  </outline>
</glyph>
<glyph name="idotless" format="2">
  <advance width="789"/>
  <unicode hex="0131"/>
  <anchor x="394" y="0" name="bottom"/>
  <anchor x="608" y="0" name="ogonek"/>
  <anchor x="394" y="1140" name="top"/>
  <outline>
    <contour>
      <point x="38" y="0" type="line"/>
      <point x="755" y="0" type="line"/>
      <point x="755" y="192" type="line"/>
      <point x="608" y="192" type="line"/>
      <point x="608" y="1140" type="line"/>
      <point x="54" y="1140" type="line"/>
      <point x="54" y="948" type="line"/>
      <point x="208" y="948" type="line"/>
      <point x="208" y="192" type="line"/>
      <point x="38" y="192" type="line"/>
    </contour>
  </outline>
</glyph>
<glyph name="Jcircumflex" format="2">
  <advance width="1233"/>
  <unicode hex="0134"/>
  <anchor x="611" y="0" name="bottom"/>
  <anchor x="1180" y="1680" name="side"/>
  <anchor x="731" y="1890" name="top"/>
  <outline>
    <contour>
      <point x="531" y="-32" type="curve" smooth="yes"/>
      <point x="835" y="-32"/>
      <point x="1012" y="126"/>
      <point x="1012" y="418" type="curve" smooth="yes"/>
      <point x="1012" y="1304" type="line"/>
      <point x="1185" y="1304" type="line"/>
      <point x="1185" y="1500" type="line"/>
      <point x="275" y="1500" type="line"/>
      <point x="275" y="1304" type="line"/>
      <point x="592" y="1304" type="line"/>
      <point x="592" y="418" type="line" smooth="yes"/>
      <point x="592" y="313"/>
      <point x="540" y="238"/>
      <point x="418" y="238" type="curve" smooth="yes"/>
      <point x="296" y="238"/>
      <point x="248" y="314"/>
      <point x="248" y="418" type="curve" smooth="yes"/>
      <point x="248" y="597" type="line"/>
      <point x="50" y="597" type="line"/>
      <point x="50" y="418" type="line" smooth="yes"/>
      <point x="50" y="126"/>
      <point x="227" y="-32"/>
    </contour>
    <contour>
      <point x="342" y="1610" type="line"/>
      <point x="542" y="1610" type="line"/>
      <point x="786" y="1823" type="line"/>
      <point x="616" y="1823" type="line"/>
      <point x="856" y="1610" type="line"/>
      <point x="1120" y="1610" type="line"/>
      <point x="934" y="1910" type="line"/>
      <point x="528" y="1910" type="line"/>
    </contour>
  </outline>
</glyph>
<glyph name="jcircumflex" format="2">
  <advance width="724"/>
  <unicode hex="0135"/>
  <anchor x="372" y="-440" name="bottom"/>
  <anchor x="855" y="1320" name="side"/>
  <anchor x="406" y="1530" name="top"/>
  <outline>
    <contour>
      <point x="216" y="-135" type="line"/>
      <point x="620" y="54" type="line"/>
      <point x="620" y="1140" type="line"/>
      <point x="62" y="1140" type="line"/>
      <point x="62" y="948" type="line"/>
      <point x="216" y="948" type="line"/>
    </contour>
    <contour>
      <point x="100" y="-452" type="curve"/>
      <point x="62" y="-302" type="line"/>
      <point x="5" y="-302"/>
      <point x="-36" y="-273"/>
      <point x="-59" y="-239" type="curve"/>
      <point x="-78" y="-300" type="line"/>
      <point x="43" y="-300"/>
      <point x="135" y="-278"/>
      <point x="135" y="-170" type="curve" smooth="yes"/>
      <point x="135" y="-83"/>
      <point x="50" y="-40"/>
      <point x="-50" y="-40" type="curve" smooth="yes"/>
      <point x="-188" y="-40"/>
      <point x="-262" y="-122"/>
      <point x="-262" y="-216" type="curve" smooth="yes"/>
      <point x="-262" y="-358"/>
      <point x="-113" y="-452"/>
    </contour>
    <contour>
      <point x="62" y="-302" type="curve"/>
      <point x="100" y="-452" type="line"/>
      <point x="374" y="-452"/>
      <point x="620" y="-295"/>
      <point x="620" y="54" type="curve"/>
      <point x="216" y="-135" type="line"/>
      <point x="216" y="-255"/>
      <point x="158" y="-302"/>
    </contour>
    <contour>
      <point x="17" y="1250" type="line"/>
      <point x="217" y="1250" type="line"/>
      <point x="461" y="1463" type="line"/>
      <point x="291" y="1463" type="line"/>
      <point x="531" y="1250" type="line"/>
      <point x="795" y="1250" type="line"/>
      <point x="609" y="1550" type="line"/>
      <point x="203" y="1550" type="line"/>
    </contour>
  </outline>
</glyph>
<glyph name="Kcommaaccent" format="2">
  <advance width="1755"/>
  <unicode hex="0136"/>
  <anchor x="864" y="0" name="bottom"/>
  <anchor x="864" y="1500" name="top"/>
  <outline>
    <contour>
      <point x="568" y="446" type="line"/>
      <point x="1516" y="1304" type="line"/>
      <point x="1658" y="1304" type="line"/>
      <point x="1658" y="1500" type="line"/>
      <point x="1000" y="1500" type="line"/>
      <point x="1000" y="1304" type="line"/>
      <point x="1196" y="1304" type="line"/>
      <point x="428" y="605" type="line"/>
    </contour>
    <contour>
      <point x="54" y="0" type="line"/>
      <point x="797" y="0" type="line"/>
      <point x="797" y="196" type="line"/>
      <point x="650" y="196" type="line"/>
      <point x="650" y="1304" type="line"/>
      <point x="823" y="1304" type="line"/>
      <point x="823" y="1500" type="line"/>
      <point x="57" y="1500" type="line"/>
      <point x="57" y="1304" type="line"/>
      <point x="230" y="1304" type="line"/>
      <point x="230" y="196" type="line"/>
      <point x="54" y="196" type="line"/>
    </contour>
    <contour>
      <point x="946" y="0" type="line"/>
      <point x="1718" y="0" type="line"/>
      <point x="1718" y="196" type="line"/>
      <point x="1597" y="196" type="line"/>
      <point x="1020" y="923" type="line"/>
      <point x="735" y="676" type="line"/>
      <point x="1100" y="196" type="line"/>
      <point x="946" y="196" type="line"/>
    </contour>
    <contour>
      <point x="710" y="-687" type="curve"/>
      <point x="861" y="-687" type="line"/>
      <point x="962" y="-621"/>
      <point x="1092" y="-490"/>
      <point x="1092" y="-305" type="curve" smooth="yes"/>
      <point x="1092" y="-151"/>
      <point x="992" y="-76"/>
      <point x="856" y="-76" type="curve" smooth="yes"/>
      <point x="720" y="-76"/>
      <point x="636" y="-150"/>
      <point x="636" y="-256" type="curve" smooth="yes"/>
      <point x="636" y="-379"/>
      <point x="736" y="-449"/>
      <point x="887" y="-433" type="curve"/>
      <point x="871" y="-513"/>
      <point x="804" y="-605"/>
    </contour>
  </outline>
</glyph>
<glyph name="kcommaaccent" format="2">
  <advance width="1478"/>
  <unicode hex="0137"/>
  <anchor x="740" y="0" name="bottom"/>
  <anchor x="740" y="1500" name="top"/>
  <outline>
    <contour>
      <point x="34" y="0" type="line"/>
      <point x="713" y="0" type="line"/>
      <point x="713" y="192" type="line"/>
      <point x="604" y="192" type="line"/>
      <point x="605" y="1500" type="line"/>
      <point x="51" y="1500" type="line"/>
      <point x="51" y="1308" type="line"/>
      <point x="205" y="1308" type="line"/>
      <point x="204" y="192" type="line"/>
      <point x="35" y="192" type="line"/>
    </contour>
    <contour>
      <point x="788" y="0" type="line"/>
      <point x="1438" y="0" type="line"/>
      <point x="1438" y="192" type="line"/>
      <point x="1324" y="192" type="line"/>
      <point x="895" y="799" type="line"/>
      <point x="658" y="563" type="line"/>
      <point x="904" y="192" type="line"/>
      <point x="788" y="192" type="line"/>
    </contour>
    <contour>
      <point x="577" y="360" type="line"/>
      <point x="1234" y="948" type="line"/>
      <point x="1370" y="948" type="line"/>
      <point x="1370" y="1140" type="line"/>
      <point x="741" y="1140" type="line"/>
      <point x="741" y="948" type="line"/>
      <point x="935" y="948" type="line"/>
      <point x="447" y="508" type="line"/>
    </contour>
    <contour>
      <point x="586" y="-687" type="curve"/>
      <point x="737" y="-687" type="line"/>
      <point x="838" y="-621"/>
      <point x="968" y="-490"/>
      <point x="968" y="-305" type="curve" smooth="yes"/>
      <point x="968" y="-151"/>
      <point x="868" y="-76"/>
      <point x="732" y="-76" type="curve" smooth="yes"/>
      <point x="596" y="-76"/>
      <point x="512" y="-150"/>
      <point x="512" y="-256" type="curve" smooth="yes"/>
      <point x="512" y="-379"/>
      <point x="612" y="-449"/>
      <point x="763" y="-433" type="curve"/>
      <point x="747" y="-513"/>
      <point x="680" y="-605"/>
    </contour>
  </outline>
</glyph>
<glyph name="kgreenlandic" format="2">
  <advance width="1461"/>
  <unicode hex="0138"/>
  <outline>
    <contour>
      <point x="38" y="0" type="line"/>
      <point x="697" y="0" type="line"/>
      <point x="697" y="192" type="line"/>
      <point x="598" y="192" type="line"/>
      <point x="598" y="948" type="line"/>
      <point x="691" y="948" type="line"/>
      <point x="691" y="1140" type="line"/>
      <point x="44" y="1140" type="line"/>
      <point x="44" y="948" type="line"/>
      <point x="198" y="948" type="line"/>
      <point x="198" y="192" type="line"/>
      <point x="38" y="192" type="line"/>
    </contour>
    <contour>
      <point x="571" y="348" type="line"/>
      <point x="1231" y="948" type="line"/>
      <point x="1365" y="948" type="line"/>
      <point x="1365" y="1140" type="line"/>
      <point x="763" y="1140" type="line"/>
      <point x="763" y="948" type="line"/>
      <point x="921" y="948" type="line"/>
      <point x="429" y="496" type="line"/>
    </contour>
    <contour>
      <point x="764" y="0" type="line"/>
      <point x="1421" y="0" type="line"/>
      <point x="1421" y="192" type="line"/>
      <point x="1312" y="192" type="line"/>
      <point x="909" y="799" type="line"/>
      <point x="649" y="563" type="line"/>
      <point x="879" y="192" type="line"/>
      <point x="764" y="192" type="line"/>
    </contour>
  </outline>
</glyph>
<glyph name="lacute" format="2">
  <advance width="779"/>
  <unicode hex="013A"/>
  <anchor x="393" y="0" name="bottom"/>
  <anchor x="404" y="1140" name="center"/>
  <anchor x="384" y="1500" name="top"/>
  <anchor x="598" y="1500" name="topright"/>
  <outline>
    <contour>
      <point x="34" y="0" type="line"/>
      <point x="745" y="0" type="line"/>
      <point x="745" y="192" type="line"/>
      <point x="598" y="192" type="line"/>
      <point x="598" y="1500" type="line"/>
      <point x="40" y="1500" type="line"/>
      <point x="40" y="1308" type="line"/>
      <point x="194" y="1308" type="line"/>
      <point x="194" y="192" type="line"/>
      <point x="34" y="192" type="line"/>
    </contour>
    <contour>
      <point x="231" y="1610" type="line"/>
      <point x="469" y="1610" type="line"/>
      <point x="769" y="1910" type="line"/>
      <point x="361" y="1910" type="line"/>
    </contour>
  </outline>
</glyph>
<glyph name="Lcommaaccent" format="2">
  <advance width="1484"/>
  <unicode hex="013B"/>
  <anchor x="729" y="0" name="bottom"/>
  <anchor x="440" y="1240" name="center"/>
  <anchor x="440" y="1500" name="top"/>
  <anchor x="959" y="1500" name="topright"/>
  <outline>
    <contour>
      <point x="54" y="0" type="line"/>
      <point x="650" y="0" type="line"/>
      <point x="650" y="1304" type="line"/>
      <point x="967" y="1304" type="line"/>
      <point x="967" y="1500" type="line"/>
      <point x="57" y="1500" type="line"/>
      <point x="57" y="1304" type="line"/>
      <point x="230" y="1304" type="line"/>
      <point x="230" y="196" type="line"/>
      <point x="54" y="196" type="line"/>
    </contour>
    <contour>
      <point x="650" y="0" type="line"/>
      <point x="1400" y="0" type="line"/>
      <point x="1400" y="206" type="line"/>
      <point x="650" y="206" type="line"/>
    </contour>
    <contour>
      <point x="982" y="206" type="curve" smooth="yes"/>
      <point x="1400" y="206" type="line"/>
      <point x="1400" y="560" type="line"/>
      <point x="1202" y="560" type="line"/>
      <point x="1202" y="446" type="line" smooth="yes"/>
      <point x="1202" y="276"/>
      <point x="1142" y="206"/>
    </contour>
    <contour>
      <point x="575" y="-687" type="curve"/>
      <point x="726" y="-687" type="line"/>
      <point x="827" y="-621"/>
      <point x="957" y="-490"/>
      <point x="957" y="-305" type="curve" smooth="yes"/>
      <point x="957" y="-151"/>
      <point x="857" y="-76"/>
      <point x="721" y="-76" type="curve" smooth="yes"/>
      <point x="585" y="-76"/>
      <point x="501" y="-150"/>
      <point x="501" y="-256" type="curve" smooth="yes"/>
      <point x="501" y="-379"/>
      <point x="601" y="-449"/>
      <point x="752" y="-433" type="curve"/>
      <point x="736" y="-513"/>
      <point x="669" y="-605"/>
    </contour>
  </outline>
</glyph>
<glyph name="lcommaaccent" format="2">
  <advance width="779"/>
  <unicode hex="013C"/>
  <anchor x="393" y="0" name="bottom"/>
  <anchor x="404" y="1140" name="center"/>
  <anchor x="384" y="1500" name="top"/>
  <anchor x="598" y="1500" name="topright"/>
  <outline>
    <contour>
      <point x="34" y="0" type="line"/>
      <point x="745" y="0" type="line"/>
      <point x="745" y="192" type="line"/>
      <point x="598" y="192" type="line"/>
      <point x="598" y="1500" type="line"/>
      <point x="40" y="1500" type="line"/>
      <point x="40" y="1308" type="line"/>
      <point x="194" y="1308" type="line"/>
      <point x="194" y="192" type="line"/>
      <point x="34" y="192" type="line"/>
    </contour>
    <contour>
      <point x="239" y="-687" type="curve"/>
      <point x="390" y="-687" type="line"/>
      <point x="491" y="-621"/>
      <point x="621" y="-490"/>
      <point x="621" y="-305" type="curve" smooth="yes"/>
      <point x="621" y="-151"/>
      <point x="521" y="-76"/>
      <point x="385" y="-76" type="curve" smooth="yes"/>
      <point x="249" y="-76"/>
      <point x="165" y="-150"/>
      <point x="165" y="-256" type="curve" smooth="yes"/>
      <point x="165" y="-379"/>
      <point x="265" y="-449"/>
      <point x="416" y="-433" type="curve"/>
      <point x="400" y="-513"/>
      <point x="333" y="-605"/>
    </contour>
  </outline>
</glyph>
<glyph name="Lcaron" format="2">
  <advance width="1484"/>
  <unicode hex="013D"/>
  <anchor x="729" y="0" name="bottom"/>
  <anchor x="440" y="1240" name="center"/>
  <anchor x="440" y="1500" name="top"/>
  <anchor x="959" y="1500" name="topright"/>
  <outline>
    <contour>
      <point x="54" y="0" type="line"/>
      <point x="650" y="0" type="line"/>
      <point x="650" y="1304" type="line"/>
      <point x="967" y="1304" type="line"/>
      <point x="967" y="1500" type="line"/>
      <point x="57" y="1500" type="line"/>
      <point x="57" y="1304" type="line"/>
      <point x="230" y="1304" type="line"/>
      <point x="230" y="196" type="line"/>
      <point x="54" y="196" type="line"/>
    </contour>
    <contour>
      <point x="650" y="0" type="line"/>
      <point x="1400" y="0" type="line"/>
      <point x="1400" y="206" type="line"/>
      <point x="650" y="206" type="line"/>
    </contour>
    <contour>
      <point x="982" y="206" type="curve" smooth="yes"/>
      <point x="1400" y="206" type="line"/>
      <point x="1400" y="560" type="line"/>
      <point x="1202" y="560" type="line"/>
      <point x="1202" y="446" type="line" smooth="yes"/>
      <point x="1202" y="276"/>
      <point x="1142" y="206"/>
    </contour>
    <contour>
      <point x="1069" y="1050" type="line"/>
      <point x="1249" y="1050" type="line"/>
      <point x="1411" y="1500" type="line"/>
      <point x="1083" y="1500" type="line"/>
    </contour>
  </outline>
</glyph>
<glyph name="lcaron" format="2">
  <advance width="1004"/>
  <unicode hex="013E"/>
  <anchor x="393" y="0" name="bottom"/>
  <anchor x="404" y="1140" name="center"/>
  <anchor x="384" y="1500" name="top"/>
  <anchor x="598" y="1500" name="topright"/>
  <outline>
    <contour>
      <point x="34" y="0" type="line"/>
      <point x="745" y="0" type="line"/>
      <point x="745" y="192" type="line"/>
      <point x="598" y="192" type="line"/>
      <point x="598" y="1500" type="line"/>
      <point x="40" y="1500" type="line"/>
      <point x="40" y="1308" type="line"/>
      <point x="194" y="1308" type="line"/>
      <point x="194" y="192" type="line"/>
      <point x="34" y="192" type="line"/>
    </contour>
    <contour>
      <point x="708" y="1050" type="line"/>
      <point x="888" y="1050" type="line"/>
      <point x="1050" y="1500" type="line"/>
      <point x="722" y="1500" type="line"/>
    </contour>
  </outline>
</glyph>
<glyph name="Ldot" format="2">
  <advance width="1484"/>
  <unicode hex="013F"/>
  <anchor x="729" y="0" name="bottom"/>
  <anchor x="440" y="1240" name="center"/>
  <anchor x="440" y="1500" name="top"/>
  <anchor x="959" y="1500" name="topright"/>
  <outline>
    <contour>
      <point x="54" y="0" type="line"/>
      <point x="650" y="0" type="line"/>
      <point x="650" y="1304" type="line"/>
      <point x="967" y="1304" type="line"/>
      <point x="967" y="1500" type="line"/>
      <point x="57" y="1500" type="line"/>
      <point x="57" y="1304" type="line"/>
      <point x="230" y="1304" type="line"/>
      <point x="230" y="196" type="line"/>
      <point x="54" y="196" type="line"/>
    </contour>
    <contour>
      <point x="650" y="0" type="line"/>
      <point x="1400" y="0" type="line"/>
      <point x="1400" y="206" type="line"/>
      <point x="650" y="206" type="line"/>
    </contour>
    <contour>
      <point x="982" y="206" type="curve" smooth="yes"/>
      <point x="1400" y="206" type="line"/>
      <point x="1400" y="560" type="line"/>
      <point x="1202" y="560" type="line"/>
      <point x="1202" y="446" type="line" smooth="yes"/>
      <point x="1202" y="276"/>
      <point x="1142" y="206"/>
    </contour>
    <contour>
      <point x="1154" y="749" type="curve" smooth="yes"/>
      <point x="1283" y="749"/>
      <point x="1370" y="832"/>
      <point x="1370" y="963" type="curve" smooth="yes"/>
      <point x="1370" y="1093"/>
      <point x="1283" y="1177"/>
      <point x="1154" y="1177" type="curve" smooth="yes"/>
      <point x="1025" y="1177"/>
      <point x="938" y="1093"/>
      <point x="938" y="963" type="curve" smooth="yes"/>
      <point x="938" y="832"/>
      <point x="1025" y="749"/>
    </contour>
  </outline>
</glyph>
<glyph name="ldot" format="2">
  <advance width="1261"/>
  <unicode hex="0140"/>
  <anchor x="393" y="0" name="bottom"/>
  <anchor x="404" y="1140" name="center"/>
  <anchor x="384" y="1500" name="top"/>
  <anchor x="598" y="1500" name="topright"/>
  <outline>
    <contour>
      <point x="34" y="0" type="line"/>
      <point x="745" y="0" type="line"/>
      <point x="745" y="192" type="line"/>
      <point x="598" y="192" type="line"/>
      <point x="598" y="1500" type="line"/>
      <point x="40" y="1500" type="line"/>
      <point x="40" y="1308" type="line"/>
      <point x="194" y="1308" type="line"/>
      <point x="194" y="192" type="line"/>
      <point x="34" y="192" type="line"/>
    </contour>
    <contour>
      <point x="1013" y="378" type="curve" smooth="yes"/>
      <point x="1142" y="378"/>
      <point x="1229" y="461"/>
      <point x="1229" y="592" type="curve" smooth="yes"/>
      <point x="1229" y="722"/>
      <point x="1142" y="806"/>
      <point x="1013" y="806" type="curve" smooth="yes"/>
      <point x="884" y="806"/>
      <point x="797" y="722"/>
      <point x="797" y="592" type="curve" smooth="yes"/>
      <point x="797" y="461"/>
      <point x="884" y="378"/>
    </contour>
  </outline>
</glyph>
<glyph name="Lslash" format="2">
  <advance width="1552"/>
  <unicode hex="0141"/>
  <anchor x="797" y="0" name="bottom"/>
  <anchor x="508" y="1240" name="center"/>
  <anchor x="508" y="1500" name="top"/>
  <anchor x="1027" y="1500" name="topright"/>
  <outline>
    <contour>
      <point x="122" y="0" type="line"/>
      <point x="718" y="0" type="line"/>
      <point x="718" y="1304" type="line"/>
      <point x="1035" y="1304" type="line"/>
      <point x="1035" y="1500" type="line"/>
      <point x="125" y="1500" type="line"/>
      <point x="125" y="1304" type="line"/>
      <point x="298" y="1304" type="line"/>
      <point x="298" y="196" type="line"/>
      <point x="122" y="196" type="line"/>
    </contour>
    <contour>
      <point x="718" y="0" type="line"/>
      <point x="1468" y="0" type="line"/>
      <point x="1468" y="206" type="line"/>
      <point x="718" y="206" type="line"/>
    </contour>
    <contour>
      <point x="1050" y="206" type="curve" smooth="yes"/>
      <point x="1468" y="206" type="line"/>
      <point x="1468" y="560" type="line"/>
      <point x="1270" y="560" type="line"/>
      <point x="1270" y="446" type="line" smooth="yes"/>
      <point x="1270" y="276"/>
      <point x="1210" y="206"/>
    </contour>
    <contour>
      <point x="46" y="530" type="line"/>
      <point x="1004" y="760" type="line"/>
      <point x="1004" y="960" type="line"/>
      <point x="46" y="730" type="line"/>
    </contour>
  </outline>
</glyph>
<glyph name="lslash" format="2">
  <advance width="1032"/>
  <unicode hex="0142"/>
  <anchor x="489" y="0" name="bottom"/>
  <anchor x="500" y="1140" name="center"/>
  <anchor x="480" y="1500" name="top"/>
  <anchor x="694" y="1500" name="topright"/>
  <outline>
    <contour>
      <point x="130" y="0" type="line"/>
      <point x="841" y="0" type="line"/>
      <point x="841" y="192" type="line"/>
      <point x="694" y="192" type="line"/>
      <point x="694" y="1500" type="line"/>
      <point x="136" y="1500" type="line"/>
      <point x="136" y="1308" type="line"/>
      <point x="290" y="1308" type="line"/>
      <point x="290" y="192" type="line"/>
      <point x="130" y="192" type="line"/>
    </contour>
    <contour>
      <point x="38" y="430" type="line"/>
      <point x="996" y="660" type="line"/>
      <point x="996" y="860" type="line"/>
      <point x="38" y="630" type="line"/>
    </contour>
  </outline>
</glyph>
